%
M48
M72
T01C0.02362
T02C0.02400
T03C0.02756
T04C0.03543
T05C0.04000
T06C0.08000
T07C0.13000
%
T01
X438333Y105000
T02
X452708Y140625
X522708Y210625
X465833Y241875
X538958Y269375
X492708Y295000
X380833Y302500
T03
X448333Y260000
X448333Y250000
X513333Y225000
X523333Y225000
X568333Y220000
X568333Y230000
X433333Y215000
X423333Y215000
X418333Y180000
X418333Y170000
X488333Y310000
X488333Y320000
T04
X643333Y245000
X643333Y195000
X628333Y170000
X608333Y150000
X578333Y170000
X558333Y150000
X538333Y105000
X488333Y105000
X498333Y60000
X448333Y60000
X548333Y60000
X598333Y60000
T05
X388333Y125000
X388333Y135000
X388333Y145000
X388333Y155000
X388333Y165000
X388333Y175000
X368333Y185000
X368333Y195000
X368333Y205000
X368333Y215000
X368333Y225000
X368333Y235000
X363333Y295000
X363333Y305000
X363333Y315000
X528333Y320000
X538333Y320000
X548333Y320000
X558333Y320000
X568333Y320000
X578333Y320000
X598333Y320000
X608333Y320000
X618333Y320000
X628333Y320000
X638333Y320000
X648333Y320000
X643333Y130000
X653333Y130000
X663333Y130000
X673333Y130000
X683333Y130000
X633333Y130000
X623333Y130000
X613333Y130000
X598333Y130000
X588333Y130000
X578333Y130000
X568333Y130000
X558333Y130000
X548333Y130000
X538333Y130000
X528333Y130000
X708833Y95000
X707833Y85000
X708833Y75000
X707833Y65000
T06
X708333Y280000
X690333Y280000
T07
X304333Y305000
M30
