G75*
%MOIN*%
%OFA0B0*%
%FSLAX25Y25*%
%IPPOS*%
%LPD*%
%AMOC8*
5,1,8,0,0,1.08239X$1,22.5*
%
%ADD10R,0.05787X0.05000*%
%ADD11R,0.05000X0.05787*%
%ADD12R,0.11024X0.09449*%
%ADD13R,0.03720X0.06510*%
%ADD14R,0.06510X0.03720*%
%ADD15R,0.03543X0.03150*%
%ADD16R,0.03150X0.03543*%
%ADD17R,0.03543X0.03346*%
%ADD18R,0.03346X0.03543*%
D10*
X0493333Y0246535D03*
X0493333Y0263465D03*
X0523333Y0263465D03*
X0523333Y0246535D03*
X0543333Y0238465D03*
X0543333Y0221535D03*
X0413333Y0261535D03*
X0383333Y0266535D03*
X0413333Y0278465D03*
X0383333Y0283465D03*
D11*
X0414869Y0240000D03*
X0431798Y0240000D03*
X0549869Y0295000D03*
X0566798Y0295000D03*
D12*
X0684318Y0302441D03*
X0708333Y0302441D03*
X0708333Y0257559D03*
X0684318Y0257559D03*
D13*
X0677063Y0257725D03*
D14*
X0708368Y0251180D03*
X0708718Y0308980D03*
X0683778Y0308970D03*
D15*
X0452270Y0153740D03*
X0452270Y0146260D03*
X0444396Y0150000D03*
X0462270Y0103740D03*
X0454396Y0100000D03*
X0462270Y0096260D03*
D16*
X0419593Y0108937D03*
X0427073Y0108937D03*
X0423333Y0101063D03*
X0599593Y0211063D03*
X0607073Y0211063D03*
X0603333Y0218937D03*
X0573333Y0261063D03*
X0569593Y0268937D03*
X0577073Y0268937D03*
X0487073Y0228937D03*
X0479593Y0228937D03*
X0483333Y0221063D03*
D17*
X0418333Y0302717D03*
X0418333Y0307283D03*
D18*
X0556050Y0335000D03*
X0560617Y0335000D03*
M02*
