G75*
%MOIN*%
%OFA0B0*%
%FSLAX25Y25*%
%IPPOS*%
%LPD*%
%AMOC8*
5,1,8,0,0,1.08239X$1,22.5*
%
%ADD10C,0.01600*%
%ADD11C,0.00600*%
%ADD12C,0.00000*%
%ADD13C,0.00800*%
%ADD14C,0.00500*%
D10*
X0408333Y0085000D02*
X0408333Y0345000D01*
X0718333Y0335000D01*
X0718333Y0085000D01*
X0408333Y0085000D01*
D11*
X0424831Y0135300D02*
X0421628Y0138503D01*
X0428033Y0138503D01*
X0424831Y0139570D02*
X0424831Y0135300D01*
X0424831Y0141745D02*
X0424831Y0146016D01*
X0424831Y0148191D02*
X0424831Y0151394D01*
X0425898Y0152461D01*
X0426966Y0152461D01*
X0428033Y0151394D01*
X0428033Y0149259D01*
X0426966Y0148191D01*
X0424831Y0148191D01*
X0422695Y0150326D01*
X0421628Y0152461D01*
X0433763Y0275300D02*
X0431628Y0277435D01*
X0438033Y0277435D01*
X0438033Y0275300D02*
X0438033Y0279570D01*
X0434831Y0281745D02*
X0434831Y0286016D01*
X0436966Y0288191D02*
X0438033Y0289259D01*
X0438033Y0291394D01*
X0436966Y0292461D01*
X0435898Y0292461D01*
X0434831Y0291394D01*
X0434831Y0290326D01*
X0434831Y0291394D02*
X0433763Y0292461D01*
X0432695Y0292461D01*
X0431628Y0291394D01*
X0431628Y0289259D01*
X0432695Y0288191D01*
D12*
X0367833Y0305000D02*
X0367835Y0305161D01*
X0367841Y0305321D01*
X0367851Y0305482D01*
X0367865Y0305642D01*
X0367883Y0305802D01*
X0367904Y0305961D01*
X0367930Y0306120D01*
X0367960Y0306278D01*
X0367993Y0306435D01*
X0368031Y0306592D01*
X0368072Y0306747D01*
X0368117Y0306901D01*
X0368166Y0307054D01*
X0368219Y0307206D01*
X0368275Y0307357D01*
X0368336Y0307506D01*
X0368399Y0307654D01*
X0368467Y0307800D01*
X0368538Y0307944D01*
X0368612Y0308086D01*
X0368690Y0308227D01*
X0368772Y0308365D01*
X0368857Y0308502D01*
X0368945Y0308636D01*
X0369037Y0308768D01*
X0369132Y0308898D01*
X0369230Y0309026D01*
X0369331Y0309151D01*
X0369435Y0309273D01*
X0369542Y0309393D01*
X0369652Y0309510D01*
X0369765Y0309625D01*
X0369881Y0309736D01*
X0370000Y0309845D01*
X0370121Y0309950D01*
X0370245Y0310053D01*
X0370371Y0310153D01*
X0370499Y0310249D01*
X0370630Y0310342D01*
X0370764Y0310432D01*
X0370899Y0310519D01*
X0371037Y0310602D01*
X0371176Y0310682D01*
X0371318Y0310758D01*
X0371461Y0310831D01*
X0371606Y0310900D01*
X0371753Y0310966D01*
X0371901Y0311028D01*
X0372051Y0311086D01*
X0372202Y0311141D01*
X0372355Y0311192D01*
X0372509Y0311239D01*
X0372664Y0311282D01*
X0372820Y0311321D01*
X0372976Y0311357D01*
X0373134Y0311388D01*
X0373292Y0311416D01*
X0373451Y0311440D01*
X0373611Y0311460D01*
X0373771Y0311476D01*
X0373931Y0311488D01*
X0374092Y0311496D01*
X0374253Y0311500D01*
X0374413Y0311500D01*
X0374574Y0311496D01*
X0374735Y0311488D01*
X0374895Y0311476D01*
X0375055Y0311460D01*
X0375215Y0311440D01*
X0375374Y0311416D01*
X0375532Y0311388D01*
X0375690Y0311357D01*
X0375846Y0311321D01*
X0376002Y0311282D01*
X0376157Y0311239D01*
X0376311Y0311192D01*
X0376464Y0311141D01*
X0376615Y0311086D01*
X0376765Y0311028D01*
X0376913Y0310966D01*
X0377060Y0310900D01*
X0377205Y0310831D01*
X0377348Y0310758D01*
X0377490Y0310682D01*
X0377629Y0310602D01*
X0377767Y0310519D01*
X0377902Y0310432D01*
X0378036Y0310342D01*
X0378167Y0310249D01*
X0378295Y0310153D01*
X0378421Y0310053D01*
X0378545Y0309950D01*
X0378666Y0309845D01*
X0378785Y0309736D01*
X0378901Y0309625D01*
X0379014Y0309510D01*
X0379124Y0309393D01*
X0379231Y0309273D01*
X0379335Y0309151D01*
X0379436Y0309026D01*
X0379534Y0308898D01*
X0379629Y0308768D01*
X0379721Y0308636D01*
X0379809Y0308502D01*
X0379894Y0308365D01*
X0379976Y0308227D01*
X0380054Y0308086D01*
X0380128Y0307944D01*
X0380199Y0307800D01*
X0380267Y0307654D01*
X0380330Y0307506D01*
X0380391Y0307357D01*
X0380447Y0307206D01*
X0380500Y0307054D01*
X0380549Y0306901D01*
X0380594Y0306747D01*
X0380635Y0306592D01*
X0380673Y0306435D01*
X0380706Y0306278D01*
X0380736Y0306120D01*
X0380762Y0305961D01*
X0380783Y0305802D01*
X0380801Y0305642D01*
X0380815Y0305482D01*
X0380825Y0305321D01*
X0380831Y0305161D01*
X0380833Y0305000D01*
X0380831Y0304839D01*
X0380825Y0304679D01*
X0380815Y0304518D01*
X0380801Y0304358D01*
X0380783Y0304198D01*
X0380762Y0304039D01*
X0380736Y0303880D01*
X0380706Y0303722D01*
X0380673Y0303565D01*
X0380635Y0303408D01*
X0380594Y0303253D01*
X0380549Y0303099D01*
X0380500Y0302946D01*
X0380447Y0302794D01*
X0380391Y0302643D01*
X0380330Y0302494D01*
X0380267Y0302346D01*
X0380199Y0302200D01*
X0380128Y0302056D01*
X0380054Y0301914D01*
X0379976Y0301773D01*
X0379894Y0301635D01*
X0379809Y0301498D01*
X0379721Y0301364D01*
X0379629Y0301232D01*
X0379534Y0301102D01*
X0379436Y0300974D01*
X0379335Y0300849D01*
X0379231Y0300727D01*
X0379124Y0300607D01*
X0379014Y0300490D01*
X0378901Y0300375D01*
X0378785Y0300264D01*
X0378666Y0300155D01*
X0378545Y0300050D01*
X0378421Y0299947D01*
X0378295Y0299847D01*
X0378167Y0299751D01*
X0378036Y0299658D01*
X0377902Y0299568D01*
X0377767Y0299481D01*
X0377629Y0299398D01*
X0377490Y0299318D01*
X0377348Y0299242D01*
X0377205Y0299169D01*
X0377060Y0299100D01*
X0376913Y0299034D01*
X0376765Y0298972D01*
X0376615Y0298914D01*
X0376464Y0298859D01*
X0376311Y0298808D01*
X0376157Y0298761D01*
X0376002Y0298718D01*
X0375846Y0298679D01*
X0375690Y0298643D01*
X0375532Y0298612D01*
X0375374Y0298584D01*
X0375215Y0298560D01*
X0375055Y0298540D01*
X0374895Y0298524D01*
X0374735Y0298512D01*
X0374574Y0298504D01*
X0374413Y0298500D01*
X0374253Y0298500D01*
X0374092Y0298504D01*
X0373931Y0298512D01*
X0373771Y0298524D01*
X0373611Y0298540D01*
X0373451Y0298560D01*
X0373292Y0298584D01*
X0373134Y0298612D01*
X0372976Y0298643D01*
X0372820Y0298679D01*
X0372664Y0298718D01*
X0372509Y0298761D01*
X0372355Y0298808D01*
X0372202Y0298859D01*
X0372051Y0298914D01*
X0371901Y0298972D01*
X0371753Y0299034D01*
X0371606Y0299100D01*
X0371461Y0299169D01*
X0371318Y0299242D01*
X0371176Y0299318D01*
X0371037Y0299398D01*
X0370899Y0299481D01*
X0370764Y0299568D01*
X0370630Y0299658D01*
X0370499Y0299751D01*
X0370371Y0299847D01*
X0370245Y0299947D01*
X0370121Y0300050D01*
X0370000Y0300155D01*
X0369881Y0300264D01*
X0369765Y0300375D01*
X0369652Y0300490D01*
X0369542Y0300607D01*
X0369435Y0300727D01*
X0369331Y0300849D01*
X0369230Y0300974D01*
X0369132Y0301102D01*
X0369037Y0301232D01*
X0368945Y0301364D01*
X0368857Y0301498D01*
X0368772Y0301635D01*
X0368690Y0301773D01*
X0368612Y0301914D01*
X0368538Y0302056D01*
X0368467Y0302200D01*
X0368399Y0302346D01*
X0368336Y0302494D01*
X0368275Y0302643D01*
X0368219Y0302794D01*
X0368166Y0302946D01*
X0368117Y0303099D01*
X0368072Y0303253D01*
X0368031Y0303408D01*
X0367993Y0303565D01*
X0367960Y0303722D01*
X0367930Y0303880D01*
X0367904Y0304039D01*
X0367883Y0304198D01*
X0367865Y0304358D01*
X0367851Y0304518D01*
X0367841Y0304679D01*
X0367835Y0304839D01*
X0367833Y0305000D01*
X0686333Y0280000D02*
X0686335Y0280126D01*
X0686341Y0280252D01*
X0686351Y0280378D01*
X0686365Y0280504D01*
X0686383Y0280629D01*
X0686405Y0280753D01*
X0686430Y0280877D01*
X0686460Y0281000D01*
X0686493Y0281121D01*
X0686531Y0281242D01*
X0686572Y0281361D01*
X0686617Y0281480D01*
X0686665Y0281596D01*
X0686717Y0281711D01*
X0686773Y0281824D01*
X0686833Y0281936D01*
X0686896Y0282045D01*
X0686962Y0282153D01*
X0687031Y0282258D01*
X0687104Y0282361D01*
X0687181Y0282462D01*
X0687260Y0282560D01*
X0687342Y0282656D01*
X0687428Y0282749D01*
X0687516Y0282840D01*
X0687607Y0282927D01*
X0687701Y0283012D01*
X0687797Y0283093D01*
X0687896Y0283172D01*
X0687997Y0283247D01*
X0688101Y0283319D01*
X0688207Y0283388D01*
X0688315Y0283454D01*
X0688425Y0283516D01*
X0688537Y0283574D01*
X0688650Y0283629D01*
X0688766Y0283680D01*
X0688883Y0283728D01*
X0689001Y0283772D01*
X0689121Y0283812D01*
X0689242Y0283848D01*
X0689364Y0283881D01*
X0689487Y0283910D01*
X0689611Y0283934D01*
X0689735Y0283955D01*
X0689860Y0283972D01*
X0689986Y0283985D01*
X0690112Y0283994D01*
X0690238Y0283999D01*
X0690365Y0284000D01*
X0690491Y0283997D01*
X0690617Y0283990D01*
X0690743Y0283979D01*
X0690868Y0283964D01*
X0690993Y0283945D01*
X0691117Y0283922D01*
X0691241Y0283896D01*
X0691363Y0283865D01*
X0691485Y0283831D01*
X0691605Y0283792D01*
X0691724Y0283750D01*
X0691842Y0283705D01*
X0691958Y0283655D01*
X0692073Y0283602D01*
X0692185Y0283545D01*
X0692296Y0283485D01*
X0692405Y0283421D01*
X0692512Y0283354D01*
X0692617Y0283284D01*
X0692720Y0283210D01*
X0692820Y0283133D01*
X0692918Y0283053D01*
X0693013Y0282970D01*
X0693105Y0282884D01*
X0693195Y0282795D01*
X0693282Y0282703D01*
X0693365Y0282609D01*
X0693446Y0282512D01*
X0693524Y0282412D01*
X0693599Y0282310D01*
X0693670Y0282206D01*
X0693738Y0282099D01*
X0693802Y0281991D01*
X0693863Y0281880D01*
X0693921Y0281768D01*
X0693975Y0281654D01*
X0694025Y0281538D01*
X0694072Y0281421D01*
X0694115Y0281302D01*
X0694154Y0281182D01*
X0694190Y0281061D01*
X0694221Y0280938D01*
X0694249Y0280815D01*
X0694273Y0280691D01*
X0694293Y0280566D01*
X0694309Y0280441D01*
X0694321Y0280315D01*
X0694329Y0280189D01*
X0694333Y0280063D01*
X0694333Y0279937D01*
X0694329Y0279811D01*
X0694321Y0279685D01*
X0694309Y0279559D01*
X0694293Y0279434D01*
X0694273Y0279309D01*
X0694249Y0279185D01*
X0694221Y0279062D01*
X0694190Y0278939D01*
X0694154Y0278818D01*
X0694115Y0278698D01*
X0694072Y0278579D01*
X0694025Y0278462D01*
X0693975Y0278346D01*
X0693921Y0278232D01*
X0693863Y0278120D01*
X0693802Y0278009D01*
X0693738Y0277901D01*
X0693670Y0277794D01*
X0693599Y0277690D01*
X0693524Y0277588D01*
X0693446Y0277488D01*
X0693365Y0277391D01*
X0693282Y0277297D01*
X0693195Y0277205D01*
X0693105Y0277116D01*
X0693013Y0277030D01*
X0692918Y0276947D01*
X0692820Y0276867D01*
X0692720Y0276790D01*
X0692617Y0276716D01*
X0692512Y0276646D01*
X0692405Y0276579D01*
X0692296Y0276515D01*
X0692185Y0276455D01*
X0692073Y0276398D01*
X0691958Y0276345D01*
X0691842Y0276295D01*
X0691724Y0276250D01*
X0691605Y0276208D01*
X0691485Y0276169D01*
X0691363Y0276135D01*
X0691241Y0276104D01*
X0691117Y0276078D01*
X0690993Y0276055D01*
X0690868Y0276036D01*
X0690743Y0276021D01*
X0690617Y0276010D01*
X0690491Y0276003D01*
X0690365Y0276000D01*
X0690238Y0276001D01*
X0690112Y0276006D01*
X0689986Y0276015D01*
X0689860Y0276028D01*
X0689735Y0276045D01*
X0689611Y0276066D01*
X0689487Y0276090D01*
X0689364Y0276119D01*
X0689242Y0276152D01*
X0689121Y0276188D01*
X0689001Y0276228D01*
X0688883Y0276272D01*
X0688766Y0276320D01*
X0688650Y0276371D01*
X0688537Y0276426D01*
X0688425Y0276484D01*
X0688315Y0276546D01*
X0688207Y0276612D01*
X0688101Y0276681D01*
X0687997Y0276753D01*
X0687896Y0276828D01*
X0687797Y0276907D01*
X0687701Y0276988D01*
X0687607Y0277073D01*
X0687516Y0277160D01*
X0687428Y0277251D01*
X0687342Y0277344D01*
X0687260Y0277440D01*
X0687181Y0277538D01*
X0687104Y0277639D01*
X0687031Y0277742D01*
X0686962Y0277847D01*
X0686896Y0277955D01*
X0686833Y0278064D01*
X0686773Y0278176D01*
X0686717Y0278289D01*
X0686665Y0278404D01*
X0686617Y0278520D01*
X0686572Y0278639D01*
X0686531Y0278758D01*
X0686493Y0278879D01*
X0686460Y0279000D01*
X0686430Y0279123D01*
X0686405Y0279247D01*
X0686383Y0279371D01*
X0686365Y0279496D01*
X0686351Y0279622D01*
X0686341Y0279748D01*
X0686335Y0279874D01*
X0686333Y0280000D01*
X0704333Y0280000D02*
X0704335Y0280126D01*
X0704341Y0280252D01*
X0704351Y0280378D01*
X0704365Y0280504D01*
X0704383Y0280629D01*
X0704405Y0280753D01*
X0704430Y0280877D01*
X0704460Y0281000D01*
X0704493Y0281121D01*
X0704531Y0281242D01*
X0704572Y0281361D01*
X0704617Y0281480D01*
X0704665Y0281596D01*
X0704717Y0281711D01*
X0704773Y0281824D01*
X0704833Y0281936D01*
X0704896Y0282045D01*
X0704962Y0282153D01*
X0705031Y0282258D01*
X0705104Y0282361D01*
X0705181Y0282462D01*
X0705260Y0282560D01*
X0705342Y0282656D01*
X0705428Y0282749D01*
X0705516Y0282840D01*
X0705607Y0282927D01*
X0705701Y0283012D01*
X0705797Y0283093D01*
X0705896Y0283172D01*
X0705997Y0283247D01*
X0706101Y0283319D01*
X0706207Y0283388D01*
X0706315Y0283454D01*
X0706425Y0283516D01*
X0706537Y0283574D01*
X0706650Y0283629D01*
X0706766Y0283680D01*
X0706883Y0283728D01*
X0707001Y0283772D01*
X0707121Y0283812D01*
X0707242Y0283848D01*
X0707364Y0283881D01*
X0707487Y0283910D01*
X0707611Y0283934D01*
X0707735Y0283955D01*
X0707860Y0283972D01*
X0707986Y0283985D01*
X0708112Y0283994D01*
X0708238Y0283999D01*
X0708365Y0284000D01*
X0708491Y0283997D01*
X0708617Y0283990D01*
X0708743Y0283979D01*
X0708868Y0283964D01*
X0708993Y0283945D01*
X0709117Y0283922D01*
X0709241Y0283896D01*
X0709363Y0283865D01*
X0709485Y0283831D01*
X0709605Y0283792D01*
X0709724Y0283750D01*
X0709842Y0283705D01*
X0709958Y0283655D01*
X0710073Y0283602D01*
X0710185Y0283545D01*
X0710296Y0283485D01*
X0710405Y0283421D01*
X0710512Y0283354D01*
X0710617Y0283284D01*
X0710720Y0283210D01*
X0710820Y0283133D01*
X0710918Y0283053D01*
X0711013Y0282970D01*
X0711105Y0282884D01*
X0711195Y0282795D01*
X0711282Y0282703D01*
X0711365Y0282609D01*
X0711446Y0282512D01*
X0711524Y0282412D01*
X0711599Y0282310D01*
X0711670Y0282206D01*
X0711738Y0282099D01*
X0711802Y0281991D01*
X0711863Y0281880D01*
X0711921Y0281768D01*
X0711975Y0281654D01*
X0712025Y0281538D01*
X0712072Y0281421D01*
X0712115Y0281302D01*
X0712154Y0281182D01*
X0712190Y0281061D01*
X0712221Y0280938D01*
X0712249Y0280815D01*
X0712273Y0280691D01*
X0712293Y0280566D01*
X0712309Y0280441D01*
X0712321Y0280315D01*
X0712329Y0280189D01*
X0712333Y0280063D01*
X0712333Y0279937D01*
X0712329Y0279811D01*
X0712321Y0279685D01*
X0712309Y0279559D01*
X0712293Y0279434D01*
X0712273Y0279309D01*
X0712249Y0279185D01*
X0712221Y0279062D01*
X0712190Y0278939D01*
X0712154Y0278818D01*
X0712115Y0278698D01*
X0712072Y0278579D01*
X0712025Y0278462D01*
X0711975Y0278346D01*
X0711921Y0278232D01*
X0711863Y0278120D01*
X0711802Y0278009D01*
X0711738Y0277901D01*
X0711670Y0277794D01*
X0711599Y0277690D01*
X0711524Y0277588D01*
X0711446Y0277488D01*
X0711365Y0277391D01*
X0711282Y0277297D01*
X0711195Y0277205D01*
X0711105Y0277116D01*
X0711013Y0277030D01*
X0710918Y0276947D01*
X0710820Y0276867D01*
X0710720Y0276790D01*
X0710617Y0276716D01*
X0710512Y0276646D01*
X0710405Y0276579D01*
X0710296Y0276515D01*
X0710185Y0276455D01*
X0710073Y0276398D01*
X0709958Y0276345D01*
X0709842Y0276295D01*
X0709724Y0276250D01*
X0709605Y0276208D01*
X0709485Y0276169D01*
X0709363Y0276135D01*
X0709241Y0276104D01*
X0709117Y0276078D01*
X0708993Y0276055D01*
X0708868Y0276036D01*
X0708743Y0276021D01*
X0708617Y0276010D01*
X0708491Y0276003D01*
X0708365Y0276000D01*
X0708238Y0276001D01*
X0708112Y0276006D01*
X0707986Y0276015D01*
X0707860Y0276028D01*
X0707735Y0276045D01*
X0707611Y0276066D01*
X0707487Y0276090D01*
X0707364Y0276119D01*
X0707242Y0276152D01*
X0707121Y0276188D01*
X0707001Y0276228D01*
X0706883Y0276272D01*
X0706766Y0276320D01*
X0706650Y0276371D01*
X0706537Y0276426D01*
X0706425Y0276484D01*
X0706315Y0276546D01*
X0706207Y0276612D01*
X0706101Y0276681D01*
X0705997Y0276753D01*
X0705896Y0276828D01*
X0705797Y0276907D01*
X0705701Y0276988D01*
X0705607Y0277073D01*
X0705516Y0277160D01*
X0705428Y0277251D01*
X0705342Y0277344D01*
X0705260Y0277440D01*
X0705181Y0277538D01*
X0705104Y0277639D01*
X0705031Y0277742D01*
X0704962Y0277847D01*
X0704896Y0277955D01*
X0704833Y0278064D01*
X0704773Y0278176D01*
X0704717Y0278289D01*
X0704665Y0278404D01*
X0704617Y0278520D01*
X0704572Y0278639D01*
X0704531Y0278758D01*
X0704493Y0278879D01*
X0704460Y0279000D01*
X0704430Y0279123D01*
X0704405Y0279247D01*
X0704383Y0279371D01*
X0704365Y0279496D01*
X0704351Y0279622D01*
X0704341Y0279748D01*
X0704335Y0279874D01*
X0704333Y0280000D01*
D13*
X0641050Y0206496D02*
X0605617Y0206496D01*
X0605617Y0193504D01*
X0641050Y0193504D01*
X0641050Y0206496D01*
X0491050Y0121496D02*
X0455617Y0121496D01*
X0455617Y0108504D01*
X0491050Y0108504D01*
X0491050Y0121496D01*
D14*
X0490583Y0125250D02*
X0490583Y0127952D01*
X0489232Y0127952D01*
X0488782Y0127502D01*
X0488782Y0126601D01*
X0489232Y0126151D01*
X0490583Y0126151D01*
X0489683Y0126151D02*
X0488782Y0125250D01*
X0487637Y0125250D02*
X0487637Y0125700D01*
X0485835Y0127502D01*
X0485835Y0127952D01*
X0487637Y0127952D01*
X0635835Y0210250D02*
X0637637Y0210250D01*
X0635835Y0212052D01*
X0635835Y0212502D01*
X0636286Y0212952D01*
X0637186Y0212952D01*
X0637637Y0212502D01*
X0638782Y0212502D02*
X0638782Y0211601D01*
X0639232Y0211151D01*
X0640583Y0211151D01*
X0639683Y0211151D02*
X0638782Y0210250D01*
X0640583Y0210250D02*
X0640583Y0212952D01*
X0639232Y0212952D01*
X0638782Y0212502D01*
M02*
