G75*
%MOIN*%
%OFA0B0*%
%FSLAX25Y25*%
%IPPOS*%
%LPD*%
%AMOC8*
5,1,8,0,0,1.08239X$1,22.5*
%
%ADD10C,0.07300*%
%ADD11C,0.08800*%
%ADD12C,0.08200*%
%ADD13R,0.08200X0.08200*%
%ADD14C,0.07200*%
%ADD15C,0.13800*%
%ADD16C,0.05200*%
%ADD17R,0.05162X0.05162*%
D10*
X0418333Y0170000D03*
X0418333Y0180000D03*
X0423333Y0215000D03*
X0433333Y0215000D03*
X0448333Y0250000D03*
X0448333Y0260000D03*
X0513333Y0225000D03*
X0523333Y0225000D03*
X0568333Y0220000D03*
X0568333Y0230000D03*
X0488333Y0310000D03*
X0488333Y0320000D03*
D11*
X0690333Y0280000D03*
X0708333Y0280000D03*
D12*
X0388333Y0125000D03*
X0388333Y0135000D03*
X0388333Y0145000D03*
X0388333Y0155000D03*
X0388333Y0165000D03*
X0388333Y0175000D03*
X0368333Y0185000D03*
X0368333Y0195000D03*
X0368333Y0205000D03*
X0368333Y0215000D03*
X0368333Y0225000D03*
X0368333Y0235000D03*
X0528333Y0320000D03*
X0538333Y0320000D03*
X0548333Y0320000D03*
X0558333Y0320000D03*
X0568333Y0320000D03*
X0578333Y0320000D03*
X0598333Y0320000D03*
X0608333Y0320000D03*
X0618333Y0320000D03*
X0628333Y0320000D03*
X0638333Y0320000D03*
X0648333Y0320000D03*
X0643333Y0245000D03*
X0643333Y0195000D03*
X0628333Y0170000D03*
X0608333Y0150000D03*
X0613333Y0130000D03*
X0623333Y0130000D03*
X0633333Y0130000D03*
X0643333Y0130000D03*
X0653333Y0130000D03*
X0663333Y0130000D03*
X0673333Y0130000D03*
X0683333Y0130000D03*
X0598333Y0130000D03*
X0588333Y0130000D03*
X0578333Y0130000D03*
X0568333Y0130000D03*
X0558333Y0130000D03*
X0548333Y0130000D03*
X0538333Y0130000D03*
X0528333Y0130000D03*
X0558333Y0150000D03*
X0578333Y0170000D03*
X0538333Y0105000D03*
X0488333Y0105000D03*
X0498333Y0060000D03*
X0448333Y0060000D03*
X0548333Y0060000D03*
X0598333Y0060000D03*
X0707833Y0065000D03*
X0708833Y0075000D03*
X0707833Y0085000D03*
D13*
X0708833Y0095000D03*
D14*
X0366533Y0295000D02*
X0360133Y0295000D01*
X0360133Y0305000D02*
X0366533Y0305000D01*
X0366533Y0315000D02*
X0360133Y0315000D01*
D15*
X0304333Y0305000D03*
D16*
X0380833Y0302500D03*
X0492708Y0295000D03*
X0538958Y0269375D03*
X0465833Y0241875D03*
X0522708Y0210625D03*
X0452708Y0140625D03*
D17*
X0438333Y0105000D03*
M02*
