G75*
%MOIN*%
%OFA0B0*%
%FSLAX25Y25*%
%IPPOS*%
%LPD*%
%AMOC8*
5,1,8,0,0,1.08239X$1,22.5*
%
%ADD10C,0.06500*%
%ADD11C,0.07400*%
%ADD12R,0.07400X0.07400*%
%ADD13C,0.06000*%
%ADD14OC8,0.04800*%
%ADD15C,0.00800*%
%ADD16C,0.03400*%
%ADD17C,0.01600*%
D10*
X0443333Y0195000D03*
X0453333Y0195000D03*
X0448333Y0230000D03*
X0448333Y0240000D03*
X0458333Y0280000D03*
X0458333Y0290000D03*
X0478333Y0295000D03*
X0478333Y0305000D03*
X0468333Y0315000D03*
X0458333Y0315000D03*
X0493333Y0315000D03*
X0503333Y0315000D03*
X0543333Y0245000D03*
X0553333Y0245000D03*
X0563333Y0245000D03*
X0573333Y0245000D03*
D11*
X0568333Y0260000D03*
X0558333Y0260000D03*
X0528333Y0260000D03*
X0513333Y0285000D03*
X0528333Y0290000D03*
X0558333Y0290000D03*
X0568333Y0290000D03*
X0583333Y0295000D03*
X0613333Y0295000D03*
X0608333Y0320000D03*
X0598333Y0320000D03*
X0618333Y0320000D03*
X0628333Y0320000D03*
X0638333Y0320000D03*
X0648333Y0320000D03*
X0578333Y0320000D03*
X0568333Y0320000D03*
X0558333Y0320000D03*
X0548333Y0320000D03*
X0538333Y0320000D03*
X0528333Y0320000D03*
X0483333Y0285000D03*
X0428333Y0265000D03*
X0428333Y0255000D03*
X0428333Y0245000D03*
X0428333Y0235000D03*
X0428333Y0225000D03*
X0428333Y0215000D03*
X0428333Y0205000D03*
X0428333Y0195000D03*
X0428333Y0185000D03*
X0428333Y0175000D03*
X0428333Y0165000D03*
X0428333Y0155000D03*
X0448333Y0115000D03*
X0498333Y0115000D03*
X0518333Y0110000D03*
X0528333Y0130000D03*
X0538333Y0130000D03*
X0548333Y0130000D03*
X0558333Y0130000D03*
X0568333Y0130000D03*
X0578333Y0130000D03*
X0588333Y0130000D03*
X0598333Y0130000D03*
X0613333Y0130000D03*
X0623333Y0130000D03*
X0633333Y0130000D03*
X0643333Y0130000D03*
X0653333Y0130000D03*
X0663333Y0130000D03*
X0673333Y0130000D03*
X0683333Y0130000D03*
X0648333Y0110000D03*
X0598333Y0110000D03*
X0568333Y0110000D03*
X0588333Y0160000D03*
X0578333Y0180000D03*
X0598333Y0200000D03*
X0593333Y0215000D03*
X0593333Y0225000D03*
X0563333Y0225000D03*
X0563333Y0215000D03*
X0628333Y0180000D03*
X0648333Y0200000D03*
X0687833Y0195000D03*
X0688833Y0185000D03*
X0687833Y0175000D03*
X0538333Y0160000D03*
D12*
X0688833Y0205000D03*
D13*
X0436333Y0295000D02*
X0430333Y0295000D01*
X0430333Y0305000D02*
X0436333Y0305000D01*
X0436333Y0315000D02*
X0430333Y0315000D01*
D14*
X0468333Y0250000D03*
X0475833Y0245000D03*
X0468333Y0240000D03*
X0523333Y0215000D03*
X0528333Y0207500D03*
X0533333Y0215000D03*
X0558333Y0200000D03*
X0565833Y0195000D03*
X0558333Y0190000D03*
X0515833Y0175000D03*
X0508333Y0170000D03*
X0508333Y0180000D03*
X0485833Y0175000D03*
X0478333Y0170000D03*
X0478333Y0180000D03*
X0448333Y0150000D03*
X0455833Y0145000D03*
X0448333Y0140000D03*
D15*
X0455833Y0145000D02*
X0498958Y0101875D01*
X0585208Y0101875D01*
X0592708Y0109375D01*
X0597708Y0109375D01*
X0598333Y0110000D01*
X0577708Y0119375D02*
X0577708Y0130000D01*
X0578333Y0130000D01*
X0577708Y0119375D02*
X0568333Y0110000D01*
X0552083Y0121875D02*
X0558333Y0128125D01*
X0558333Y0130000D01*
X0552083Y0121875D02*
X0505208Y0121875D01*
X0498333Y0115000D01*
X0528333Y0130000D02*
X0572083Y0173750D01*
X0610208Y0173750D01*
X0624583Y0188125D01*
X0680208Y0188125D01*
X0682708Y0185625D01*
X0687708Y0185625D01*
X0688333Y0185000D01*
X0688833Y0185000D01*
X0687833Y0175000D02*
X0687708Y0175000D01*
X0687083Y0174375D01*
X0682083Y0174375D01*
X0679583Y0171875D01*
X0580208Y0171875D01*
X0538333Y0130000D01*
X0588333Y0160000D02*
X0610208Y0138125D01*
X0637083Y0138125D01*
X0643333Y0131875D01*
X0643333Y0130000D01*
X0578333Y0180000D02*
X0577708Y0180625D01*
X0521458Y0180625D01*
X0515833Y0175000D01*
X0508333Y0180000D02*
X0517708Y0189375D01*
X0485208Y0221875D01*
X0455208Y0221875D01*
X0447708Y0229375D01*
X0448333Y0230000D01*
X0447708Y0229375D02*
X0442708Y0224375D01*
X0428958Y0224375D01*
X0428333Y0225000D01*
X0428333Y0235000D02*
X0430833Y0235000D01*
X0432083Y0236250D01*
X0444583Y0236250D01*
X0448333Y0240000D01*
X0444583Y0248750D02*
X0432083Y0248750D01*
X0428333Y0245000D01*
X0436458Y0261875D02*
X0436458Y0267500D01*
X0435833Y0267500D01*
X0458333Y0290000D01*
X0444583Y0298125D02*
X0472708Y0298125D01*
X0475833Y0295000D01*
X0478333Y0295000D01*
X0480833Y0295000D01*
X0484583Y0298750D01*
X0579583Y0298750D01*
X0583333Y0295000D01*
X0558333Y0290000D02*
X0557708Y0290625D01*
X0528958Y0290625D01*
X0528333Y0290000D01*
X0550208Y0268125D02*
X0488333Y0268125D01*
X0470208Y0250000D01*
X0468333Y0250000D01*
X0465833Y0232500D02*
X0436458Y0261875D01*
X0433958Y0265625D02*
X0428958Y0265625D01*
X0428333Y0265000D01*
X0433958Y0265625D02*
X0435833Y0267500D01*
X0433333Y0295000D02*
X0435208Y0296875D01*
X0443333Y0296875D01*
X0444583Y0298125D01*
X0458333Y0315000D02*
X0458333Y0317500D01*
X0459583Y0317500D01*
X0465208Y0323125D01*
X0496458Y0323125D01*
X0503333Y0316250D01*
X0503333Y0315000D01*
X0550208Y0268125D02*
X0558333Y0260000D01*
X0560833Y0255000D02*
X0552083Y0255000D01*
X0544583Y0247500D01*
X0543333Y0247500D01*
X0543333Y0245000D01*
X0542083Y0243750D01*
X0505208Y0243750D01*
X0513958Y0247500D02*
X0515833Y0247500D01*
X0528333Y0260000D01*
X0553333Y0245000D02*
X0553333Y0242500D01*
X0554583Y0242500D01*
X0560208Y0236875D01*
X0566458Y0236875D01*
X0573333Y0243750D01*
X0573333Y0245000D01*
X0560833Y0255000D02*
X0565833Y0260000D01*
X0568333Y0260000D01*
X0533958Y0215625D02*
X0517083Y0232500D01*
X0465833Y0232500D01*
X0479583Y0218125D02*
X0465833Y0204375D01*
X0427708Y0204375D01*
X0428333Y0205000D01*
X0427708Y0204375D02*
X0426458Y0203125D01*
X0420833Y0203125D01*
X0420833Y0165000D01*
X0425833Y0160000D01*
X0438333Y0160000D01*
X0448333Y0150000D01*
X0463958Y0165625D02*
X0428958Y0165625D01*
X0428333Y0165000D01*
X0463958Y0165625D02*
X0478333Y0180000D01*
X0479583Y0180000D01*
X0479583Y0213125D01*
X0453333Y0195000D02*
X0453333Y0193750D01*
X0446458Y0186875D01*
X0430208Y0186875D01*
X0428333Y0185000D01*
X0517708Y0189375D02*
X0528333Y0200000D01*
X0543333Y0200000D01*
X0557708Y0214375D01*
X0562708Y0214375D01*
X0563333Y0215000D01*
X0562708Y0224375D02*
X0542708Y0224375D01*
X0533958Y0215625D01*
X0533333Y0215000D01*
X0562708Y0224375D02*
X0563333Y0225000D01*
X0571458Y0200625D02*
X0597708Y0200625D01*
X0598333Y0200000D01*
X0571458Y0200625D02*
X0565833Y0195000D01*
X0628958Y0264375D02*
X0688333Y0205000D01*
X0688833Y0205000D01*
X0628958Y0264375D02*
X0628958Y0320000D01*
X0628333Y0320000D01*
D16*
X0513958Y0247500D03*
X0505208Y0243750D03*
X0479583Y0218125D03*
X0479583Y0213125D03*
X0444583Y0248750D03*
D17*
X0411433Y0335000D02*
X0411433Y0088100D01*
X0715233Y0088100D01*
X0715233Y0331998D01*
X0622184Y0335000D01*
X0411433Y0335000D01*
X0411433Y0333922D02*
X0655613Y0333922D01*
X0651562Y0324832D02*
X0649467Y0325700D01*
X0647200Y0325700D01*
X0645105Y0324832D01*
X0643501Y0323229D01*
X0643333Y0322824D01*
X0643166Y0323229D01*
X0641562Y0324832D01*
X0639467Y0325700D01*
X0637200Y0325700D01*
X0635105Y0324832D01*
X0633501Y0323229D01*
X0633333Y0322824D01*
X0633166Y0323229D01*
X0631562Y0324832D01*
X0629467Y0325700D01*
X0627200Y0325700D01*
X0625105Y0324832D01*
X0623501Y0323229D01*
X0623333Y0322824D01*
X0623166Y0323229D01*
X0621562Y0324832D01*
X0619467Y0325700D01*
X0617200Y0325700D01*
X0615105Y0324832D01*
X0613501Y0323229D01*
X0613214Y0322536D01*
X0613037Y0322883D01*
X0612528Y0323583D01*
X0611916Y0324195D01*
X0611216Y0324704D01*
X0610445Y0325097D01*
X0609621Y0325365D01*
X0608766Y0325500D01*
X0608533Y0325500D01*
X0608533Y0320200D01*
X0608133Y0320200D01*
X0608133Y0325500D01*
X0607900Y0325500D01*
X0607045Y0325365D01*
X0606222Y0325097D01*
X0605451Y0324704D01*
X0604750Y0324195D01*
X0604138Y0323583D01*
X0603629Y0322883D01*
X0603453Y0322536D01*
X0603166Y0323229D01*
X0601562Y0324832D01*
X0599467Y0325700D01*
X0597200Y0325700D01*
X0595105Y0324832D01*
X0593501Y0323229D01*
X0592633Y0321134D01*
X0592633Y0318866D01*
X0593501Y0316771D01*
X0595105Y0315168D01*
X0597200Y0314300D01*
X0599467Y0314300D01*
X0601562Y0315168D01*
X0603166Y0316771D01*
X0603453Y0317464D01*
X0603629Y0317117D01*
X0604138Y0316417D01*
X0604750Y0315805D01*
X0605451Y0315296D01*
X0606222Y0314903D01*
X0607045Y0314635D01*
X0607900Y0314500D01*
X0608133Y0314500D01*
X0608133Y0319800D01*
X0608533Y0319800D01*
X0608533Y0314500D01*
X0608766Y0314500D01*
X0609621Y0314635D01*
X0610445Y0314903D01*
X0611216Y0315296D01*
X0611916Y0315805D01*
X0612528Y0316417D01*
X0613037Y0317117D01*
X0613214Y0317464D01*
X0613501Y0316771D01*
X0615105Y0315168D01*
X0617200Y0314300D01*
X0619467Y0314300D01*
X0621562Y0315168D01*
X0623166Y0316771D01*
X0623333Y0317176D01*
X0623501Y0316771D01*
X0625105Y0315168D01*
X0626558Y0314566D01*
X0626558Y0263898D01*
X0626924Y0263016D01*
X0627599Y0262340D01*
X0683133Y0206806D01*
X0683133Y0200472D01*
X0684189Y0199416D01*
X0683001Y0198229D01*
X0682133Y0196134D01*
X0682133Y0193866D01*
X0683001Y0191771D01*
X0684605Y0190168D01*
X0685549Y0189777D01*
X0684001Y0188229D01*
X0683917Y0188025D01*
X0683702Y0188025D01*
X0681568Y0190160D01*
X0680686Y0190525D01*
X0624106Y0190525D01*
X0623224Y0190160D01*
X0622549Y0189484D01*
X0609214Y0176150D01*
X0582544Y0176150D01*
X0583166Y0176771D01*
X0584033Y0178866D01*
X0611930Y0178866D01*
X0610332Y0177268D02*
X0583371Y0177268D01*
X0584033Y0178866D02*
X0584033Y0181134D01*
X0583166Y0183229D01*
X0581562Y0184832D01*
X0579467Y0185700D01*
X0577200Y0185700D01*
X0575105Y0184832D01*
X0573501Y0183229D01*
X0573417Y0183025D01*
X0520981Y0183025D01*
X0520099Y0182660D01*
X0519424Y0181984D01*
X0516839Y0179400D01*
X0514011Y0179400D01*
X0511433Y0176823D01*
X0511433Y0173177D01*
X0514011Y0170600D01*
X0517656Y0170600D01*
X0520233Y0173177D01*
X0520233Y0176006D01*
X0522452Y0178225D01*
X0572899Y0178225D01*
X0573501Y0176771D01*
X0574122Y0176150D01*
X0571606Y0176150D01*
X0570724Y0175785D01*
X0570049Y0175109D01*
X0530296Y0135357D01*
X0529467Y0135700D01*
X0527200Y0135700D01*
X0525105Y0134832D01*
X0523501Y0133229D01*
X0522633Y0131134D01*
X0522633Y0128866D01*
X0523501Y0126771D01*
X0525105Y0125168D01*
X0527200Y0124300D01*
X0529467Y0124300D01*
X0531562Y0125168D01*
X0533166Y0126771D01*
X0533333Y0127176D01*
X0533501Y0126771D01*
X0535105Y0125168D01*
X0537200Y0124300D01*
X0539467Y0124300D01*
X0541562Y0125168D01*
X0543166Y0126771D01*
X0543333Y0127176D01*
X0543501Y0126771D01*
X0545105Y0125168D01*
X0547200Y0124300D01*
X0549467Y0124300D01*
X0551562Y0125168D01*
X0553166Y0126771D01*
X0553333Y0127176D01*
X0553501Y0126771D01*
X0553543Y0126729D01*
X0551089Y0124275D01*
X0504731Y0124275D01*
X0503849Y0123910D01*
X0503174Y0123234D01*
X0500296Y0120357D01*
X0499467Y0120700D01*
X0497200Y0120700D01*
X0495105Y0119832D01*
X0493501Y0118229D01*
X0492633Y0116134D01*
X0492633Y0113866D01*
X0493501Y0111771D01*
X0495105Y0110168D01*
X0497200Y0109300D01*
X0499467Y0109300D01*
X0501562Y0110168D01*
X0503166Y0111771D01*
X0504033Y0113866D01*
X0504033Y0116134D01*
X0503690Y0116963D01*
X0506202Y0119475D01*
X0552561Y0119475D01*
X0553443Y0119840D01*
X0557902Y0124300D01*
X0559467Y0124300D01*
X0561562Y0125168D01*
X0563166Y0126771D01*
X0563333Y0127176D01*
X0563501Y0126771D01*
X0565105Y0125168D01*
X0567200Y0124300D01*
X0569467Y0124300D01*
X0571562Y0125168D01*
X0573166Y0126771D01*
X0573333Y0127176D01*
X0573501Y0126771D01*
X0575105Y0125168D01*
X0575308Y0125083D01*
X0575308Y0120369D01*
X0570296Y0115357D01*
X0569467Y0115700D01*
X0567200Y0115700D01*
X0565105Y0114832D01*
X0563501Y0113229D01*
X0562633Y0111134D01*
X0562633Y0108866D01*
X0563501Y0106771D01*
X0565105Y0105168D01*
X0567200Y0104300D01*
X0569467Y0104300D01*
X0571562Y0105168D01*
X0573166Y0106771D01*
X0574033Y0108866D01*
X0574033Y0111134D01*
X0573690Y0111963D01*
X0579068Y0117340D01*
X0579743Y0118016D01*
X0580108Y0118898D01*
X0580108Y0124566D01*
X0581562Y0125168D01*
X0583166Y0126771D01*
X0583333Y0127176D01*
X0583501Y0126771D01*
X0585105Y0125168D01*
X0587200Y0124300D01*
X0589467Y0124300D01*
X0591562Y0125168D01*
X0593166Y0126771D01*
X0593333Y0127176D01*
X0593501Y0126771D01*
X0595105Y0125168D01*
X0597200Y0124300D01*
X0599467Y0124300D01*
X0601562Y0125168D01*
X0603166Y0126771D01*
X0604033Y0128866D01*
X0604033Y0131134D01*
X0603166Y0133229D01*
X0601562Y0134832D01*
X0599467Y0135700D01*
X0597200Y0135700D01*
X0595105Y0134832D01*
X0593501Y0133229D01*
X0593333Y0132824D01*
X0593166Y0133229D01*
X0591562Y0134832D01*
X0589467Y0135700D01*
X0587200Y0135700D01*
X0585105Y0134832D01*
X0583501Y0133229D01*
X0583333Y0132824D01*
X0583166Y0133229D01*
X0581562Y0134832D01*
X0579467Y0135700D01*
X0577200Y0135700D01*
X0575105Y0134832D01*
X0573501Y0133229D01*
X0573333Y0132824D01*
X0573166Y0133229D01*
X0571562Y0134832D01*
X0569467Y0135700D01*
X0567200Y0135700D01*
X0565105Y0134832D01*
X0563501Y0133229D01*
X0563333Y0132824D01*
X0563166Y0133229D01*
X0561562Y0134832D01*
X0559467Y0135700D01*
X0557200Y0135700D01*
X0555105Y0134832D01*
X0553501Y0133229D01*
X0553333Y0132824D01*
X0553166Y0133229D01*
X0551562Y0134832D01*
X0549467Y0135700D01*
X0547427Y0135700D01*
X0581202Y0169475D01*
X0680061Y0169475D01*
X0680943Y0169840D01*
X0682964Y0171861D01*
X0683001Y0171771D01*
X0684605Y0170168D01*
X0686700Y0169300D01*
X0688967Y0169300D01*
X0691062Y0170168D01*
X0692666Y0171771D01*
X0693533Y0173866D01*
X0693533Y0176134D01*
X0692666Y0178229D01*
X0691118Y0179777D01*
X0692062Y0180168D01*
X0693666Y0181771D01*
X0694533Y0183866D01*
X0694533Y0186134D01*
X0693666Y0188229D01*
X0692062Y0189832D01*
X0691118Y0190223D01*
X0692666Y0191771D01*
X0693533Y0193866D01*
X0693533Y0196134D01*
X0692666Y0198229D01*
X0691594Y0199300D01*
X0693362Y0199300D01*
X0694533Y0200472D01*
X0694533Y0209528D01*
X0693362Y0210700D01*
X0686027Y0210700D01*
X0631358Y0265369D01*
X0631358Y0315083D01*
X0631562Y0315168D01*
X0633166Y0316771D01*
X0633333Y0317176D01*
X0633501Y0316771D01*
X0635105Y0315168D01*
X0637200Y0314300D01*
X0639467Y0314300D01*
X0641562Y0315168D01*
X0643166Y0316771D01*
X0643333Y0317176D01*
X0643501Y0316771D01*
X0645105Y0315168D01*
X0647200Y0314300D01*
X0649467Y0314300D01*
X0651562Y0315168D01*
X0653166Y0316771D01*
X0654033Y0318866D01*
X0654033Y0321134D01*
X0653166Y0323229D01*
X0651562Y0324832D01*
X0652064Y0324331D02*
X0715233Y0324331D01*
X0715233Y0325929D02*
X0411433Y0325929D01*
X0411433Y0324331D02*
X0463020Y0324331D01*
X0463174Y0324484D02*
X0458939Y0320250D01*
X0457289Y0320250D01*
X0455359Y0319451D01*
X0453883Y0317974D01*
X0453083Y0316044D01*
X0453083Y0313956D01*
X0453883Y0312026D01*
X0455359Y0310549D01*
X0457289Y0309750D01*
X0459378Y0309750D01*
X0461307Y0310549D01*
X0462784Y0312026D01*
X0463460Y0313657D01*
X0463653Y0313061D01*
X0464014Y0312353D01*
X0464481Y0311710D01*
X0465043Y0311148D01*
X0465687Y0310681D01*
X0466395Y0310320D01*
X0467151Y0310074D01*
X0467936Y0309950D01*
X0468333Y0309950D01*
X0468333Y0315000D01*
X0468333Y0320050D01*
X0467936Y0320050D01*
X0467151Y0319926D01*
X0466395Y0319680D01*
X0465687Y0319319D01*
X0465043Y0318852D01*
X0464481Y0318290D01*
X0464014Y0317647D01*
X0463653Y0316939D01*
X0463460Y0316343D01*
X0462979Y0317502D01*
X0466202Y0320725D01*
X0495464Y0320725D01*
X0498687Y0317502D01*
X0498333Y0316648D01*
X0497784Y0317974D01*
X0496307Y0319451D01*
X0494378Y0320250D01*
X0492289Y0320250D01*
X0490359Y0319451D01*
X0488883Y0317974D01*
X0488083Y0316044D01*
X0488083Y0313956D01*
X0488883Y0312026D01*
X0490359Y0310549D01*
X0492289Y0309750D01*
X0494378Y0309750D01*
X0496307Y0310549D01*
X0497784Y0312026D01*
X0498333Y0313352D01*
X0498883Y0312026D01*
X0500359Y0310549D01*
X0502289Y0309750D01*
X0504378Y0309750D01*
X0506307Y0310549D01*
X0507784Y0312026D01*
X0508583Y0313956D01*
X0508583Y0316044D01*
X0507784Y0317974D01*
X0506307Y0319451D01*
X0504378Y0320250D01*
X0502727Y0320250D01*
X0497818Y0325160D01*
X0496936Y0325525D01*
X0464731Y0325525D01*
X0463849Y0325160D01*
X0463174Y0324484D01*
X0461421Y0322732D02*
X0411433Y0322732D01*
X0411433Y0321134D02*
X0459823Y0321134D01*
X0455563Y0319535D02*
X0438450Y0319535D01*
X0439166Y0319239D02*
X0437328Y0320000D01*
X0429339Y0320000D01*
X0427501Y0319239D01*
X0426095Y0317832D01*
X0425333Y0315995D01*
X0425333Y0314005D01*
X0426095Y0312168D01*
X0427501Y0310761D01*
X0429339Y0310000D01*
X0437328Y0310000D01*
X0439166Y0310761D01*
X0440572Y0312168D01*
X0441333Y0314005D01*
X0441333Y0315995D01*
X0440572Y0317832D01*
X0439166Y0319239D01*
X0440468Y0317937D02*
X0453867Y0317937D01*
X0453205Y0316338D02*
X0441191Y0316338D01*
X0441333Y0314739D02*
X0453083Y0314739D01*
X0453421Y0313141D02*
X0440975Y0313141D01*
X0439947Y0311542D02*
X0454366Y0311542D01*
X0456821Y0309944D02*
X0411433Y0309944D01*
X0411433Y0311542D02*
X0426720Y0311542D01*
X0425691Y0313141D02*
X0411433Y0313141D01*
X0411433Y0314739D02*
X0425333Y0314739D01*
X0425476Y0316338D02*
X0411433Y0316338D01*
X0411433Y0317937D02*
X0426199Y0317937D01*
X0428216Y0319535D02*
X0411433Y0319535D01*
X0411433Y0327528D02*
X0715233Y0327528D01*
X0715233Y0329126D02*
X0411433Y0329126D01*
X0411433Y0330725D02*
X0715233Y0330725D01*
X0715233Y0322732D02*
X0653371Y0322732D01*
X0654033Y0321134D02*
X0715233Y0321134D01*
X0715233Y0319535D02*
X0654033Y0319535D01*
X0653648Y0317937D02*
X0715233Y0317937D01*
X0715233Y0316338D02*
X0652732Y0316338D01*
X0650528Y0314739D02*
X0715233Y0314739D01*
X0715233Y0313141D02*
X0631358Y0313141D01*
X0631358Y0314739D02*
X0636139Y0314739D01*
X0633934Y0316338D02*
X0632732Y0316338D01*
X0626139Y0314739D02*
X0620528Y0314739D01*
X0622732Y0316338D02*
X0623934Y0316338D01*
X0626558Y0313141D02*
X0508246Y0313141D01*
X0508583Y0314739D02*
X0526139Y0314739D01*
X0525105Y0315168D02*
X0527200Y0314300D01*
X0529467Y0314300D01*
X0531562Y0315168D01*
X0533166Y0316771D01*
X0533333Y0317176D01*
X0533501Y0316771D01*
X0535105Y0315168D01*
X0537200Y0314300D01*
X0539467Y0314300D01*
X0541562Y0315168D01*
X0543166Y0316771D01*
X0543333Y0317176D01*
X0543501Y0316771D01*
X0545105Y0315168D01*
X0547200Y0314300D01*
X0549467Y0314300D01*
X0551562Y0315168D01*
X0553166Y0316771D01*
X0553333Y0317176D01*
X0553501Y0316771D01*
X0555105Y0315168D01*
X0557200Y0314300D01*
X0559467Y0314300D01*
X0561562Y0315168D01*
X0563166Y0316771D01*
X0563333Y0317176D01*
X0563501Y0316771D01*
X0565105Y0315168D01*
X0567200Y0314300D01*
X0569467Y0314300D01*
X0571562Y0315168D01*
X0573166Y0316771D01*
X0573333Y0317176D01*
X0573501Y0316771D01*
X0575105Y0315168D01*
X0577200Y0314300D01*
X0579467Y0314300D01*
X0581562Y0315168D01*
X0583166Y0316771D01*
X0584033Y0318866D01*
X0584033Y0321134D01*
X0583166Y0323229D01*
X0581562Y0324832D01*
X0579467Y0325700D01*
X0577200Y0325700D01*
X0575105Y0324832D01*
X0573501Y0323229D01*
X0573333Y0322824D01*
X0573166Y0323229D01*
X0571562Y0324832D01*
X0569467Y0325700D01*
X0567200Y0325700D01*
X0565105Y0324832D01*
X0563501Y0323229D01*
X0563333Y0322824D01*
X0563166Y0323229D01*
X0561562Y0324832D01*
X0559467Y0325700D01*
X0557200Y0325700D01*
X0555105Y0324832D01*
X0553501Y0323229D01*
X0553333Y0322824D01*
X0553166Y0323229D01*
X0551562Y0324832D01*
X0549467Y0325700D01*
X0547200Y0325700D01*
X0545105Y0324832D01*
X0543501Y0323229D01*
X0543333Y0322824D01*
X0543166Y0323229D01*
X0541562Y0324832D01*
X0539467Y0325700D01*
X0537200Y0325700D01*
X0535105Y0324832D01*
X0533501Y0323229D01*
X0533333Y0322824D01*
X0533166Y0323229D01*
X0531562Y0324832D01*
X0529467Y0325700D01*
X0527200Y0325700D01*
X0525105Y0324832D01*
X0523501Y0323229D01*
X0522633Y0321134D01*
X0522633Y0318866D01*
X0523501Y0316771D01*
X0525105Y0315168D01*
X0523934Y0316338D02*
X0508462Y0316338D01*
X0507800Y0317937D02*
X0523018Y0317937D01*
X0522633Y0319535D02*
X0506104Y0319535D01*
X0501844Y0321134D02*
X0522633Y0321134D01*
X0523295Y0322732D02*
X0500245Y0322732D01*
X0498647Y0324331D02*
X0524603Y0324331D01*
X0532064Y0324331D02*
X0534603Y0324331D01*
X0542064Y0324331D02*
X0544603Y0324331D01*
X0552064Y0324331D02*
X0554603Y0324331D01*
X0562064Y0324331D02*
X0564603Y0324331D01*
X0572064Y0324331D02*
X0574603Y0324331D01*
X0582064Y0324331D02*
X0594603Y0324331D01*
X0593295Y0322732D02*
X0583371Y0322732D01*
X0584033Y0321134D02*
X0592633Y0321134D01*
X0592633Y0319535D02*
X0584033Y0319535D01*
X0583648Y0317937D02*
X0593018Y0317937D01*
X0593934Y0316338D02*
X0582732Y0316338D01*
X0580528Y0314739D02*
X0596139Y0314739D01*
X0600528Y0314739D02*
X0606725Y0314739D01*
X0608133Y0314739D02*
X0608533Y0314739D01*
X0609941Y0314739D02*
X0616139Y0314739D01*
X0613934Y0316338D02*
X0612449Y0316338D01*
X0608533Y0316338D02*
X0608133Y0316338D01*
X0608133Y0317937D02*
X0608533Y0317937D01*
X0608533Y0319535D02*
X0608133Y0319535D01*
X0608133Y0321134D02*
X0608533Y0321134D01*
X0608533Y0322732D02*
X0608133Y0322732D01*
X0608133Y0324331D02*
X0608533Y0324331D01*
X0611730Y0324331D02*
X0614603Y0324331D01*
X0613295Y0322732D02*
X0613114Y0322732D01*
X0622064Y0324331D02*
X0624603Y0324331D01*
X0632064Y0324331D02*
X0634603Y0324331D01*
X0642064Y0324331D02*
X0644603Y0324331D01*
X0643934Y0316338D02*
X0642732Y0316338D01*
X0640528Y0314739D02*
X0646139Y0314739D01*
X0631358Y0311542D02*
X0715233Y0311542D01*
X0715233Y0309944D02*
X0631358Y0309944D01*
X0631358Y0308345D02*
X0715233Y0308345D01*
X0715233Y0306747D02*
X0631358Y0306747D01*
X0631358Y0305148D02*
X0715233Y0305148D01*
X0715233Y0303550D02*
X0631358Y0303550D01*
X0631358Y0301951D02*
X0715233Y0301951D01*
X0715233Y0300353D02*
X0631358Y0300353D01*
X0631358Y0298754D02*
X0715233Y0298754D01*
X0715233Y0297156D02*
X0631358Y0297156D01*
X0631358Y0295557D02*
X0715233Y0295557D01*
X0715233Y0293959D02*
X0631358Y0293959D01*
X0631358Y0292360D02*
X0715233Y0292360D01*
X0715233Y0290762D02*
X0631358Y0290762D01*
X0631358Y0289163D02*
X0715233Y0289163D01*
X0715233Y0287565D02*
X0631358Y0287565D01*
X0631358Y0285966D02*
X0688275Y0285966D01*
X0689080Y0286300D02*
X0686765Y0285341D01*
X0684992Y0283569D01*
X0684033Y0281253D01*
X0684033Y0278747D01*
X0684992Y0276431D01*
X0686765Y0274659D01*
X0689080Y0273700D01*
X0691586Y0273700D01*
X0693902Y0274659D01*
X0695674Y0276431D01*
X0696633Y0278747D01*
X0696633Y0281253D01*
X0695674Y0283569D01*
X0693902Y0285341D01*
X0691586Y0286300D01*
X0689080Y0286300D01*
X0692392Y0285966D02*
X0706275Y0285966D01*
X0707080Y0286300D02*
X0704765Y0285341D01*
X0702992Y0283569D01*
X0702033Y0281253D01*
X0702033Y0278747D01*
X0702992Y0276431D01*
X0704765Y0274659D01*
X0707080Y0273700D01*
X0709586Y0273700D01*
X0711902Y0274659D01*
X0713674Y0276431D01*
X0714633Y0278747D01*
X0714633Y0281253D01*
X0713674Y0283569D01*
X0711902Y0285341D01*
X0709586Y0286300D01*
X0707080Y0286300D01*
X0710392Y0285966D02*
X0715233Y0285966D01*
X0715233Y0284368D02*
X0712875Y0284368D01*
X0714005Y0282769D02*
X0715233Y0282769D01*
X0715233Y0281171D02*
X0714633Y0281171D01*
X0714633Y0279572D02*
X0715233Y0279572D01*
X0715233Y0277974D02*
X0714313Y0277974D01*
X0713618Y0276375D02*
X0715233Y0276375D01*
X0715233Y0274777D02*
X0712020Y0274777D01*
X0715233Y0273178D02*
X0631358Y0273178D01*
X0631358Y0271580D02*
X0715233Y0271580D01*
X0715233Y0269981D02*
X0631358Y0269981D01*
X0631358Y0268383D02*
X0715233Y0268383D01*
X0715233Y0266784D02*
X0631358Y0266784D01*
X0631542Y0265186D02*
X0715233Y0265186D01*
X0715233Y0263587D02*
X0633140Y0263587D01*
X0634739Y0261989D02*
X0715233Y0261989D01*
X0715233Y0260390D02*
X0636337Y0260390D01*
X0637936Y0258792D02*
X0715233Y0258792D01*
X0715233Y0257193D02*
X0639534Y0257193D01*
X0641133Y0255595D02*
X0715233Y0255595D01*
X0715233Y0253996D02*
X0642731Y0253996D01*
X0644330Y0252398D02*
X0715233Y0252398D01*
X0715233Y0250799D02*
X0645928Y0250799D01*
X0647527Y0249201D02*
X0715233Y0249201D01*
X0715233Y0247602D02*
X0649125Y0247602D01*
X0650724Y0246003D02*
X0715233Y0246003D01*
X0715233Y0244405D02*
X0652322Y0244405D01*
X0653921Y0242806D02*
X0715233Y0242806D01*
X0715233Y0241208D02*
X0655519Y0241208D01*
X0657118Y0239609D02*
X0715233Y0239609D01*
X0715233Y0238011D02*
X0658716Y0238011D01*
X0660315Y0236412D02*
X0715233Y0236412D01*
X0715233Y0234814D02*
X0661914Y0234814D01*
X0663512Y0233215D02*
X0715233Y0233215D01*
X0715233Y0231617D02*
X0665111Y0231617D01*
X0666709Y0230018D02*
X0715233Y0230018D01*
X0715233Y0228420D02*
X0668308Y0228420D01*
X0669906Y0226821D02*
X0715233Y0226821D01*
X0715233Y0225223D02*
X0671505Y0225223D01*
X0673103Y0223624D02*
X0715233Y0223624D01*
X0715233Y0222026D02*
X0674702Y0222026D01*
X0676300Y0220427D02*
X0715233Y0220427D01*
X0715233Y0218829D02*
X0677899Y0218829D01*
X0679497Y0217230D02*
X0715233Y0217230D01*
X0715233Y0215632D02*
X0681096Y0215632D01*
X0682694Y0214033D02*
X0715233Y0214033D01*
X0715233Y0212435D02*
X0684293Y0212435D01*
X0685891Y0210836D02*
X0715233Y0210836D01*
X0715233Y0209238D02*
X0694533Y0209238D01*
X0694533Y0207639D02*
X0715233Y0207639D01*
X0715233Y0206041D02*
X0694533Y0206041D01*
X0694533Y0204442D02*
X0715233Y0204442D01*
X0715233Y0202844D02*
X0694533Y0202844D01*
X0694533Y0201245D02*
X0715233Y0201245D01*
X0715233Y0199647D02*
X0693708Y0199647D01*
X0692740Y0198048D02*
X0715233Y0198048D01*
X0715233Y0196450D02*
X0693402Y0196450D01*
X0693533Y0194851D02*
X0715233Y0194851D01*
X0715233Y0193253D02*
X0693279Y0193253D01*
X0692548Y0191654D02*
X0715233Y0191654D01*
X0715233Y0190056D02*
X0691523Y0190056D01*
X0693437Y0188457D02*
X0715233Y0188457D01*
X0715233Y0186859D02*
X0694233Y0186859D01*
X0694533Y0185260D02*
X0715233Y0185260D01*
X0715233Y0183662D02*
X0694449Y0183662D01*
X0693786Y0182063D02*
X0715233Y0182063D01*
X0715233Y0180465D02*
X0692359Y0180465D01*
X0692028Y0178866D02*
X0715233Y0178866D01*
X0715233Y0177268D02*
X0693064Y0177268D01*
X0693533Y0175669D02*
X0715233Y0175669D01*
X0715233Y0174070D02*
X0693533Y0174070D01*
X0692956Y0172472D02*
X0715233Y0172472D01*
X0715233Y0170873D02*
X0691768Y0170873D01*
X0683899Y0170873D02*
X0681976Y0170873D01*
X0683270Y0188457D02*
X0684229Y0188457D01*
X0684875Y0190056D02*
X0681672Y0190056D01*
X0683118Y0191654D02*
X0568710Y0191654D01*
X0567656Y0190600D02*
X0570233Y0193177D01*
X0570233Y0196006D01*
X0572452Y0198225D01*
X0592899Y0198225D01*
X0593501Y0196771D01*
X0595105Y0195168D01*
X0597200Y0194300D01*
X0599467Y0194300D01*
X0601562Y0195168D01*
X0603166Y0196771D01*
X0604033Y0198866D01*
X0604033Y0201134D01*
X0603166Y0203229D01*
X0601562Y0204832D01*
X0599467Y0205700D01*
X0597200Y0205700D01*
X0595105Y0204832D01*
X0593501Y0203229D01*
X0593417Y0203025D01*
X0570981Y0203025D01*
X0570099Y0202660D01*
X0569424Y0201984D01*
X0566839Y0199400D01*
X0564011Y0199400D01*
X0561433Y0196823D01*
X0561433Y0193177D01*
X0564011Y0190600D01*
X0567656Y0190600D01*
X0570233Y0193253D02*
X0682387Y0193253D01*
X0682133Y0194851D02*
X0650798Y0194851D01*
X0651562Y0195168D02*
X0653166Y0196771D01*
X0654033Y0198866D01*
X0654033Y0201134D01*
X0653166Y0203229D01*
X0651562Y0204832D01*
X0649467Y0205700D01*
X0647200Y0205700D01*
X0645105Y0204832D01*
X0643501Y0203229D01*
X0642633Y0201134D01*
X0642633Y0198866D01*
X0643501Y0196771D01*
X0645105Y0195168D01*
X0647200Y0194300D01*
X0649467Y0194300D01*
X0651562Y0195168D01*
X0652844Y0196450D02*
X0682264Y0196450D01*
X0682926Y0198048D02*
X0653694Y0198048D01*
X0654033Y0199647D02*
X0683958Y0199647D01*
X0683133Y0201245D02*
X0653987Y0201245D01*
X0653325Y0202844D02*
X0683133Y0202844D01*
X0683133Y0204442D02*
X0651952Y0204442D01*
X0644715Y0204442D02*
X0601952Y0204442D01*
X0603325Y0202844D02*
X0643342Y0202844D01*
X0642679Y0201245D02*
X0603987Y0201245D01*
X0604033Y0199647D02*
X0642633Y0199647D01*
X0642972Y0198048D02*
X0603694Y0198048D01*
X0602844Y0196450D02*
X0643823Y0196450D01*
X0645869Y0194851D02*
X0600798Y0194851D01*
X0595869Y0194851D02*
X0570233Y0194851D01*
X0570677Y0196450D02*
X0593823Y0196450D01*
X0592972Y0198048D02*
X0572276Y0198048D01*
X0568684Y0201245D02*
X0562733Y0201245D01*
X0562733Y0201823D02*
X0560156Y0204400D01*
X0556511Y0204400D01*
X0553933Y0201823D01*
X0553933Y0198177D01*
X0556511Y0195600D01*
X0560156Y0195600D01*
X0562733Y0198177D01*
X0562733Y0201823D01*
X0561712Y0202844D02*
X0570543Y0202844D01*
X0567086Y0199647D02*
X0562733Y0199647D01*
X0562659Y0198048D02*
X0562604Y0198048D01*
X0561433Y0196450D02*
X0561005Y0196450D01*
X0561433Y0194851D02*
X0526579Y0194851D01*
X0528177Y0196450D02*
X0555661Y0196450D01*
X0554063Y0198048D02*
X0544776Y0198048D01*
X0544693Y0197965D02*
X0558500Y0211773D01*
X0558501Y0211771D01*
X0560105Y0210168D01*
X0562200Y0209300D01*
X0564467Y0209300D01*
X0566562Y0210168D01*
X0568166Y0211771D01*
X0569033Y0213866D01*
X0569033Y0216134D01*
X0568166Y0218229D01*
X0566562Y0219832D01*
X0566157Y0220000D01*
X0566562Y0220168D01*
X0568166Y0221771D01*
X0569033Y0223866D01*
X0569033Y0226134D01*
X0568166Y0228229D01*
X0566562Y0229832D01*
X0564467Y0230700D01*
X0562200Y0230700D01*
X0560105Y0229832D01*
X0558501Y0228229D01*
X0557899Y0226775D01*
X0542231Y0226775D01*
X0541349Y0226410D01*
X0540674Y0225734D01*
X0534339Y0219400D01*
X0533577Y0219400D01*
X0519118Y0233859D01*
X0518443Y0234535D01*
X0517561Y0234900D01*
X0466827Y0234900D01*
X0438858Y0262869D01*
X0438858Y0267131D01*
X0453304Y0281576D01*
X0453083Y0281044D01*
X0453083Y0278956D01*
X0453883Y0277026D01*
X0455359Y0275549D01*
X0457289Y0274750D01*
X0459378Y0274750D01*
X0461307Y0275549D01*
X0462784Y0277026D01*
X0463583Y0278956D01*
X0463583Y0281044D01*
X0462784Y0282974D01*
X0461307Y0284451D01*
X0459981Y0285000D01*
X0461307Y0285549D01*
X0462784Y0287026D01*
X0463583Y0288956D01*
X0463583Y0291044D01*
X0462784Y0292974D01*
X0461307Y0294451D01*
X0459378Y0295250D01*
X0457289Y0295250D01*
X0455359Y0294451D01*
X0453883Y0292974D01*
X0453083Y0291044D01*
X0453083Y0288956D01*
X0453321Y0288382D01*
X0442967Y0278027D01*
X0442967Y0291976D01*
X0442938Y0292233D01*
X0442880Y0292484D01*
X0442795Y0292728D01*
X0442683Y0292961D01*
X0442545Y0293180D01*
X0442384Y0293382D01*
X0442202Y0293564D01*
X0442000Y0293725D01*
X0441781Y0293863D01*
X0441548Y0293975D01*
X0441333Y0294050D01*
X0441333Y0294475D01*
X0443811Y0294475D01*
X0444693Y0294840D01*
X0445577Y0295725D01*
X0471714Y0295725D01*
X0473083Y0294356D01*
X0473083Y0293956D01*
X0473883Y0292026D01*
X0475359Y0290549D01*
X0477289Y0289750D01*
X0479378Y0289750D01*
X0481307Y0290549D01*
X0482784Y0292026D01*
X0483583Y0293956D01*
X0483583Y0294356D01*
X0485577Y0296350D01*
X0577723Y0296350D01*
X0577633Y0296134D01*
X0577633Y0293866D01*
X0578501Y0291771D01*
X0580105Y0290168D01*
X0582200Y0289300D01*
X0584467Y0289300D01*
X0586562Y0290168D01*
X0588166Y0291771D01*
X0589033Y0293866D01*
X0589033Y0296134D01*
X0588166Y0298229D01*
X0586562Y0299832D01*
X0584467Y0300700D01*
X0582200Y0300700D01*
X0581371Y0300357D01*
X0580943Y0300785D01*
X0580061Y0301150D01*
X0484106Y0301150D01*
X0483224Y0300785D01*
X0482549Y0300109D01*
X0481599Y0299159D01*
X0481307Y0299451D01*
X0479676Y0300126D01*
X0480272Y0300320D01*
X0480980Y0300681D01*
X0481623Y0301148D01*
X0482185Y0301710D01*
X0482652Y0302353D01*
X0483013Y0303061D01*
X0483259Y0303817D01*
X0483383Y0304603D01*
X0483383Y0305000D01*
X0483383Y0305397D01*
X0483259Y0306183D01*
X0483013Y0306939D01*
X0482652Y0307647D01*
X0482185Y0308290D01*
X0481623Y0308852D01*
X0480980Y0309319D01*
X0480272Y0309680D01*
X0479516Y0309926D01*
X0478731Y0310050D01*
X0478333Y0310050D01*
X0477936Y0310050D01*
X0477151Y0309926D01*
X0476395Y0309680D01*
X0475687Y0309319D01*
X0475043Y0308852D01*
X0474481Y0308290D01*
X0474014Y0307647D01*
X0473653Y0306939D01*
X0473408Y0306183D01*
X0473283Y0305397D01*
X0473283Y0305000D01*
X0473283Y0304603D01*
X0473408Y0303817D01*
X0473653Y0303061D01*
X0474014Y0302353D01*
X0474481Y0301710D01*
X0475043Y0301148D01*
X0475687Y0300681D01*
X0476395Y0300320D01*
X0476991Y0300126D01*
X0475359Y0299451D01*
X0475068Y0299159D01*
X0474068Y0300160D01*
X0473186Y0300525D01*
X0444106Y0300525D01*
X0443224Y0300160D01*
X0442549Y0299484D01*
X0442339Y0299275D01*
X0439078Y0299275D01*
X0437328Y0300000D01*
X0429339Y0300000D01*
X0427501Y0299239D01*
X0426095Y0297832D01*
X0425333Y0295995D01*
X0425333Y0294005D01*
X0426095Y0292168D01*
X0426700Y0291562D01*
X0426700Y0272538D01*
X0426729Y0272281D01*
X0426786Y0272029D01*
X0426872Y0271785D01*
X0426984Y0271552D01*
X0427121Y0271334D01*
X0427282Y0271132D01*
X0427465Y0270949D01*
X0427667Y0270788D01*
X0427807Y0270700D01*
X0427200Y0270700D01*
X0425105Y0269832D01*
X0423501Y0268229D01*
X0422633Y0266134D01*
X0422633Y0263866D01*
X0423501Y0261771D01*
X0425105Y0260168D01*
X0425510Y0260000D01*
X0425105Y0259832D01*
X0423501Y0258229D01*
X0422633Y0256134D01*
X0422633Y0253866D01*
X0423501Y0251771D01*
X0425105Y0250168D01*
X0425510Y0250000D01*
X0425105Y0249832D01*
X0423501Y0248229D01*
X0422633Y0246134D01*
X0422633Y0243866D01*
X0423501Y0241771D01*
X0425105Y0240168D01*
X0425510Y0240000D01*
X0425105Y0239832D01*
X0423501Y0238229D01*
X0422633Y0236134D01*
X0422633Y0233866D01*
X0423501Y0231771D01*
X0425105Y0230168D01*
X0425510Y0230000D01*
X0425105Y0229832D01*
X0423501Y0228229D01*
X0422633Y0226134D01*
X0422633Y0223866D01*
X0423501Y0221771D01*
X0425105Y0220168D01*
X0425510Y0220000D01*
X0425105Y0219832D01*
X0423501Y0218229D01*
X0422633Y0216134D01*
X0422633Y0213866D01*
X0423501Y0211771D01*
X0425105Y0210168D01*
X0425510Y0210000D01*
X0425105Y0209832D01*
X0423501Y0208229D01*
X0422633Y0206134D01*
X0422633Y0205525D01*
X0420356Y0205525D01*
X0419474Y0205160D01*
X0418799Y0204484D01*
X0418433Y0203602D01*
X0418433Y0164523D01*
X0418799Y0163641D01*
X0419474Y0162965D01*
X0423856Y0158583D01*
X0423501Y0158229D01*
X0422633Y0156134D01*
X0422633Y0154147D01*
X0418871Y0154147D01*
X0418614Y0154118D01*
X0418362Y0154060D01*
X0418118Y0153975D01*
X0417886Y0153863D01*
X0417667Y0153725D01*
X0417465Y0153564D01*
X0417282Y0153382D01*
X0417121Y0153180D01*
X0416984Y0152961D01*
X0416872Y0152728D01*
X0416786Y0152484D01*
X0416729Y0152233D01*
X0416700Y0151976D01*
X0416700Y0132538D01*
X0416729Y0132281D01*
X0416786Y0132029D01*
X0416872Y0131785D01*
X0416984Y0131552D01*
X0417121Y0131334D01*
X0417282Y0131132D01*
X0417465Y0130949D01*
X0417667Y0130788D01*
X0417886Y0130650D01*
X0418118Y0130538D01*
X0418362Y0130453D01*
X0418614Y0130396D01*
X0418871Y0130367D01*
X0430796Y0130367D01*
X0431053Y0130396D01*
X0431304Y0130453D01*
X0431548Y0130538D01*
X0431781Y0130650D01*
X0432000Y0130788D01*
X0432202Y0130949D01*
X0432384Y0131132D01*
X0432545Y0131334D01*
X0432683Y0131552D01*
X0432795Y0131785D01*
X0432880Y0132029D01*
X0432938Y0132281D01*
X0432967Y0132538D01*
X0432967Y0151572D01*
X0433166Y0151771D01*
X0434033Y0153866D01*
X0434033Y0156134D01*
X0433426Y0157600D01*
X0437339Y0157600D01*
X0443933Y0151006D01*
X0443933Y0148177D01*
X0446511Y0145600D01*
X0450156Y0145600D01*
X0452733Y0148177D01*
X0452733Y0151823D01*
X0450156Y0154400D01*
X0447327Y0154400D01*
X0440368Y0161359D01*
X0439693Y0162035D01*
X0438811Y0162400D01*
X0433426Y0162400D01*
X0433768Y0163225D01*
X0464436Y0163225D01*
X0465318Y0163590D01*
X0465993Y0164266D01*
X0477327Y0175600D01*
X0480156Y0175600D01*
X0482733Y0178177D01*
X0482733Y0181823D01*
X0481983Y0182573D01*
X0481983Y0210292D01*
X0482720Y0211029D01*
X0483283Y0212389D01*
X0483283Y0213861D01*
X0482720Y0215221D01*
X0482316Y0215625D01*
X0482720Y0216029D01*
X0483283Y0217389D01*
X0483283Y0218861D01*
X0483029Y0219475D01*
X0484214Y0219475D01*
X0514314Y0189375D01*
X0509339Y0184400D01*
X0506511Y0184400D01*
X0503933Y0181823D01*
X0503933Y0178177D01*
X0506511Y0175600D01*
X0510156Y0175600D01*
X0512733Y0178177D01*
X0512733Y0181006D01*
X0519743Y0188016D01*
X0529327Y0197600D01*
X0543811Y0197600D01*
X0544693Y0197965D01*
X0546374Y0199647D02*
X0553933Y0199647D01*
X0553933Y0201245D02*
X0547973Y0201245D01*
X0549571Y0202844D02*
X0554954Y0202844D01*
X0552768Y0206041D02*
X0683133Y0206041D01*
X0682300Y0207639D02*
X0554367Y0207639D01*
X0555965Y0209238D02*
X0680701Y0209238D01*
X0679103Y0210836D02*
X0597231Y0210836D01*
X0596562Y0210168D02*
X0598166Y0211771D01*
X0599033Y0213866D01*
X0599033Y0216134D01*
X0598166Y0218229D01*
X0596562Y0219832D01*
X0596157Y0220000D01*
X0596562Y0220168D01*
X0598166Y0221771D01*
X0599033Y0223866D01*
X0599033Y0226134D01*
X0598166Y0228229D01*
X0596562Y0229832D01*
X0594467Y0230700D01*
X0592200Y0230700D01*
X0590105Y0229832D01*
X0588501Y0228229D01*
X0587633Y0226134D01*
X0587633Y0223866D01*
X0588501Y0221771D01*
X0590105Y0220168D01*
X0590510Y0220000D01*
X0590105Y0219832D01*
X0588501Y0218229D01*
X0587633Y0216134D01*
X0587633Y0213866D01*
X0588501Y0211771D01*
X0590105Y0210168D01*
X0592200Y0209300D01*
X0594467Y0209300D01*
X0596562Y0210168D01*
X0598440Y0212435D02*
X0677504Y0212435D01*
X0675906Y0214033D02*
X0599033Y0214033D01*
X0599033Y0215632D02*
X0674307Y0215632D01*
X0672709Y0217230D02*
X0598579Y0217230D01*
X0597566Y0218829D02*
X0671110Y0218829D01*
X0669512Y0220427D02*
X0596822Y0220427D01*
X0598271Y0222026D02*
X0667913Y0222026D01*
X0666315Y0223624D02*
X0598933Y0223624D01*
X0599033Y0225223D02*
X0664716Y0225223D01*
X0663118Y0226821D02*
X0598749Y0226821D01*
X0597974Y0228420D02*
X0661519Y0228420D01*
X0659921Y0230018D02*
X0596113Y0230018D01*
X0590554Y0230018D02*
X0566113Y0230018D01*
X0567974Y0228420D02*
X0588692Y0228420D01*
X0587918Y0226821D02*
X0568749Y0226821D01*
X0569033Y0225223D02*
X0587633Y0225223D01*
X0587734Y0223624D02*
X0568933Y0223624D01*
X0568271Y0222026D02*
X0588396Y0222026D01*
X0589845Y0220427D02*
X0566822Y0220427D01*
X0567566Y0218829D02*
X0589101Y0218829D01*
X0588088Y0217230D02*
X0568579Y0217230D01*
X0569033Y0215632D02*
X0587633Y0215632D01*
X0587633Y0214033D02*
X0569033Y0214033D01*
X0568440Y0212435D02*
X0588226Y0212435D01*
X0589436Y0210836D02*
X0567231Y0210836D01*
X0559436Y0210836D02*
X0557564Y0210836D01*
X0553972Y0214033D02*
X0537733Y0214033D01*
X0537733Y0213177D02*
X0537733Y0216006D01*
X0543702Y0221975D01*
X0558417Y0221975D01*
X0558501Y0221771D01*
X0560105Y0220168D01*
X0560510Y0220000D01*
X0560105Y0219832D01*
X0558501Y0218229D01*
X0557899Y0216775D01*
X0557231Y0216775D01*
X0556349Y0216410D01*
X0555674Y0215734D01*
X0542339Y0202400D01*
X0527856Y0202400D01*
X0526974Y0202035D01*
X0526299Y0201359D01*
X0517708Y0192769D01*
X0486568Y0223910D01*
X0485686Y0224275D01*
X0456202Y0224275D01*
X0452979Y0227498D01*
X0453583Y0228956D01*
X0453583Y0231044D01*
X0452784Y0232974D01*
X0451307Y0234451D01*
X0449981Y0235000D01*
X0451307Y0235549D01*
X0452784Y0237026D01*
X0453583Y0238956D01*
X0453583Y0241044D01*
X0453363Y0241576D01*
X0464474Y0230465D01*
X0465356Y0230100D01*
X0466311Y0230100D01*
X0516089Y0230100D01*
X0529150Y0217039D01*
X0528933Y0216823D01*
X0528933Y0213177D01*
X0531511Y0210600D01*
X0535156Y0210600D01*
X0537733Y0213177D01*
X0536991Y0212435D02*
X0552374Y0212435D01*
X0550775Y0210836D02*
X0535392Y0210836D01*
X0532733Y0209323D02*
X0530156Y0211900D01*
X0526511Y0211900D01*
X0523933Y0209323D01*
X0523933Y0205677D01*
X0526511Y0203100D01*
X0530156Y0203100D01*
X0532733Y0205677D01*
X0532733Y0209323D01*
X0532733Y0209238D02*
X0549177Y0209238D01*
X0547578Y0207639D02*
X0532733Y0207639D01*
X0532733Y0206041D02*
X0545980Y0206041D01*
X0544381Y0204442D02*
X0531498Y0204442D01*
X0526184Y0201245D02*
X0509232Y0201245D01*
X0507634Y0202844D02*
X0542783Y0202844D01*
X0551170Y0204442D02*
X0594715Y0204442D01*
X0621521Y0188457D02*
X0562533Y0188457D01*
X0562533Y0188260D02*
X0562533Y0190000D01*
X0562533Y0191740D01*
X0560073Y0194200D01*
X0558333Y0194200D01*
X0556594Y0194200D01*
X0554133Y0191740D01*
X0554133Y0190000D01*
X0554133Y0188260D01*
X0556594Y0185800D01*
X0558333Y0185800D01*
X0558333Y0190000D01*
X0558333Y0190000D01*
X0554133Y0190000D01*
X0558333Y0190000D01*
X0558333Y0194200D01*
X0558333Y0190000D01*
X0558333Y0190000D01*
X0558333Y0190000D01*
X0558333Y0185800D01*
X0560073Y0185800D01*
X0562533Y0188260D01*
X0562533Y0190000D02*
X0558333Y0190000D01*
X0562533Y0190000D01*
X0562533Y0190056D02*
X0623120Y0190056D01*
X0619923Y0186859D02*
X0561132Y0186859D01*
X0558333Y0186859D02*
X0558333Y0186859D01*
X0558333Y0188457D02*
X0558333Y0188457D01*
X0558333Y0190000D02*
X0558333Y0190000D01*
X0558333Y0190056D02*
X0558333Y0190056D01*
X0558333Y0191654D02*
X0558333Y0191654D01*
X0558333Y0193253D02*
X0558333Y0193253D01*
X0555646Y0193253D02*
X0524980Y0193253D01*
X0523382Y0191654D02*
X0554133Y0191654D01*
X0554133Y0190056D02*
X0521783Y0190056D01*
X0520185Y0188457D02*
X0554133Y0188457D01*
X0555535Y0186859D02*
X0518586Y0186859D01*
X0516987Y0185260D02*
X0576137Y0185260D01*
X0573934Y0183662D02*
X0515389Y0183662D01*
X0513790Y0182063D02*
X0519502Y0182063D01*
X0517904Y0180465D02*
X0512733Y0180465D01*
X0512733Y0178866D02*
X0513477Y0178866D01*
X0511878Y0177268D02*
X0511823Y0177268D01*
X0511433Y0175669D02*
X0510225Y0175669D01*
X0510073Y0174200D02*
X0508333Y0174200D01*
X0506594Y0174200D01*
X0504133Y0171740D01*
X0504133Y0170000D01*
X0504133Y0168260D01*
X0506594Y0165800D01*
X0508333Y0165800D01*
X0508333Y0170000D01*
X0508333Y0170000D01*
X0504133Y0170000D01*
X0508333Y0170000D01*
X0508333Y0174200D01*
X0508333Y0170000D01*
X0508333Y0170000D01*
X0508333Y0170000D01*
X0508333Y0165800D01*
X0510073Y0165800D01*
X0512533Y0168260D01*
X0512533Y0170000D01*
X0512533Y0171740D01*
X0510073Y0174200D01*
X0510203Y0174070D02*
X0511433Y0174070D01*
X0511801Y0172472D02*
X0512139Y0172472D01*
X0512533Y0170873D02*
X0513737Y0170873D01*
X0512533Y0170000D02*
X0508333Y0170000D01*
X0508333Y0170000D01*
X0512533Y0170000D01*
X0512533Y0169275D02*
X0564214Y0169275D01*
X0562616Y0167676D02*
X0511949Y0167676D01*
X0510351Y0166078D02*
X0561017Y0166078D01*
X0559419Y0164479D02*
X0541915Y0164479D01*
X0541562Y0164832D02*
X0539467Y0165700D01*
X0537200Y0165700D01*
X0535105Y0164832D01*
X0533501Y0163229D01*
X0532633Y0161134D01*
X0532633Y0158866D01*
X0533501Y0156771D01*
X0535105Y0155168D01*
X0537200Y0154300D01*
X0539467Y0154300D01*
X0541562Y0155168D01*
X0543166Y0156771D01*
X0544033Y0158866D01*
X0544033Y0161134D01*
X0543166Y0163229D01*
X0541562Y0164832D01*
X0543310Y0162881D02*
X0557820Y0162881D01*
X0556222Y0161282D02*
X0543972Y0161282D01*
X0544033Y0159684D02*
X0554623Y0159684D01*
X0553025Y0158085D02*
X0543710Y0158085D01*
X0542881Y0156487D02*
X0551426Y0156487D01*
X0549828Y0154888D02*
X0540888Y0154888D01*
X0535779Y0154888D02*
X0446839Y0154888D01*
X0445241Y0156487D02*
X0533785Y0156487D01*
X0532957Y0158085D02*
X0443642Y0158085D01*
X0442044Y0159684D02*
X0532633Y0159684D01*
X0532695Y0161282D02*
X0440445Y0161282D01*
X0438452Y0156487D02*
X0433887Y0156487D01*
X0434033Y0154888D02*
X0440051Y0154888D01*
X0441649Y0153290D02*
X0433795Y0153290D01*
X0433086Y0151691D02*
X0443248Y0151691D01*
X0443933Y0150093D02*
X0432967Y0150093D01*
X0432967Y0148494D02*
X0443933Y0148494D01*
X0445215Y0146896D02*
X0432967Y0146896D01*
X0432967Y0145297D02*
X0451433Y0145297D01*
X0451433Y0146823D02*
X0451433Y0143177D01*
X0454011Y0140600D01*
X0456839Y0140600D01*
X0496924Y0100516D01*
X0497599Y0099840D01*
X0498481Y0099475D01*
X0585686Y0099475D01*
X0586568Y0099840D01*
X0593500Y0106773D01*
X0593501Y0106771D01*
X0595105Y0105168D01*
X0597200Y0104300D01*
X0599467Y0104300D01*
X0601562Y0105168D01*
X0603166Y0106771D01*
X0604033Y0108866D01*
X0604033Y0111134D01*
X0603166Y0113229D01*
X0601562Y0114832D01*
X0599467Y0115700D01*
X0597200Y0115700D01*
X0595105Y0114832D01*
X0593501Y0113229D01*
X0592899Y0111775D01*
X0592231Y0111775D01*
X0591349Y0111410D01*
X0590674Y0110734D01*
X0584214Y0104275D01*
X0499952Y0104275D01*
X0460233Y0143994D01*
X0460233Y0146823D01*
X0457656Y0149400D01*
X0454011Y0149400D01*
X0451433Y0146823D01*
X0451452Y0146896D02*
X0451507Y0146896D01*
X0452733Y0148494D02*
X0453105Y0148494D01*
X0452733Y0150093D02*
X0545032Y0150093D01*
X0546631Y0151691D02*
X0452733Y0151691D01*
X0451266Y0153290D02*
X0548229Y0153290D01*
X0543434Y0148494D02*
X0458562Y0148494D01*
X0460160Y0146896D02*
X0541835Y0146896D01*
X0540237Y0145297D02*
X0460233Y0145297D01*
X0460529Y0143699D02*
X0538638Y0143699D01*
X0537039Y0142100D02*
X0462127Y0142100D01*
X0463726Y0140502D02*
X0535441Y0140502D01*
X0533842Y0138903D02*
X0465324Y0138903D01*
X0466923Y0137305D02*
X0532244Y0137305D01*
X0530645Y0135706D02*
X0468521Y0135706D01*
X0470120Y0134108D02*
X0524380Y0134108D01*
X0523203Y0132509D02*
X0471718Y0132509D01*
X0473317Y0130911D02*
X0522633Y0130911D01*
X0522633Y0129312D02*
X0474915Y0129312D01*
X0476514Y0127714D02*
X0523111Y0127714D01*
X0524157Y0126115D02*
X0478112Y0126115D01*
X0479711Y0124517D02*
X0526677Y0124517D01*
X0529990Y0124517D02*
X0536677Y0124517D01*
X0534157Y0126115D02*
X0532509Y0126115D01*
X0539990Y0124517D02*
X0546677Y0124517D01*
X0544157Y0126115D02*
X0542509Y0126115D01*
X0549990Y0124517D02*
X0551331Y0124517D01*
X0552509Y0126115D02*
X0552929Y0126115D01*
X0556521Y0122918D02*
X0575308Y0122918D01*
X0575308Y0121320D02*
X0554922Y0121320D01*
X0553155Y0119721D02*
X0574660Y0119721D01*
X0573062Y0118123D02*
X0504850Y0118123D01*
X0503872Y0116524D02*
X0571463Y0116524D01*
X0575054Y0113327D02*
X0593599Y0113327D01*
X0592119Y0111729D02*
X0573787Y0111729D01*
X0574033Y0110130D02*
X0590069Y0110130D01*
X0588471Y0108532D02*
X0573895Y0108532D01*
X0573233Y0106933D02*
X0586872Y0106933D01*
X0585274Y0105334D02*
X0571729Y0105334D01*
X0564938Y0105334D02*
X0521729Y0105334D01*
X0521562Y0105168D02*
X0523166Y0106771D01*
X0524033Y0108866D01*
X0524033Y0111134D01*
X0523166Y0113229D01*
X0521562Y0114832D01*
X0519467Y0115700D01*
X0517200Y0115700D01*
X0515105Y0114832D01*
X0513501Y0113229D01*
X0512633Y0111134D01*
X0512633Y0108866D01*
X0513501Y0106771D01*
X0515105Y0105168D01*
X0517200Y0104300D01*
X0519467Y0104300D01*
X0521562Y0105168D01*
X0523233Y0106933D02*
X0563434Y0106933D01*
X0562772Y0108532D02*
X0523895Y0108532D01*
X0524033Y0110130D02*
X0562633Y0110130D01*
X0562880Y0111729D02*
X0523787Y0111729D01*
X0523067Y0113327D02*
X0563599Y0113327D01*
X0565330Y0114926D02*
X0521337Y0114926D01*
X0515330Y0114926D02*
X0504033Y0114926D01*
X0503810Y0113327D02*
X0513599Y0113327D01*
X0512880Y0111729D02*
X0503123Y0111729D01*
X0501471Y0110130D02*
X0512633Y0110130D01*
X0512772Y0108532D02*
X0495696Y0108532D01*
X0495196Y0110130D02*
X0494097Y0110130D01*
X0493544Y0111729D02*
X0492499Y0111729D01*
X0492857Y0113327D02*
X0490900Y0113327D01*
X0489302Y0114926D02*
X0492633Y0114926D01*
X0492795Y0116524D02*
X0487703Y0116524D01*
X0486105Y0118123D02*
X0493457Y0118123D01*
X0494993Y0119721D02*
X0484506Y0119721D01*
X0482908Y0121320D02*
X0501259Y0121320D01*
X0502857Y0122918D02*
X0481309Y0122918D01*
X0477718Y0119721D02*
X0451673Y0119721D01*
X0451562Y0119832D02*
X0449467Y0120700D01*
X0447200Y0120700D01*
X0445105Y0119832D01*
X0443501Y0118229D01*
X0442633Y0116134D01*
X0442633Y0113866D01*
X0443501Y0111771D01*
X0445105Y0110168D01*
X0447200Y0109300D01*
X0449467Y0109300D01*
X0451562Y0110168D01*
X0453166Y0111771D01*
X0454033Y0113866D01*
X0454033Y0116134D01*
X0453166Y0118229D01*
X0451562Y0119832D01*
X0453210Y0118123D02*
X0479317Y0118123D01*
X0480915Y0116524D02*
X0453872Y0116524D01*
X0454033Y0114926D02*
X0482514Y0114926D01*
X0484112Y0113327D02*
X0453810Y0113327D01*
X0453123Y0111729D02*
X0485711Y0111729D01*
X0487309Y0110130D02*
X0451471Y0110130D01*
X0445196Y0110130D02*
X0411433Y0110130D01*
X0411433Y0108532D02*
X0488908Y0108532D01*
X0490506Y0106933D02*
X0411433Y0106933D01*
X0411433Y0105334D02*
X0492105Y0105334D01*
X0493703Y0103736D02*
X0411433Y0103736D01*
X0411433Y0102137D02*
X0495302Y0102137D01*
X0496900Y0100539D02*
X0411433Y0100539D01*
X0411433Y0098940D02*
X0715233Y0098940D01*
X0715233Y0097342D02*
X0411433Y0097342D01*
X0411433Y0095743D02*
X0715233Y0095743D01*
X0715233Y0094145D02*
X0411433Y0094145D01*
X0411433Y0092546D02*
X0715233Y0092546D01*
X0715233Y0090948D02*
X0411433Y0090948D01*
X0411433Y0089349D02*
X0715233Y0089349D01*
X0715233Y0100539D02*
X0587266Y0100539D01*
X0588865Y0102137D02*
X0715233Y0102137D01*
X0715233Y0103736D02*
X0590463Y0103736D01*
X0592062Y0105334D02*
X0594938Y0105334D01*
X0601729Y0105334D02*
X0644938Y0105334D01*
X0645105Y0105168D02*
X0647200Y0104300D01*
X0649467Y0104300D01*
X0651562Y0105168D01*
X0653166Y0106771D01*
X0654033Y0108866D01*
X0654033Y0111134D01*
X0653166Y0113229D01*
X0651562Y0114832D01*
X0649467Y0115700D01*
X0647200Y0115700D01*
X0645105Y0114832D01*
X0643501Y0113229D01*
X0642633Y0111134D01*
X0642633Y0108866D01*
X0643501Y0106771D01*
X0645105Y0105168D01*
X0643434Y0106933D02*
X0603233Y0106933D01*
X0603895Y0108532D02*
X0642772Y0108532D01*
X0642633Y0110130D02*
X0604033Y0110130D01*
X0603787Y0111729D02*
X0642880Y0111729D01*
X0643599Y0113327D02*
X0603067Y0113327D01*
X0601337Y0114926D02*
X0645330Y0114926D01*
X0651337Y0114926D02*
X0715233Y0114926D01*
X0715233Y0116524D02*
X0578252Y0116524D01*
X0579787Y0118123D02*
X0715233Y0118123D01*
X0715233Y0119721D02*
X0580108Y0119721D01*
X0580108Y0121320D02*
X0715233Y0121320D01*
X0715233Y0122918D02*
X0580108Y0122918D01*
X0580108Y0124517D02*
X0586677Y0124517D01*
X0584157Y0126115D02*
X0582509Y0126115D01*
X0575308Y0124517D02*
X0569990Y0124517D01*
X0572509Y0126115D02*
X0574157Y0126115D01*
X0566677Y0124517D02*
X0559990Y0124517D01*
X0562509Y0126115D02*
X0564157Y0126115D01*
X0564380Y0134108D02*
X0562287Y0134108D01*
X0554380Y0134108D02*
X0552287Y0134108D01*
X0549032Y0137305D02*
X0607634Y0137305D01*
X0608174Y0136766D02*
X0608849Y0136090D01*
X0609731Y0135725D01*
X0636089Y0135725D01*
X0638543Y0133271D01*
X0638501Y0133229D01*
X0638333Y0132824D01*
X0638166Y0133229D01*
X0636562Y0134832D01*
X0634467Y0135700D01*
X0632200Y0135700D01*
X0630105Y0134832D01*
X0628501Y0133229D01*
X0628333Y0132824D01*
X0628166Y0133229D01*
X0626562Y0134832D01*
X0624467Y0135700D01*
X0622200Y0135700D01*
X0620105Y0134832D01*
X0618501Y0133229D01*
X0618333Y0132824D01*
X0618166Y0133229D01*
X0616562Y0134832D01*
X0614467Y0135700D01*
X0612200Y0135700D01*
X0610105Y0134832D01*
X0608501Y0133229D01*
X0607633Y0131134D01*
X0607633Y0128866D01*
X0608501Y0126771D01*
X0610105Y0125168D01*
X0612200Y0124300D01*
X0614467Y0124300D01*
X0616562Y0125168D01*
X0618166Y0126771D01*
X0618333Y0127176D01*
X0618501Y0126771D01*
X0620105Y0125168D01*
X0622200Y0124300D01*
X0624467Y0124300D01*
X0626562Y0125168D01*
X0628166Y0126771D01*
X0628333Y0127176D01*
X0628501Y0126771D01*
X0630105Y0125168D01*
X0632200Y0124300D01*
X0634467Y0124300D01*
X0636562Y0125168D01*
X0638166Y0126771D01*
X0638333Y0127176D01*
X0638501Y0126771D01*
X0640105Y0125168D01*
X0642200Y0124300D01*
X0644467Y0124300D01*
X0646562Y0125168D01*
X0648166Y0126771D01*
X0648333Y0127176D01*
X0648501Y0126771D01*
X0650105Y0125168D01*
X0652200Y0124300D01*
X0654467Y0124300D01*
X0656562Y0125168D01*
X0658166Y0126771D01*
X0658333Y0127176D01*
X0658501Y0126771D01*
X0660105Y0125168D01*
X0662200Y0124300D01*
X0664467Y0124300D01*
X0666562Y0125168D01*
X0668166Y0126771D01*
X0668333Y0127176D01*
X0668501Y0126771D01*
X0670105Y0125168D01*
X0672200Y0124300D01*
X0674467Y0124300D01*
X0676562Y0125168D01*
X0678166Y0126771D01*
X0678333Y0127176D01*
X0678501Y0126771D01*
X0680105Y0125168D01*
X0682200Y0124300D01*
X0684467Y0124300D01*
X0686562Y0125168D01*
X0688166Y0126771D01*
X0689033Y0128866D01*
X0689033Y0131134D01*
X0688166Y0133229D01*
X0686562Y0134832D01*
X0684467Y0135700D01*
X0682200Y0135700D01*
X0680105Y0134832D01*
X0678501Y0133229D01*
X0678333Y0132824D01*
X0678166Y0133229D01*
X0676562Y0134832D01*
X0674467Y0135700D01*
X0672200Y0135700D01*
X0670105Y0134832D01*
X0668501Y0133229D01*
X0668333Y0132824D01*
X0668166Y0133229D01*
X0666562Y0134832D01*
X0664467Y0135700D01*
X0662200Y0135700D01*
X0660105Y0134832D01*
X0658501Y0133229D01*
X0658333Y0132824D01*
X0658166Y0133229D01*
X0656562Y0134832D01*
X0654467Y0135700D01*
X0652200Y0135700D01*
X0650105Y0134832D01*
X0648501Y0133229D01*
X0648333Y0132824D01*
X0648166Y0133229D01*
X0646562Y0134832D01*
X0644467Y0135700D01*
X0642902Y0135700D01*
X0638443Y0140160D01*
X0637561Y0140525D01*
X0611202Y0140525D01*
X0593690Y0158037D01*
X0594033Y0158866D01*
X0594033Y0161134D01*
X0593166Y0163229D01*
X0591562Y0164832D01*
X0589467Y0165700D01*
X0587200Y0165700D01*
X0585105Y0164832D01*
X0583501Y0163229D01*
X0582633Y0161134D01*
X0582633Y0158866D01*
X0583501Y0156771D01*
X0585105Y0155168D01*
X0587200Y0154300D01*
X0589467Y0154300D01*
X0590296Y0154643D01*
X0608174Y0136766D01*
X0609380Y0134108D02*
X0602287Y0134108D01*
X0603464Y0132509D02*
X0608203Y0132509D01*
X0607633Y0130911D02*
X0604033Y0130911D01*
X0604033Y0129312D02*
X0607633Y0129312D01*
X0608111Y0127714D02*
X0603556Y0127714D01*
X0602509Y0126115D02*
X0609157Y0126115D01*
X0611677Y0124517D02*
X0599990Y0124517D01*
X0596677Y0124517D02*
X0589990Y0124517D01*
X0592509Y0126115D02*
X0594157Y0126115D01*
X0594380Y0134108D02*
X0592287Y0134108D01*
X0584380Y0134108D02*
X0582287Y0134108D01*
X0574380Y0134108D02*
X0572287Y0134108D01*
X0557025Y0145297D02*
X0599642Y0145297D01*
X0601240Y0143699D02*
X0555426Y0143699D01*
X0553828Y0142100D02*
X0602839Y0142100D01*
X0604437Y0140502D02*
X0552229Y0140502D01*
X0550631Y0138903D02*
X0606036Y0138903D01*
X0609627Y0142100D02*
X0715233Y0142100D01*
X0715233Y0140502D02*
X0637617Y0140502D01*
X0639699Y0138903D02*
X0715233Y0138903D01*
X0715233Y0137305D02*
X0641298Y0137305D01*
X0642896Y0135706D02*
X0715233Y0135706D01*
X0715233Y0134108D02*
X0687287Y0134108D01*
X0688464Y0132509D02*
X0715233Y0132509D01*
X0715233Y0130911D02*
X0689033Y0130911D01*
X0689033Y0129312D02*
X0715233Y0129312D01*
X0715233Y0127714D02*
X0688556Y0127714D01*
X0687509Y0126115D02*
X0715233Y0126115D01*
X0715233Y0124517D02*
X0684990Y0124517D01*
X0681677Y0124517D02*
X0674990Y0124517D01*
X0677509Y0126115D02*
X0679157Y0126115D01*
X0671677Y0124517D02*
X0664990Y0124517D01*
X0667509Y0126115D02*
X0669157Y0126115D01*
X0661677Y0124517D02*
X0654990Y0124517D01*
X0657509Y0126115D02*
X0659157Y0126115D01*
X0651677Y0124517D02*
X0644990Y0124517D01*
X0647509Y0126115D02*
X0649157Y0126115D01*
X0641677Y0124517D02*
X0634990Y0124517D01*
X0637509Y0126115D02*
X0639157Y0126115D01*
X0631677Y0124517D02*
X0624990Y0124517D01*
X0627509Y0126115D02*
X0629157Y0126115D01*
X0621677Y0124517D02*
X0614990Y0124517D01*
X0617509Y0126115D02*
X0619157Y0126115D01*
X0619380Y0134108D02*
X0617287Y0134108D01*
X0627287Y0134108D02*
X0629380Y0134108D01*
X0636108Y0135706D02*
X0547434Y0135706D01*
X0558623Y0146896D02*
X0598043Y0146896D01*
X0596445Y0148494D02*
X0560222Y0148494D01*
X0561820Y0150093D02*
X0594846Y0150093D01*
X0593248Y0151691D02*
X0563419Y0151691D01*
X0565017Y0153290D02*
X0591649Y0153290D01*
X0595241Y0156487D02*
X0715233Y0156487D01*
X0715233Y0158085D02*
X0593710Y0158085D01*
X0594033Y0159684D02*
X0715233Y0159684D01*
X0715233Y0161282D02*
X0593972Y0161282D01*
X0593310Y0162881D02*
X0715233Y0162881D01*
X0715233Y0164479D02*
X0591915Y0164479D01*
X0584752Y0164479D02*
X0576207Y0164479D01*
X0574608Y0162881D02*
X0583357Y0162881D01*
X0582695Y0161282D02*
X0573010Y0161282D01*
X0571411Y0159684D02*
X0582633Y0159684D01*
X0582957Y0158085D02*
X0569813Y0158085D01*
X0568214Y0156487D02*
X0583785Y0156487D01*
X0585779Y0154888D02*
X0566616Y0154888D01*
X0577805Y0166078D02*
X0715233Y0166078D01*
X0715233Y0167676D02*
X0579404Y0167676D01*
X0581002Y0169275D02*
X0715233Y0169275D01*
X0715233Y0154888D02*
X0596839Y0154888D01*
X0598438Y0153290D02*
X0715233Y0153290D01*
X0715233Y0151691D02*
X0600036Y0151691D01*
X0601635Y0150093D02*
X0715233Y0150093D01*
X0715233Y0148494D02*
X0603233Y0148494D01*
X0604832Y0146896D02*
X0715233Y0146896D01*
X0715233Y0145297D02*
X0606430Y0145297D01*
X0608029Y0143699D02*
X0715233Y0143699D01*
X0679380Y0134108D02*
X0677287Y0134108D01*
X0669380Y0134108D02*
X0667287Y0134108D01*
X0659380Y0134108D02*
X0657287Y0134108D01*
X0649380Y0134108D02*
X0647287Y0134108D01*
X0637707Y0134108D02*
X0637287Y0134108D01*
X0653067Y0113327D02*
X0715233Y0113327D01*
X0715233Y0111729D02*
X0653787Y0111729D01*
X0654033Y0110130D02*
X0715233Y0110130D01*
X0715233Y0108532D02*
X0653895Y0108532D01*
X0653233Y0106933D02*
X0715233Y0106933D01*
X0715233Y0105334D02*
X0651729Y0105334D01*
X0595330Y0114926D02*
X0576653Y0114926D01*
X0514938Y0105334D02*
X0498893Y0105334D01*
X0497294Y0106933D02*
X0513434Y0106933D01*
X0476120Y0121320D02*
X0411433Y0121320D01*
X0411433Y0122918D02*
X0474521Y0122918D01*
X0472923Y0124517D02*
X0411433Y0124517D01*
X0411433Y0126115D02*
X0471324Y0126115D01*
X0469726Y0127714D02*
X0411433Y0127714D01*
X0411433Y0129312D02*
X0468127Y0129312D01*
X0466529Y0130911D02*
X0432154Y0130911D01*
X0432963Y0132509D02*
X0464930Y0132509D01*
X0463332Y0134108D02*
X0432967Y0134108D01*
X0432967Y0135706D02*
X0461733Y0135706D01*
X0460134Y0137305D02*
X0451578Y0137305D01*
X0452533Y0138260D02*
X0450073Y0135800D01*
X0448333Y0135800D01*
X0448333Y0140000D01*
X0448333Y0140000D01*
X0444133Y0140000D01*
X0444133Y0138260D01*
X0446594Y0135800D01*
X0448333Y0135800D01*
X0448333Y0140000D01*
X0444133Y0140000D01*
X0444133Y0141740D01*
X0446594Y0144200D01*
X0448333Y0144200D01*
X0448333Y0140000D01*
X0448333Y0140000D01*
X0448333Y0140000D01*
X0448333Y0144200D01*
X0450073Y0144200D01*
X0452533Y0141740D01*
X0452533Y0140000D01*
X0448333Y0140000D01*
X0448333Y0140000D01*
X0452533Y0140000D01*
X0452533Y0138260D01*
X0452533Y0138903D02*
X0458536Y0138903D01*
X0456937Y0140502D02*
X0452533Y0140502D01*
X0452511Y0142100D02*
X0452173Y0142100D01*
X0451433Y0143699D02*
X0450574Y0143699D01*
X0448333Y0143699D02*
X0448333Y0143699D01*
X0448333Y0142100D02*
X0448333Y0142100D01*
X0448333Y0140502D02*
X0448333Y0140502D01*
X0448333Y0138903D02*
X0448333Y0138903D01*
X0448333Y0137305D02*
X0448333Y0137305D01*
X0445089Y0137305D02*
X0432967Y0137305D01*
X0432967Y0138903D02*
X0444133Y0138903D01*
X0444133Y0140502D02*
X0432967Y0140502D01*
X0432967Y0142100D02*
X0444494Y0142100D01*
X0446092Y0143699D02*
X0432967Y0143699D01*
X0416700Y0143699D02*
X0411433Y0143699D01*
X0411433Y0145297D02*
X0416700Y0145297D01*
X0416700Y0146896D02*
X0411433Y0146896D01*
X0411433Y0148494D02*
X0416700Y0148494D01*
X0416700Y0150093D02*
X0411433Y0150093D01*
X0411433Y0151691D02*
X0416700Y0151691D01*
X0417209Y0153290D02*
X0411433Y0153290D01*
X0411433Y0154888D02*
X0422633Y0154888D01*
X0422780Y0156487D02*
X0411433Y0156487D01*
X0411433Y0158085D02*
X0423442Y0158085D01*
X0422755Y0159684D02*
X0411433Y0159684D01*
X0411433Y0161282D02*
X0421157Y0161282D01*
X0419558Y0162881D02*
X0411433Y0162881D01*
X0411433Y0164479D02*
X0418451Y0164479D01*
X0418433Y0166078D02*
X0411433Y0166078D01*
X0411433Y0167676D02*
X0418433Y0167676D01*
X0418433Y0169275D02*
X0411433Y0169275D01*
X0411433Y0170873D02*
X0418433Y0170873D01*
X0418433Y0172472D02*
X0411433Y0172472D01*
X0411433Y0174070D02*
X0418433Y0174070D01*
X0418433Y0175669D02*
X0411433Y0175669D01*
X0411433Y0177268D02*
X0418433Y0177268D01*
X0418433Y0178866D02*
X0411433Y0178866D01*
X0411433Y0180465D02*
X0418433Y0180465D01*
X0418433Y0182063D02*
X0411433Y0182063D01*
X0411433Y0183662D02*
X0418433Y0183662D01*
X0418433Y0185260D02*
X0411433Y0185260D01*
X0411433Y0186859D02*
X0418433Y0186859D01*
X0418433Y0188457D02*
X0411433Y0188457D01*
X0411433Y0190056D02*
X0418433Y0190056D01*
X0418433Y0191654D02*
X0411433Y0191654D01*
X0411433Y0193253D02*
X0418433Y0193253D01*
X0418433Y0194851D02*
X0411433Y0194851D01*
X0411433Y0196450D02*
X0418433Y0196450D01*
X0418433Y0198048D02*
X0411433Y0198048D01*
X0411433Y0199647D02*
X0418433Y0199647D01*
X0418433Y0201245D02*
X0411433Y0201245D01*
X0411433Y0202844D02*
X0418433Y0202844D01*
X0418781Y0204442D02*
X0411433Y0204442D01*
X0411433Y0206041D02*
X0422633Y0206041D01*
X0423257Y0207639D02*
X0411433Y0207639D01*
X0411433Y0209238D02*
X0424510Y0209238D01*
X0424436Y0210836D02*
X0411433Y0210836D01*
X0411433Y0212435D02*
X0423226Y0212435D01*
X0422633Y0214033D02*
X0411433Y0214033D01*
X0411433Y0215632D02*
X0422633Y0215632D01*
X0423088Y0217230D02*
X0411433Y0217230D01*
X0411433Y0218829D02*
X0424101Y0218829D01*
X0424845Y0220427D02*
X0411433Y0220427D01*
X0411433Y0222026D02*
X0423396Y0222026D01*
X0422734Y0223624D02*
X0411433Y0223624D01*
X0411433Y0225223D02*
X0422633Y0225223D01*
X0422918Y0226821D02*
X0411433Y0226821D01*
X0411433Y0228420D02*
X0423692Y0228420D01*
X0425465Y0230018D02*
X0411433Y0230018D01*
X0411433Y0231617D02*
X0423655Y0231617D01*
X0422903Y0233215D02*
X0411433Y0233215D01*
X0411433Y0234814D02*
X0422633Y0234814D01*
X0422749Y0236412D02*
X0411433Y0236412D01*
X0411433Y0238011D02*
X0423411Y0238011D01*
X0424882Y0239609D02*
X0411433Y0239609D01*
X0411433Y0241208D02*
X0424064Y0241208D01*
X0423072Y0242806D02*
X0411433Y0242806D01*
X0411433Y0244405D02*
X0422633Y0244405D01*
X0422633Y0246003D02*
X0411433Y0246003D01*
X0411433Y0247602D02*
X0423241Y0247602D01*
X0424473Y0249201D02*
X0411433Y0249201D01*
X0411433Y0250799D02*
X0424473Y0250799D01*
X0423242Y0252398D02*
X0411433Y0252398D01*
X0411433Y0253996D02*
X0422633Y0253996D01*
X0422633Y0255595D02*
X0411433Y0255595D01*
X0411433Y0257193D02*
X0423072Y0257193D01*
X0424064Y0258792D02*
X0411433Y0258792D01*
X0411433Y0260390D02*
X0424882Y0260390D01*
X0423411Y0261989D02*
X0411433Y0261989D01*
X0411433Y0263587D02*
X0422749Y0263587D01*
X0422633Y0265186D02*
X0411433Y0265186D01*
X0411433Y0266784D02*
X0422903Y0266784D01*
X0423655Y0268383D02*
X0411433Y0268383D01*
X0411433Y0269981D02*
X0425464Y0269981D01*
X0426971Y0271580D02*
X0411433Y0271580D01*
X0411433Y0273178D02*
X0426700Y0273178D01*
X0426700Y0274777D02*
X0411433Y0274777D01*
X0411433Y0276375D02*
X0426700Y0276375D01*
X0426700Y0277974D02*
X0411433Y0277974D01*
X0411433Y0279572D02*
X0426700Y0279572D01*
X0426700Y0281171D02*
X0411433Y0281171D01*
X0411433Y0282769D02*
X0426700Y0282769D01*
X0426700Y0284368D02*
X0411433Y0284368D01*
X0411433Y0285966D02*
X0426700Y0285966D01*
X0426700Y0287565D02*
X0411433Y0287565D01*
X0411433Y0289163D02*
X0426700Y0289163D01*
X0426700Y0290762D02*
X0411433Y0290762D01*
X0411433Y0292360D02*
X0426015Y0292360D01*
X0425353Y0293959D02*
X0411433Y0293959D01*
X0411433Y0295557D02*
X0425333Y0295557D01*
X0425814Y0297156D02*
X0411433Y0297156D01*
X0411433Y0298754D02*
X0427017Y0298754D01*
X0427818Y0300895D02*
X0428491Y0300552D01*
X0429209Y0300318D01*
X0429956Y0300200D01*
X0433133Y0300200D01*
X0433133Y0304800D01*
X0425533Y0304800D01*
X0425533Y0304622D01*
X0425652Y0303876D01*
X0425885Y0303157D01*
X0426228Y0302484D01*
X0426672Y0301873D01*
X0427206Y0301339D01*
X0427818Y0300895D01*
X0429103Y0300353D02*
X0411433Y0300353D01*
X0411433Y0301951D02*
X0426615Y0301951D01*
X0425757Y0303550D02*
X0411433Y0303550D01*
X0411433Y0305148D02*
X0433133Y0305148D01*
X0433133Y0305200D02*
X0433133Y0304800D01*
X0433533Y0304800D01*
X0433533Y0300200D01*
X0436711Y0300200D01*
X0437457Y0300318D01*
X0438176Y0300552D01*
X0438849Y0300895D01*
X0439460Y0301339D01*
X0439995Y0301873D01*
X0440439Y0302484D01*
X0440782Y0303157D01*
X0441015Y0303876D01*
X0441133Y0304622D01*
X0441133Y0304800D01*
X0433533Y0304800D01*
X0433533Y0305200D01*
X0433133Y0305200D01*
X0425533Y0305200D01*
X0425533Y0305378D01*
X0425652Y0306124D01*
X0425885Y0306843D01*
X0426228Y0307516D01*
X0426672Y0308127D01*
X0427206Y0308661D01*
X0427818Y0309105D01*
X0428491Y0309448D01*
X0429209Y0309682D01*
X0429956Y0309800D01*
X0433133Y0309800D01*
X0433133Y0305200D01*
X0433533Y0305200D02*
X0433533Y0309800D01*
X0436711Y0309800D01*
X0437457Y0309682D01*
X0438176Y0309448D01*
X0438849Y0309105D01*
X0439460Y0308661D01*
X0439995Y0308127D01*
X0440439Y0307516D01*
X0440782Y0306843D01*
X0441015Y0306124D01*
X0441133Y0305378D01*
X0441133Y0305200D01*
X0433533Y0305200D01*
X0433533Y0305148D02*
X0473283Y0305148D01*
X0473283Y0305000D02*
X0478333Y0305000D01*
X0478333Y0305000D01*
X0473283Y0305000D01*
X0473495Y0303550D02*
X0440909Y0303550D01*
X0440051Y0301951D02*
X0474306Y0301951D01*
X0473601Y0300353D02*
X0476330Y0300353D01*
X0480336Y0300353D02*
X0482792Y0300353D01*
X0482549Y0300109D02*
X0482549Y0300109D01*
X0482361Y0301951D02*
X0626558Y0301951D01*
X0626558Y0300353D02*
X0615305Y0300353D01*
X0614467Y0300700D02*
X0612200Y0300700D01*
X0610105Y0299832D01*
X0608501Y0298229D01*
X0607633Y0296134D01*
X0607633Y0293866D01*
X0608501Y0291771D01*
X0610105Y0290168D01*
X0612200Y0289300D01*
X0614467Y0289300D01*
X0616562Y0290168D01*
X0618166Y0291771D01*
X0619033Y0293866D01*
X0619033Y0296134D01*
X0618166Y0298229D01*
X0616562Y0299832D01*
X0614467Y0300700D01*
X0611362Y0300353D02*
X0585305Y0300353D01*
X0587640Y0298754D02*
X0609027Y0298754D01*
X0608057Y0297156D02*
X0588610Y0297156D01*
X0589033Y0295557D02*
X0607633Y0295557D01*
X0607633Y0293959D02*
X0589033Y0293959D01*
X0588410Y0292360D02*
X0608257Y0292360D01*
X0609510Y0290762D02*
X0587156Y0290762D01*
X0579510Y0290762D02*
X0574033Y0290762D01*
X0574033Y0291134D02*
X0573166Y0293229D01*
X0571562Y0294832D01*
X0569467Y0295700D01*
X0567200Y0295700D01*
X0565105Y0294832D01*
X0563501Y0293229D01*
X0563333Y0292824D01*
X0563166Y0293229D01*
X0561562Y0294832D01*
X0559467Y0295700D01*
X0557200Y0295700D01*
X0555105Y0294832D01*
X0553501Y0293229D01*
X0553417Y0293025D01*
X0533250Y0293025D01*
X0533166Y0293229D01*
X0531562Y0294832D01*
X0529467Y0295700D01*
X0527200Y0295700D01*
X0525105Y0294832D01*
X0523501Y0293229D01*
X0522633Y0291134D01*
X0522633Y0288866D01*
X0523501Y0286771D01*
X0525105Y0285168D01*
X0527200Y0284300D01*
X0529467Y0284300D01*
X0531562Y0285168D01*
X0533166Y0286771D01*
X0533768Y0288225D01*
X0552899Y0288225D01*
X0553501Y0286771D01*
X0555105Y0285168D01*
X0557200Y0284300D01*
X0559467Y0284300D01*
X0561562Y0285168D01*
X0563166Y0286771D01*
X0563333Y0287176D01*
X0563501Y0286771D01*
X0565105Y0285168D01*
X0567200Y0284300D01*
X0569467Y0284300D01*
X0571562Y0285168D01*
X0573166Y0286771D01*
X0574033Y0288866D01*
X0574033Y0291134D01*
X0573525Y0292360D02*
X0578257Y0292360D01*
X0577633Y0293959D02*
X0572436Y0293959D01*
X0569812Y0295557D02*
X0577633Y0295557D01*
X0574033Y0289163D02*
X0626558Y0289163D01*
X0626558Y0287565D02*
X0573494Y0287565D01*
X0572361Y0285966D02*
X0626558Y0285966D01*
X0626558Y0284368D02*
X0569631Y0284368D01*
X0567036Y0284368D02*
X0559631Y0284368D01*
X0557036Y0284368D02*
X0529631Y0284368D01*
X0527036Y0284368D02*
X0519033Y0284368D01*
X0519033Y0283866D02*
X0518166Y0281771D01*
X0516562Y0280168D01*
X0514467Y0279300D01*
X0512200Y0279300D01*
X0510105Y0280168D01*
X0508501Y0281771D01*
X0507633Y0283866D01*
X0507633Y0286134D01*
X0508501Y0288229D01*
X0510105Y0289832D01*
X0512200Y0290700D01*
X0514467Y0290700D01*
X0516562Y0289832D01*
X0518166Y0288229D01*
X0519033Y0286134D01*
X0519033Y0283866D01*
X0518579Y0282769D02*
X0626558Y0282769D01*
X0626558Y0281171D02*
X0517565Y0281171D01*
X0515124Y0279572D02*
X0626558Y0279572D01*
X0626558Y0277974D02*
X0463177Y0277974D01*
X0463583Y0279572D02*
X0481542Y0279572D01*
X0482200Y0279300D02*
X0484467Y0279300D01*
X0486562Y0280168D01*
X0488166Y0281771D01*
X0489033Y0283866D01*
X0489033Y0286134D01*
X0488166Y0288229D01*
X0486562Y0289832D01*
X0484467Y0290700D01*
X0482200Y0290700D01*
X0480105Y0289832D01*
X0478501Y0288229D01*
X0477633Y0286134D01*
X0477633Y0283866D01*
X0478501Y0281771D01*
X0480105Y0280168D01*
X0482200Y0279300D01*
X0485124Y0279572D02*
X0511542Y0279572D01*
X0509102Y0281171D02*
X0487565Y0281171D01*
X0488579Y0282769D02*
X0508088Y0282769D01*
X0507633Y0284368D02*
X0489033Y0284368D01*
X0489033Y0285966D02*
X0507633Y0285966D01*
X0508226Y0287565D02*
X0488441Y0287565D01*
X0487231Y0289163D02*
X0509436Y0289163D01*
X0517231Y0289163D02*
X0522633Y0289163D01*
X0522633Y0290762D02*
X0481520Y0290762D01*
X0482922Y0292360D02*
X0523141Y0292360D01*
X0524231Y0293959D02*
X0483583Y0293959D01*
X0484785Y0295557D02*
X0526855Y0295557D01*
X0529812Y0295557D02*
X0556855Y0295557D01*
X0559812Y0295557D02*
X0566855Y0295557D01*
X0564231Y0293959D02*
X0562436Y0293959D01*
X0562361Y0285966D02*
X0564306Y0285966D01*
X0554306Y0285966D02*
X0532361Y0285966D01*
X0533494Y0287565D02*
X0553172Y0287565D01*
X0554231Y0293959D02*
X0532436Y0293959D01*
X0523172Y0287565D02*
X0518441Y0287565D01*
X0519033Y0285966D02*
X0524306Y0285966D01*
X0550686Y0270525D02*
X0487856Y0270525D01*
X0486974Y0270160D01*
X0470685Y0253871D01*
X0470156Y0254400D01*
X0466511Y0254400D01*
X0463933Y0251823D01*
X0463933Y0248177D01*
X0466511Y0245600D01*
X0470156Y0245600D01*
X0472733Y0248177D01*
X0472733Y0249131D01*
X0489327Y0265725D01*
X0549214Y0265725D01*
X0552977Y0261963D01*
X0552633Y0261134D01*
X0552633Y0258866D01*
X0553241Y0257400D01*
X0551606Y0257400D01*
X0550724Y0257035D01*
X0550049Y0256359D01*
X0543939Y0250250D01*
X0542289Y0250250D01*
X0540359Y0249451D01*
X0538883Y0247974D01*
X0538127Y0246150D01*
X0517877Y0246150D01*
X0526371Y0254643D01*
X0527200Y0254300D01*
X0529467Y0254300D01*
X0531562Y0255168D01*
X0533166Y0256771D01*
X0534033Y0258866D01*
X0534033Y0261134D01*
X0533166Y0263229D01*
X0531562Y0264832D01*
X0529467Y0265700D01*
X0527200Y0265700D01*
X0525105Y0264832D01*
X0523501Y0263229D01*
X0522633Y0261134D01*
X0522633Y0258866D01*
X0522977Y0258037D01*
X0515716Y0250777D01*
X0514694Y0251200D01*
X0513222Y0251200D01*
X0511862Y0250637D01*
X0510822Y0249596D01*
X0510258Y0248236D01*
X0510258Y0246764D01*
X0510513Y0246150D01*
X0508041Y0246150D01*
X0507304Y0246887D01*
X0505944Y0247450D01*
X0504472Y0247450D01*
X0503112Y0246887D01*
X0502072Y0245846D01*
X0501508Y0244486D01*
X0501508Y0243014D01*
X0502072Y0241654D01*
X0503112Y0240613D01*
X0504472Y0240050D01*
X0505944Y0240050D01*
X0507304Y0240613D01*
X0508041Y0241350D01*
X0539559Y0241350D01*
X0540359Y0240549D01*
X0542289Y0239750D01*
X0544378Y0239750D01*
X0546307Y0240549D01*
X0547784Y0242026D01*
X0548333Y0243352D01*
X0548883Y0242026D01*
X0550359Y0240549D01*
X0552289Y0239750D01*
X0553939Y0239750D01*
X0558174Y0235516D01*
X0558849Y0234840D01*
X0559731Y0234475D01*
X0566936Y0234475D01*
X0567818Y0234840D01*
X0572727Y0239750D01*
X0574378Y0239750D01*
X0576307Y0240549D01*
X0577784Y0242026D01*
X0578583Y0243956D01*
X0578583Y0246044D01*
X0577784Y0247974D01*
X0576307Y0249451D01*
X0574378Y0250250D01*
X0572289Y0250250D01*
X0570359Y0249451D01*
X0568883Y0247974D01*
X0568333Y0246648D01*
X0567784Y0247974D01*
X0566307Y0249451D01*
X0564378Y0250250D01*
X0562289Y0250250D01*
X0560359Y0249451D01*
X0558883Y0247974D01*
X0558333Y0246648D01*
X0557784Y0247974D01*
X0556307Y0249451D01*
X0554378Y0250250D01*
X0552289Y0250250D01*
X0550359Y0249451D01*
X0548883Y0247974D01*
X0548333Y0246648D01*
X0547979Y0247502D01*
X0553077Y0252600D01*
X0561311Y0252600D01*
X0562193Y0252965D01*
X0564750Y0255522D01*
X0565105Y0255168D01*
X0567200Y0254300D01*
X0569467Y0254300D01*
X0571562Y0255168D01*
X0573166Y0256771D01*
X0574033Y0258866D01*
X0574033Y0261134D01*
X0573166Y0263229D01*
X0571562Y0264832D01*
X0569467Y0265700D01*
X0567200Y0265700D01*
X0565105Y0264832D01*
X0563501Y0263229D01*
X0563333Y0262824D01*
X0563166Y0263229D01*
X0561562Y0264832D01*
X0559467Y0265700D01*
X0557200Y0265700D01*
X0556371Y0265357D01*
X0552243Y0269484D01*
X0551568Y0270160D01*
X0550686Y0270525D01*
X0551746Y0269981D02*
X0626558Y0269981D01*
X0626558Y0268383D02*
X0553345Y0268383D01*
X0554943Y0266784D02*
X0626558Y0266784D01*
X0626558Y0265186D02*
X0570709Y0265186D01*
X0572807Y0263587D02*
X0626687Y0263587D01*
X0627951Y0261989D02*
X0573679Y0261989D01*
X0574033Y0260390D02*
X0629549Y0260390D01*
X0631148Y0258792D02*
X0574002Y0258792D01*
X0573340Y0257193D02*
X0632746Y0257193D01*
X0634345Y0255595D02*
X0571989Y0255595D01*
X0563223Y0253996D02*
X0635943Y0253996D01*
X0637542Y0252398D02*
X0552875Y0252398D01*
X0551276Y0250799D02*
X0639140Y0250799D01*
X0640739Y0249201D02*
X0576557Y0249201D01*
X0577938Y0247602D02*
X0642337Y0247602D01*
X0643936Y0246003D02*
X0578583Y0246003D01*
X0578583Y0244405D02*
X0645534Y0244405D01*
X0647133Y0242806D02*
X0578107Y0242806D01*
X0576966Y0241208D02*
X0648731Y0241208D01*
X0650330Y0239609D02*
X0572587Y0239609D01*
X0570988Y0238011D02*
X0651928Y0238011D01*
X0653527Y0236412D02*
X0569390Y0236412D01*
X0567754Y0234814D02*
X0655125Y0234814D01*
X0656724Y0233215D02*
X0519762Y0233215D01*
X0521361Y0231617D02*
X0658322Y0231617D01*
X0626558Y0271580D02*
X0443307Y0271580D01*
X0444906Y0273178D02*
X0626558Y0273178D01*
X0626558Y0274777D02*
X0459442Y0274777D01*
X0457225Y0274777D02*
X0446504Y0274777D01*
X0448103Y0276375D02*
X0454533Y0276375D01*
X0453490Y0277974D02*
X0449701Y0277974D01*
X0451300Y0279572D02*
X0453083Y0279572D01*
X0453136Y0281171D02*
X0452898Y0281171D01*
X0449307Y0284368D02*
X0442967Y0284368D01*
X0442967Y0285966D02*
X0450906Y0285966D01*
X0452504Y0287565D02*
X0442967Y0287565D01*
X0442967Y0289163D02*
X0453083Y0289163D01*
X0453083Y0290762D02*
X0442967Y0290762D01*
X0442909Y0292360D02*
X0453628Y0292360D01*
X0454868Y0293959D02*
X0441582Y0293959D01*
X0445410Y0295557D02*
X0471882Y0295557D01*
X0473083Y0293959D02*
X0461799Y0293959D01*
X0463038Y0292360D02*
X0473744Y0292360D01*
X0475147Y0290762D02*
X0463583Y0290762D01*
X0463583Y0289163D02*
X0479436Y0289163D01*
X0478226Y0287565D02*
X0463007Y0287565D01*
X0461724Y0285966D02*
X0477633Y0285966D01*
X0477633Y0284368D02*
X0461390Y0284368D01*
X0462869Y0282769D02*
X0478088Y0282769D01*
X0479102Y0281171D02*
X0463531Y0281171D01*
X0462133Y0276375D02*
X0626558Y0276375D01*
X0631358Y0276375D02*
X0685049Y0276375D01*
X0684354Y0277974D02*
X0631358Y0277974D01*
X0631358Y0279572D02*
X0684033Y0279572D01*
X0684033Y0281171D02*
X0631358Y0281171D01*
X0631358Y0282769D02*
X0684661Y0282769D01*
X0685792Y0284368D02*
X0631358Y0284368D01*
X0626558Y0290762D02*
X0617156Y0290762D01*
X0618410Y0292360D02*
X0626558Y0292360D01*
X0626558Y0293959D02*
X0619033Y0293959D01*
X0619033Y0295557D02*
X0626558Y0295557D01*
X0626558Y0297156D02*
X0618610Y0297156D01*
X0617640Y0298754D02*
X0626558Y0298754D01*
X0626558Y0303550D02*
X0483172Y0303550D01*
X0483383Y0305000D02*
X0478333Y0305000D01*
X0478333Y0310050D01*
X0478333Y0305000D01*
X0478333Y0305000D01*
X0483383Y0305000D01*
X0483383Y0305148D02*
X0626558Y0305148D01*
X0626558Y0306747D02*
X0483076Y0306747D01*
X0482130Y0308345D02*
X0626558Y0308345D01*
X0626558Y0309944D02*
X0504846Y0309944D01*
X0507300Y0311542D02*
X0626558Y0311542D01*
X0604217Y0316338D02*
X0602732Y0316338D01*
X0603371Y0322732D02*
X0603553Y0322732D01*
X0604937Y0324331D02*
X0602064Y0324331D01*
X0576139Y0314739D02*
X0570528Y0314739D01*
X0572732Y0316338D02*
X0573934Y0316338D01*
X0566139Y0314739D02*
X0560528Y0314739D01*
X0562732Y0316338D02*
X0563934Y0316338D01*
X0556139Y0314739D02*
X0550528Y0314739D01*
X0552732Y0316338D02*
X0553934Y0316338D01*
X0546139Y0314739D02*
X0540528Y0314739D01*
X0542732Y0316338D02*
X0543934Y0316338D01*
X0536139Y0314739D02*
X0530528Y0314739D01*
X0532732Y0316338D02*
X0533934Y0316338D01*
X0501821Y0309944D02*
X0494846Y0309944D01*
X0497300Y0311542D02*
X0499366Y0311542D01*
X0498421Y0313141D02*
X0498246Y0313141D01*
X0498253Y0317937D02*
X0497800Y0317937D01*
X0496654Y0319535D02*
X0496104Y0319535D01*
X0490563Y0319535D02*
X0470556Y0319535D01*
X0470272Y0319680D02*
X0469516Y0319926D01*
X0468731Y0320050D01*
X0468333Y0320050D01*
X0468333Y0315000D01*
X0468333Y0315000D01*
X0468333Y0315000D01*
X0468333Y0309950D01*
X0468731Y0309950D01*
X0469516Y0310074D01*
X0470272Y0310320D01*
X0470980Y0310681D01*
X0471623Y0311148D01*
X0472185Y0311710D01*
X0472652Y0312353D01*
X0473013Y0313061D01*
X0473259Y0313817D01*
X0473383Y0314603D01*
X0473383Y0315000D01*
X0473383Y0315397D01*
X0473259Y0316183D01*
X0473013Y0316939D01*
X0472652Y0317647D01*
X0472185Y0318290D01*
X0471623Y0318852D01*
X0470980Y0319319D01*
X0470272Y0319680D01*
X0468333Y0319535D02*
X0468333Y0319535D01*
X0468333Y0317937D02*
X0468333Y0317937D01*
X0468333Y0316338D02*
X0468333Y0316338D01*
X0468333Y0315000D02*
X0473383Y0315000D01*
X0468333Y0315000D01*
X0468333Y0315000D01*
X0468333Y0314739D02*
X0468333Y0314739D01*
X0468333Y0313141D02*
X0468333Y0313141D01*
X0468333Y0311542D02*
X0468333Y0311542D01*
X0464649Y0311542D02*
X0462300Y0311542D01*
X0463246Y0313141D02*
X0463627Y0313141D01*
X0463414Y0317937D02*
X0464225Y0317937D01*
X0465012Y0319535D02*
X0466110Y0319535D01*
X0472442Y0317937D02*
X0488867Y0317937D01*
X0488205Y0316338D02*
X0473208Y0316338D01*
X0473383Y0314739D02*
X0488083Y0314739D01*
X0488421Y0313141D02*
X0473039Y0313141D01*
X0472018Y0311542D02*
X0489366Y0311542D01*
X0491821Y0309944D02*
X0479400Y0309944D01*
X0478333Y0309944D02*
X0478333Y0309944D01*
X0477266Y0309944D02*
X0459846Y0309944D01*
X0473591Y0306747D02*
X0440813Y0306747D01*
X0439776Y0308345D02*
X0474537Y0308345D01*
X0478333Y0308345D02*
X0478333Y0308345D01*
X0478333Y0306747D02*
X0478333Y0306747D01*
X0478333Y0305148D02*
X0478333Y0305148D01*
X0478333Y0305000D02*
X0478333Y0305000D01*
X0443690Y0300353D02*
X0437564Y0300353D01*
X0433533Y0300353D02*
X0433133Y0300353D01*
X0433133Y0301951D02*
X0433533Y0301951D01*
X0433533Y0303550D02*
X0433133Y0303550D01*
X0433133Y0306747D02*
X0433533Y0306747D01*
X0433533Y0308345D02*
X0433133Y0308345D01*
X0426891Y0308345D02*
X0411433Y0308345D01*
X0411433Y0306747D02*
X0425854Y0306747D01*
X0411433Y0332323D02*
X0705167Y0332323D01*
X0703792Y0284368D02*
X0694875Y0284368D01*
X0696005Y0282769D02*
X0702661Y0282769D01*
X0702033Y0281171D02*
X0696633Y0281171D01*
X0696633Y0279572D02*
X0702033Y0279572D01*
X0702354Y0277974D02*
X0696313Y0277974D01*
X0695618Y0276375D02*
X0703049Y0276375D01*
X0704647Y0274777D02*
X0694020Y0274777D01*
X0686647Y0274777D02*
X0631358Y0274777D01*
X0570109Y0249201D02*
X0566557Y0249201D01*
X0567938Y0247602D02*
X0568729Y0247602D01*
X0560109Y0249201D02*
X0556557Y0249201D01*
X0557938Y0247602D02*
X0558729Y0247602D01*
X0550109Y0249201D02*
X0549678Y0249201D01*
X0548729Y0247602D02*
X0548079Y0247602D01*
X0548107Y0242806D02*
X0548559Y0242806D01*
X0549701Y0241208D02*
X0546966Y0241208D01*
X0539701Y0241208D02*
X0507899Y0241208D01*
X0502518Y0241208D02*
X0478264Y0241208D01*
X0477656Y0240600D02*
X0480233Y0243177D01*
X0480233Y0246823D01*
X0477656Y0249400D01*
X0474011Y0249400D01*
X0471433Y0246823D01*
X0471433Y0243177D01*
X0474011Y0240600D01*
X0477656Y0240600D01*
X0479862Y0242806D02*
X0501594Y0242806D01*
X0501508Y0244405D02*
X0480233Y0244405D01*
X0480233Y0246003D02*
X0502229Y0246003D01*
X0510258Y0247602D02*
X0479454Y0247602D01*
X0477855Y0249201D02*
X0510658Y0249201D01*
X0512254Y0250799D02*
X0474401Y0250799D01*
X0473811Y0249201D02*
X0472803Y0249201D01*
X0472213Y0247602D02*
X0472158Y0247602D01*
X0471433Y0246003D02*
X0470559Y0246003D01*
X0471433Y0244405D02*
X0457322Y0244405D01*
X0455724Y0246003D02*
X0466107Y0246003D01*
X0466594Y0244200D02*
X0464133Y0241740D01*
X0464133Y0240000D01*
X0464133Y0238260D01*
X0466594Y0235800D01*
X0468333Y0235800D01*
X0468333Y0240000D01*
X0468333Y0240000D01*
X0464133Y0240000D01*
X0468333Y0240000D01*
X0468333Y0244200D01*
X0466594Y0244200D01*
X0468333Y0244200D02*
X0468333Y0240000D01*
X0468333Y0240000D01*
X0468333Y0240000D01*
X0468333Y0235800D01*
X0470073Y0235800D01*
X0472533Y0238260D01*
X0472533Y0240000D01*
X0472533Y0241740D01*
X0470073Y0244200D01*
X0468333Y0244200D01*
X0468333Y0242806D02*
X0468333Y0242806D01*
X0468333Y0241208D02*
X0468333Y0241208D01*
X0468333Y0240000D02*
X0472533Y0240000D01*
X0468333Y0240000D01*
X0468333Y0240000D01*
X0468333Y0239609D02*
X0468333Y0239609D01*
X0468333Y0238011D02*
X0468333Y0238011D01*
X0468333Y0236412D02*
X0468333Y0236412D01*
X0465981Y0236412D02*
X0465315Y0236412D01*
X0464383Y0238011D02*
X0463716Y0238011D01*
X0464133Y0239609D02*
X0462118Y0239609D01*
X0460519Y0241208D02*
X0464133Y0241208D01*
X0465200Y0242806D02*
X0458921Y0242806D01*
X0455330Y0239609D02*
X0453583Y0239609D01*
X0453516Y0241208D02*
X0453731Y0241208D01*
X0453192Y0238011D02*
X0456928Y0238011D01*
X0458527Y0236412D02*
X0452170Y0236412D01*
X0450430Y0234814D02*
X0460125Y0234814D01*
X0461724Y0233215D02*
X0452543Y0233215D01*
X0453346Y0231617D02*
X0463322Y0231617D01*
X0453583Y0230018D02*
X0516171Y0230018D01*
X0517769Y0228420D02*
X0453361Y0228420D01*
X0453656Y0226821D02*
X0519368Y0226821D01*
X0520966Y0225223D02*
X0455255Y0225223D01*
X0470685Y0236412D02*
X0557277Y0236412D01*
X0555678Y0238011D02*
X0472284Y0238011D01*
X0472533Y0239609D02*
X0554080Y0239609D01*
X0558913Y0234814D02*
X0517769Y0234814D01*
X0522959Y0230018D02*
X0560554Y0230018D01*
X0558692Y0228420D02*
X0524558Y0228420D01*
X0526156Y0226821D02*
X0557918Y0226821D01*
X0559845Y0220427D02*
X0542155Y0220427D01*
X0540556Y0218829D02*
X0559101Y0218829D01*
X0558088Y0217230D02*
X0538958Y0217230D01*
X0537733Y0215632D02*
X0555571Y0215632D01*
X0540162Y0225223D02*
X0527755Y0225223D01*
X0529353Y0223624D02*
X0538564Y0223624D01*
X0536965Y0222026D02*
X0530952Y0222026D01*
X0532550Y0220427D02*
X0535367Y0220427D01*
X0528959Y0217230D02*
X0527043Y0217230D01*
X0527533Y0216740D02*
X0525073Y0219200D01*
X0523333Y0219200D01*
X0521594Y0219200D01*
X0519133Y0216740D01*
X0519133Y0215000D01*
X0519133Y0213260D01*
X0521594Y0210800D01*
X0523333Y0210800D01*
X0523333Y0215000D01*
X0523333Y0215000D01*
X0519133Y0215000D01*
X0523333Y0215000D01*
X0523333Y0215000D01*
X0523333Y0219200D01*
X0523333Y0215000D01*
X0523333Y0215000D01*
X0523333Y0210800D01*
X0525073Y0210800D01*
X0527533Y0213260D01*
X0527533Y0215000D01*
X0527533Y0216740D01*
X0527533Y0215632D02*
X0528933Y0215632D01*
X0527533Y0215000D02*
X0523333Y0215000D01*
X0523333Y0215000D01*
X0527533Y0215000D01*
X0527533Y0214033D02*
X0528933Y0214033D01*
X0529676Y0212435D02*
X0526708Y0212435D01*
X0525447Y0210836D02*
X0525109Y0210836D01*
X0523333Y0210836D02*
X0523333Y0210836D01*
X0523333Y0212435D02*
X0523333Y0212435D01*
X0523333Y0214033D02*
X0523333Y0214033D01*
X0523333Y0215632D02*
X0523333Y0215632D01*
X0523333Y0217230D02*
X0523333Y0217230D01*
X0523333Y0218829D02*
X0523333Y0218829D01*
X0521222Y0218829D02*
X0491649Y0218829D01*
X0493247Y0217230D02*
X0519624Y0217230D01*
X0519133Y0215632D02*
X0494846Y0215632D01*
X0496444Y0214033D02*
X0519133Y0214033D01*
X0519959Y0212435D02*
X0498043Y0212435D01*
X0499641Y0210836D02*
X0521557Y0210836D01*
X0523933Y0209238D02*
X0501240Y0209238D01*
X0502838Y0207639D02*
X0523933Y0207639D01*
X0523933Y0206041D02*
X0504437Y0206041D01*
X0506035Y0204442D02*
X0525169Y0204442D01*
X0524586Y0199647D02*
X0510831Y0199647D01*
X0512429Y0198048D02*
X0522987Y0198048D01*
X0521389Y0196450D02*
X0514028Y0196450D01*
X0515626Y0194851D02*
X0519790Y0194851D01*
X0518192Y0193253D02*
X0517225Y0193253D01*
X0513634Y0190056D02*
X0481983Y0190056D01*
X0481983Y0191654D02*
X0512035Y0191654D01*
X0510437Y0193253D02*
X0481983Y0193253D01*
X0481983Y0194851D02*
X0508838Y0194851D01*
X0507240Y0196450D02*
X0481983Y0196450D01*
X0481983Y0198048D02*
X0505641Y0198048D01*
X0504043Y0199647D02*
X0481983Y0199647D01*
X0481983Y0201245D02*
X0502444Y0201245D01*
X0500846Y0202844D02*
X0481983Y0202844D01*
X0481983Y0204442D02*
X0499247Y0204442D01*
X0497648Y0206041D02*
X0481983Y0206041D01*
X0481983Y0207639D02*
X0496050Y0207639D01*
X0494451Y0209238D02*
X0481983Y0209238D01*
X0482527Y0210836D02*
X0492853Y0210836D01*
X0491254Y0212435D02*
X0483283Y0212435D01*
X0483212Y0214033D02*
X0489656Y0214033D01*
X0488057Y0215632D02*
X0482323Y0215632D01*
X0483218Y0217230D02*
X0486459Y0217230D01*
X0484860Y0218829D02*
X0483283Y0218829D01*
X0486853Y0223624D02*
X0522565Y0223624D01*
X0524163Y0222026D02*
X0488452Y0222026D01*
X0490050Y0220427D02*
X0525762Y0220427D01*
X0525444Y0218829D02*
X0527360Y0218829D01*
X0531220Y0210836D02*
X0531275Y0210836D01*
X0561020Y0193253D02*
X0561433Y0193253D01*
X0562533Y0191654D02*
X0562957Y0191654D01*
X0580529Y0185260D02*
X0618324Y0185260D01*
X0616726Y0183662D02*
X0582733Y0183662D01*
X0583648Y0182063D02*
X0615127Y0182063D01*
X0613529Y0180465D02*
X0584033Y0180465D01*
X0573296Y0177268D02*
X0521495Y0177268D01*
X0520233Y0175669D02*
X0570608Y0175669D01*
X0569010Y0174070D02*
X0520233Y0174070D01*
X0519528Y0172472D02*
X0567411Y0172472D01*
X0565813Y0170873D02*
X0517929Y0170873D01*
X0508333Y0170873D02*
X0508333Y0170873D01*
X0508333Y0169275D02*
X0508333Y0169275D01*
X0508333Y0167676D02*
X0508333Y0167676D01*
X0508333Y0166078D02*
X0508333Y0166078D01*
X0506316Y0166078D02*
X0480351Y0166078D01*
X0480073Y0165800D02*
X0482533Y0168260D01*
X0482533Y0170000D01*
X0482533Y0171740D01*
X0480073Y0174200D01*
X0478333Y0174200D01*
X0476594Y0174200D01*
X0474133Y0171740D01*
X0474133Y0170000D01*
X0474133Y0168260D01*
X0476594Y0165800D01*
X0478333Y0165800D01*
X0478333Y0170000D01*
X0478333Y0170000D01*
X0474133Y0170000D01*
X0478333Y0170000D01*
X0478333Y0174200D01*
X0478333Y0170000D01*
X0478333Y0170000D01*
X0478333Y0170000D01*
X0478333Y0165800D01*
X0480073Y0165800D01*
X0478333Y0166078D02*
X0478333Y0166078D01*
X0478333Y0167676D02*
X0478333Y0167676D01*
X0478333Y0169275D02*
X0478333Y0169275D01*
X0478333Y0170000D02*
X0478333Y0170000D01*
X0482533Y0170000D01*
X0478333Y0170000D01*
X0478333Y0170873D02*
X0478333Y0170873D01*
X0478333Y0172472D02*
X0478333Y0172472D01*
X0478333Y0174070D02*
X0478333Y0174070D01*
X0476464Y0174070D02*
X0475798Y0174070D01*
X0474866Y0172472D02*
X0474199Y0172472D01*
X0474133Y0170873D02*
X0472601Y0170873D01*
X0474133Y0169275D02*
X0471002Y0169275D01*
X0469404Y0167676D02*
X0474717Y0167676D01*
X0476316Y0166078D02*
X0467805Y0166078D01*
X0466207Y0164479D02*
X0534752Y0164479D01*
X0533357Y0162881D02*
X0433625Y0162881D01*
X0416700Y0142100D02*
X0411433Y0142100D01*
X0411433Y0140502D02*
X0416700Y0140502D01*
X0416700Y0138903D02*
X0411433Y0138903D01*
X0411433Y0137305D02*
X0416700Y0137305D01*
X0416700Y0135706D02*
X0411433Y0135706D01*
X0411433Y0134108D02*
X0416700Y0134108D01*
X0416703Y0132509D02*
X0411433Y0132509D01*
X0411433Y0130911D02*
X0417513Y0130911D01*
X0411433Y0119721D02*
X0444993Y0119721D01*
X0443457Y0118123D02*
X0411433Y0118123D01*
X0411433Y0116524D02*
X0442795Y0116524D01*
X0442633Y0114926D02*
X0411433Y0114926D01*
X0411433Y0113327D02*
X0442857Y0113327D01*
X0443544Y0111729D02*
X0411433Y0111729D01*
X0481949Y0167676D02*
X0504717Y0167676D01*
X0504133Y0169275D02*
X0482533Y0169275D01*
X0482533Y0170873D02*
X0483737Y0170873D01*
X0484011Y0170600D02*
X0487656Y0170600D01*
X0490233Y0173177D01*
X0490233Y0176823D01*
X0487656Y0179400D01*
X0484011Y0179400D01*
X0481433Y0176823D01*
X0481433Y0173177D01*
X0484011Y0170600D01*
X0482139Y0172472D02*
X0481801Y0172472D01*
X0481433Y0174070D02*
X0480203Y0174070D01*
X0480225Y0175669D02*
X0481433Y0175669D01*
X0481823Y0177268D02*
X0481878Y0177268D01*
X0482733Y0178866D02*
X0483477Y0178866D01*
X0482733Y0180465D02*
X0503933Y0180465D01*
X0503933Y0178866D02*
X0488190Y0178866D01*
X0489788Y0177268D02*
X0504843Y0177268D01*
X0506442Y0175669D02*
X0490233Y0175669D01*
X0490233Y0174070D02*
X0506464Y0174070D01*
X0508333Y0174070D02*
X0508333Y0174070D01*
X0508333Y0172472D02*
X0508333Y0172472D01*
X0504866Y0172472D02*
X0489528Y0172472D01*
X0487929Y0170873D02*
X0504133Y0170873D01*
X0504174Y0182063D02*
X0482493Y0182063D01*
X0481983Y0183662D02*
X0505772Y0183662D01*
X0510199Y0185260D02*
X0481983Y0185260D01*
X0481983Y0186859D02*
X0511798Y0186859D01*
X0513396Y0188457D02*
X0481983Y0188457D01*
X0473403Y0241208D02*
X0472533Y0241208D01*
X0471804Y0242806D02*
X0471467Y0242806D01*
X0464509Y0247602D02*
X0454125Y0247602D01*
X0452527Y0249201D02*
X0463933Y0249201D01*
X0463933Y0250799D02*
X0450928Y0250799D01*
X0449330Y0252398D02*
X0464508Y0252398D01*
X0466107Y0253996D02*
X0447731Y0253996D01*
X0446133Y0255595D02*
X0472409Y0255595D01*
X0474007Y0257193D02*
X0444534Y0257193D01*
X0442936Y0258792D02*
X0475606Y0258792D01*
X0477204Y0260390D02*
X0441337Y0260390D01*
X0439739Y0261989D02*
X0478803Y0261989D01*
X0480401Y0263587D02*
X0438858Y0263587D01*
X0438858Y0265186D02*
X0482000Y0265186D01*
X0483598Y0266784D02*
X0438858Y0266784D01*
X0440110Y0268383D02*
X0485197Y0268383D01*
X0486795Y0269981D02*
X0441709Y0269981D01*
X0442967Y0279572D02*
X0444511Y0279572D01*
X0442967Y0281171D02*
X0446110Y0281171D01*
X0447708Y0282769D02*
X0442967Y0282769D01*
X0483993Y0260390D02*
X0522633Y0260390D01*
X0522664Y0258792D02*
X0482394Y0258792D01*
X0480795Y0257193D02*
X0522132Y0257193D01*
X0520534Y0255595D02*
X0479197Y0255595D01*
X0477598Y0253996D02*
X0518935Y0253996D01*
X0517337Y0252398D02*
X0476000Y0252398D01*
X0470810Y0253996D02*
X0470560Y0253996D01*
X0485591Y0261989D02*
X0522987Y0261989D01*
X0523859Y0263587D02*
X0487190Y0263587D01*
X0488788Y0265186D02*
X0525958Y0265186D01*
X0530709Y0265186D02*
X0549754Y0265186D01*
X0551352Y0263587D02*
X0532807Y0263587D01*
X0533679Y0261989D02*
X0552951Y0261989D01*
X0552633Y0260390D02*
X0534033Y0260390D01*
X0534002Y0258792D02*
X0552664Y0258792D01*
X0551106Y0257193D02*
X0533340Y0257193D01*
X0531989Y0255595D02*
X0549284Y0255595D01*
X0547685Y0253996D02*
X0525723Y0253996D01*
X0524125Y0252398D02*
X0546087Y0252398D01*
X0544488Y0250799D02*
X0522526Y0250799D01*
X0520928Y0249201D02*
X0540109Y0249201D01*
X0538729Y0247602D02*
X0519329Y0247602D01*
X0515738Y0250799D02*
X0515662Y0250799D01*
X0560709Y0265186D02*
X0565958Y0265186D01*
X0563859Y0263587D02*
X0562807Y0263587D01*
M02*
