G75*
%MOIN*%
%OFA0B0*%
%FSLAX25Y25*%
%IPPOS*%
%LPD*%
%AMOC8*
5,1,8,0,0,1.08239X$1,22.5*
%
%ADD10C,0.06500*%
%ADD11C,0.07400*%
%ADD12R,0.07400X0.07400*%
%ADD13C,0.06400*%
%ADD14C,0.01000*%
%ADD15C,0.04400*%
%ADD16C,0.01600*%
%ADD17R,0.04362X0.04362*%
D10*
X0418333Y0170000D03*
X0418333Y0180000D03*
X0423333Y0215000D03*
X0433333Y0215000D03*
X0448333Y0250000D03*
X0448333Y0260000D03*
X0513333Y0225000D03*
X0523333Y0225000D03*
X0568333Y0220000D03*
X0568333Y0230000D03*
X0488333Y0310000D03*
X0488333Y0320000D03*
D11*
X0528333Y0320000D03*
X0538333Y0320000D03*
X0548333Y0320000D03*
X0558333Y0320000D03*
X0568333Y0320000D03*
X0578333Y0320000D03*
X0598333Y0320000D03*
X0608333Y0320000D03*
X0618333Y0320000D03*
X0628333Y0320000D03*
X0638333Y0320000D03*
X0648333Y0320000D03*
X0643333Y0245000D03*
X0643333Y0195000D03*
X0628333Y0170000D03*
X0608333Y0150000D03*
X0613333Y0130000D03*
X0623333Y0130000D03*
X0633333Y0130000D03*
X0643333Y0130000D03*
X0653333Y0130000D03*
X0663333Y0130000D03*
X0673333Y0130000D03*
X0683333Y0130000D03*
X0598333Y0130000D03*
X0588333Y0130000D03*
X0578333Y0130000D03*
X0568333Y0130000D03*
X0558333Y0130000D03*
X0548333Y0130000D03*
X0538333Y0130000D03*
X0528333Y0130000D03*
X0558333Y0150000D03*
X0578333Y0170000D03*
X0538333Y0105000D03*
X0488333Y0105000D03*
X0498333Y0060000D03*
X0448333Y0060000D03*
X0548333Y0060000D03*
X0598333Y0060000D03*
X0707833Y0065000D03*
X0708833Y0075000D03*
X0707833Y0085000D03*
X0388333Y0125000D03*
X0388333Y0135000D03*
X0388333Y0145000D03*
X0388333Y0155000D03*
X0388333Y0165000D03*
X0388333Y0175000D03*
X0368333Y0185000D03*
X0368333Y0195000D03*
X0368333Y0205000D03*
X0368333Y0215000D03*
X0368333Y0225000D03*
X0368333Y0235000D03*
D12*
X0708833Y0095000D03*
D13*
X0366533Y0295000D02*
X0360133Y0295000D01*
X0360133Y0305000D02*
X0366533Y0305000D01*
X0366533Y0315000D02*
X0360133Y0315000D01*
D14*
X0363333Y0305000D02*
X0383333Y0325000D01*
X0603333Y0325000D01*
X0608333Y0320000D01*
X0628333Y0320000D02*
X0633333Y0315000D01*
X0678333Y0315000D01*
X0678333Y0125000D01*
X0708333Y0095000D01*
X0708833Y0095000D01*
X0707833Y0085000D02*
X0707708Y0085000D01*
X0673333Y0119375D01*
X0673333Y0130000D01*
X0643333Y0130000D02*
X0638333Y0135000D01*
X0623333Y0135000D01*
X0608333Y0150000D01*
X0600833Y0135000D02*
X0670833Y0065000D01*
X0707833Y0065000D01*
X0600833Y0135000D02*
X0543333Y0135000D01*
X0538333Y0130000D01*
X0558333Y0150000D02*
X0558333Y0175000D01*
X0522708Y0210625D01*
X0508333Y0220000D02*
X0431458Y0220000D01*
X0428333Y0216875D01*
X0428333Y0213125D01*
X0390208Y0175000D01*
X0388333Y0175000D01*
X0388333Y0165000D02*
X0383333Y0165000D01*
X0383333Y0145000D01*
X0388333Y0145000D01*
X0383333Y0145000D02*
X0383333Y0130000D01*
X0388333Y0125000D01*
X0388333Y0135000D02*
X0390208Y0135000D01*
X0469583Y0214375D01*
X0562708Y0214375D01*
X0568333Y0220000D01*
X0513333Y0225000D02*
X0508333Y0220000D01*
X0465833Y0241875D02*
X0448333Y0259375D01*
X0448333Y0260000D01*
X0423333Y0235000D01*
X0368333Y0235000D01*
X0386458Y0233125D02*
X0462083Y0233125D01*
X0518646Y0289688D01*
X0538958Y0269375D01*
X0518646Y0289688D02*
X0488333Y0320000D01*
X0485833Y0301875D02*
X0380833Y0301875D01*
X0380833Y0302500D01*
X0373333Y0295000D01*
X0363333Y0295000D01*
X0485833Y0301875D02*
X0492708Y0295000D01*
X0386458Y0233125D02*
X0368333Y0215000D01*
X0363333Y0210000D02*
X0363333Y0225000D01*
X0368333Y0225000D01*
X0388333Y0215000D02*
X0423333Y0215000D01*
X0433333Y0215000D02*
X0418333Y0200000D01*
X0418333Y0180000D01*
X0403333Y0165000D01*
X0388333Y0165000D01*
X0396458Y0163125D02*
X0411458Y0163125D01*
X0418333Y0170000D01*
X0396458Y0163125D02*
X0388333Y0155000D01*
X0368333Y0185000D02*
X0362708Y0185000D01*
X0362708Y0200000D01*
X0367708Y0205000D01*
X0368333Y0205000D01*
X0363333Y0210000D01*
X0368333Y0195000D02*
X0388333Y0215000D01*
X0452708Y0140625D02*
X0488333Y0105000D01*
D15*
X0452708Y0140625D03*
X0522708Y0210625D03*
X0465833Y0241875D03*
X0538958Y0269375D03*
X0492708Y0295000D03*
X0380833Y0302500D03*
D16*
X0348333Y0047800D02*
X0715533Y0047800D01*
X0715533Y0342200D01*
X0348333Y0342200D01*
X0348333Y0047800D01*
X0348333Y0049387D02*
X0715533Y0049387D01*
X0715533Y0050985D02*
X0348333Y0050985D01*
X0348333Y0052584D02*
X0715533Y0052584D01*
X0715533Y0054182D02*
X0348333Y0054182D01*
X0348333Y0055781D02*
X0444492Y0055781D01*
X0445105Y0055168D02*
X0443501Y0056771D01*
X0443323Y0057200D01*
X0437776Y0057200D01*
X0436747Y0057626D01*
X0435960Y0058414D01*
X0435533Y0059443D01*
X0435533Y0100819D01*
X0435324Y0100819D01*
X0434152Y0101990D01*
X0434152Y0108010D01*
X0435324Y0109181D01*
X0441343Y0109181D01*
X0442514Y0108010D01*
X0442514Y0101990D01*
X0441343Y0100819D01*
X0441133Y0100819D01*
X0441133Y0062800D01*
X0443323Y0062800D01*
X0443501Y0063229D01*
X0445105Y0064832D01*
X0447200Y0065700D01*
X0449467Y0065700D01*
X0451562Y0064832D01*
X0453166Y0063229D01*
X0454033Y0061134D01*
X0454033Y0058866D01*
X0453166Y0056771D01*
X0451562Y0055168D01*
X0449467Y0054300D01*
X0447200Y0054300D01*
X0445105Y0055168D01*
X0452175Y0055781D02*
X0494492Y0055781D01*
X0495105Y0055168D02*
X0493501Y0056771D01*
X0492633Y0058866D01*
X0492633Y0061134D01*
X0493501Y0063229D01*
X0495105Y0064832D01*
X0497200Y0065700D01*
X0499467Y0065700D01*
X0501562Y0064832D01*
X0503166Y0063229D01*
X0503343Y0062800D01*
X0525533Y0062800D01*
X0525533Y0085557D01*
X0525960Y0086586D01*
X0526747Y0087374D01*
X0527776Y0087800D01*
X0575533Y0087800D01*
X0575533Y0124990D01*
X0575105Y0125168D01*
X0573501Y0126771D01*
X0573333Y0127176D01*
X0573166Y0126771D01*
X0571562Y0125168D01*
X0569467Y0124300D01*
X0567200Y0124300D01*
X0565105Y0125168D01*
X0563501Y0126771D01*
X0563333Y0127176D01*
X0563166Y0126771D01*
X0561562Y0125168D01*
X0559467Y0124300D01*
X0557200Y0124300D01*
X0555105Y0125168D01*
X0553501Y0126771D01*
X0553333Y0127176D01*
X0553166Y0126771D01*
X0551562Y0125168D01*
X0549467Y0124300D01*
X0547200Y0124300D01*
X0545105Y0125168D01*
X0543501Y0126771D01*
X0543333Y0127176D01*
X0543166Y0126771D01*
X0541562Y0125168D01*
X0539467Y0124300D01*
X0537200Y0124300D01*
X0535105Y0125168D01*
X0533501Y0126771D01*
X0533333Y0127176D01*
X0533166Y0126771D01*
X0531562Y0125168D01*
X0529467Y0124300D01*
X0527200Y0124300D01*
X0525105Y0125168D01*
X0523501Y0126771D01*
X0522633Y0128866D01*
X0522633Y0131134D01*
X0523501Y0133229D01*
X0525105Y0134832D01*
X0527200Y0135700D01*
X0529467Y0135700D01*
X0531562Y0134832D01*
X0533166Y0133229D01*
X0533333Y0132824D01*
X0533501Y0133229D01*
X0535105Y0134832D01*
X0537200Y0135700D01*
X0539467Y0135700D01*
X0540196Y0135398D01*
X0541214Y0136416D01*
X0541917Y0137119D01*
X0542836Y0137500D01*
X0601331Y0137500D01*
X0602249Y0137119D01*
X0607810Y0131559D01*
X0608501Y0133229D01*
X0610105Y0134832D01*
X0612200Y0135700D01*
X0614467Y0135700D01*
X0616562Y0134832D01*
X0618166Y0133229D01*
X0618333Y0132824D01*
X0618501Y0133229D01*
X0620035Y0134763D01*
X0610196Y0144602D01*
X0609467Y0144300D01*
X0607200Y0144300D01*
X0605105Y0145168D01*
X0603501Y0146771D01*
X0602633Y0148866D01*
X0602633Y0151134D01*
X0603501Y0153229D01*
X0605105Y0154832D01*
X0607200Y0155700D01*
X0609467Y0155700D01*
X0611562Y0154832D01*
X0613166Y0153229D01*
X0614033Y0151134D01*
X0614033Y0148866D01*
X0613731Y0148137D01*
X0624369Y0137500D01*
X0638831Y0137500D01*
X0639749Y0137119D01*
X0641471Y0135398D01*
X0642200Y0135700D01*
X0644467Y0135700D01*
X0646562Y0134832D01*
X0648166Y0133229D01*
X0648333Y0132824D01*
X0648501Y0133229D01*
X0650105Y0134832D01*
X0652200Y0135700D01*
X0654467Y0135700D01*
X0656562Y0134832D01*
X0658166Y0133229D01*
X0658333Y0132824D01*
X0658501Y0133229D01*
X0660105Y0134832D01*
X0662200Y0135700D01*
X0664467Y0135700D01*
X0666562Y0134832D01*
X0668166Y0133229D01*
X0668333Y0132824D01*
X0668501Y0133229D01*
X0670105Y0134832D01*
X0672200Y0135700D01*
X0674467Y0135700D01*
X0675833Y0135134D01*
X0675833Y0312500D01*
X0632836Y0312500D01*
X0631917Y0312881D01*
X0630196Y0314602D01*
X0629467Y0314300D01*
X0627200Y0314300D01*
X0625105Y0315168D01*
X0623501Y0316771D01*
X0623333Y0317176D01*
X0623166Y0316771D01*
X0621562Y0315168D01*
X0619467Y0314300D01*
X0617200Y0314300D01*
X0615105Y0315168D01*
X0613501Y0316771D01*
X0613214Y0317464D01*
X0613037Y0317117D01*
X0612528Y0316417D01*
X0611916Y0315805D01*
X0611216Y0315296D01*
X0610445Y0314903D01*
X0609621Y0314635D01*
X0608766Y0314500D01*
X0608533Y0314500D01*
X0608533Y0319800D01*
X0608133Y0319800D01*
X0608133Y0314500D01*
X0607900Y0314500D01*
X0607045Y0314635D01*
X0606222Y0314903D01*
X0605451Y0315296D01*
X0604750Y0315805D01*
X0604138Y0316417D01*
X0603629Y0317117D01*
X0603453Y0317464D01*
X0603166Y0316771D01*
X0601562Y0315168D01*
X0599467Y0314300D01*
X0597200Y0314300D01*
X0595105Y0315168D01*
X0593501Y0316771D01*
X0592633Y0318866D01*
X0592633Y0321134D01*
X0593501Y0323229D01*
X0595105Y0324832D01*
X0597200Y0325700D01*
X0599467Y0325700D01*
X0601562Y0324832D01*
X0603166Y0323229D01*
X0603453Y0322536D01*
X0603629Y0322883D01*
X0604138Y0323583D01*
X0604750Y0324195D01*
X0605451Y0324704D01*
X0606222Y0325097D01*
X0607045Y0325365D01*
X0607900Y0325500D01*
X0608133Y0325500D01*
X0608133Y0320200D01*
X0608533Y0320200D01*
X0608533Y0325500D01*
X0608766Y0325500D01*
X0609621Y0325365D01*
X0610445Y0325097D01*
X0611216Y0324704D01*
X0611916Y0324195D01*
X0612528Y0323583D01*
X0613037Y0322883D01*
X0613214Y0322536D01*
X0613501Y0323229D01*
X0615105Y0324832D01*
X0617200Y0325700D01*
X0619467Y0325700D01*
X0621562Y0324832D01*
X0623166Y0323229D01*
X0623333Y0322824D01*
X0623501Y0323229D01*
X0625105Y0324832D01*
X0627200Y0325700D01*
X0629467Y0325700D01*
X0631562Y0324832D01*
X0633166Y0323229D01*
X0633333Y0322824D01*
X0633501Y0323229D01*
X0635105Y0324832D01*
X0637200Y0325700D01*
X0639467Y0325700D01*
X0641562Y0324832D01*
X0643166Y0323229D01*
X0643333Y0322824D01*
X0643501Y0323229D01*
X0645105Y0324832D01*
X0647200Y0325700D01*
X0649467Y0325700D01*
X0651562Y0324832D01*
X0653166Y0323229D01*
X0654033Y0321134D01*
X0654033Y0318866D01*
X0653467Y0317500D01*
X0678831Y0317500D01*
X0679749Y0317119D01*
X0680453Y0316416D01*
X0680833Y0315497D01*
X0680833Y0135134D01*
X0682200Y0135700D01*
X0684467Y0135700D01*
X0686562Y0134832D01*
X0688166Y0133229D01*
X0689033Y0131134D01*
X0689033Y0128866D01*
X0688166Y0126771D01*
X0686562Y0125168D01*
X0684467Y0124300D01*
X0682569Y0124300D01*
X0706169Y0100700D01*
X0713362Y0100700D01*
X0714533Y0099528D01*
X0714533Y0090472D01*
X0713362Y0089300D01*
X0711594Y0089300D01*
X0712666Y0088229D01*
X0713533Y0086134D01*
X0713533Y0083866D01*
X0712666Y0081771D01*
X0711118Y0080223D01*
X0712062Y0079832D01*
X0713666Y0078229D01*
X0714533Y0076134D01*
X0714533Y0073866D01*
X0713666Y0071771D01*
X0712062Y0070168D01*
X0711118Y0069777D01*
X0712666Y0068229D01*
X0713533Y0066134D01*
X0713533Y0063866D01*
X0712666Y0061771D01*
X0711062Y0060168D01*
X0708967Y0059300D01*
X0706700Y0059300D01*
X0704605Y0060168D01*
X0703001Y0061771D01*
X0702699Y0062500D01*
X0670336Y0062500D01*
X0669417Y0062881D01*
X0668714Y0063584D01*
X0603857Y0128441D01*
X0603166Y0126771D01*
X0601562Y0125168D01*
X0599467Y0124300D01*
X0597200Y0124300D01*
X0595105Y0125168D01*
X0593501Y0126771D01*
X0593333Y0127176D01*
X0593166Y0126771D01*
X0591562Y0125168D01*
X0591133Y0124990D01*
X0591133Y0077800D01*
X0598890Y0077800D01*
X0599919Y0077374D01*
X0600707Y0076586D01*
X0601133Y0075557D01*
X0601133Y0065010D01*
X0601562Y0064832D01*
X0603166Y0063229D01*
X0604033Y0061134D01*
X0604033Y0058866D01*
X0603166Y0056771D01*
X0601562Y0055168D01*
X0599467Y0054300D01*
X0597200Y0054300D01*
X0595105Y0055168D01*
X0593501Y0056771D01*
X0592633Y0058866D01*
X0592633Y0061134D01*
X0593501Y0063229D01*
X0595105Y0064832D01*
X0595533Y0065010D01*
X0595533Y0072200D01*
X0587776Y0072200D01*
X0586747Y0072626D01*
X0585960Y0073414D01*
X0585533Y0074443D01*
X0585533Y0124990D01*
X0585105Y0125168D01*
X0583501Y0126771D01*
X0583333Y0127176D01*
X0583166Y0126771D01*
X0581562Y0125168D01*
X0581133Y0124990D01*
X0581133Y0084443D01*
X0580707Y0083414D01*
X0579919Y0082626D01*
X0578890Y0082200D01*
X0531133Y0082200D01*
X0531133Y0059443D01*
X0530707Y0058414D01*
X0529919Y0057626D01*
X0528890Y0057200D01*
X0503343Y0057200D01*
X0503166Y0056771D01*
X0501562Y0055168D01*
X0499467Y0054300D01*
X0497200Y0054300D01*
X0495105Y0055168D01*
X0493249Y0057379D02*
X0453417Y0057379D01*
X0454033Y0058978D02*
X0492633Y0058978D01*
X0492633Y0060576D02*
X0454033Y0060576D01*
X0453602Y0062175D02*
X0493064Y0062175D01*
X0494046Y0063773D02*
X0452621Y0063773D01*
X0450260Y0065372D02*
X0496407Y0065372D01*
X0500260Y0065372D02*
X0525533Y0065372D01*
X0525533Y0066970D02*
X0441133Y0066970D01*
X0441133Y0065372D02*
X0446407Y0065372D01*
X0444046Y0063773D02*
X0441133Y0063773D01*
X0438333Y0060000D02*
X0438333Y0105000D01*
X0434152Y0105334D02*
X0348333Y0105334D01*
X0348333Y0103736D02*
X0434152Y0103736D01*
X0434152Y0102137D02*
X0348333Y0102137D01*
X0348333Y0100539D02*
X0435533Y0100539D01*
X0435533Y0098940D02*
X0348333Y0098940D01*
X0348333Y0097342D02*
X0435533Y0097342D01*
X0435533Y0095743D02*
X0348333Y0095743D01*
X0348333Y0094145D02*
X0435533Y0094145D01*
X0435533Y0092546D02*
X0348333Y0092546D01*
X0348333Y0090948D02*
X0435533Y0090948D01*
X0435533Y0089349D02*
X0348333Y0089349D01*
X0348333Y0087751D02*
X0435533Y0087751D01*
X0435533Y0086152D02*
X0348333Y0086152D01*
X0348333Y0084554D02*
X0435533Y0084554D01*
X0435533Y0082955D02*
X0348333Y0082955D01*
X0348333Y0081357D02*
X0435533Y0081357D01*
X0435533Y0079758D02*
X0348333Y0079758D01*
X0348333Y0078160D02*
X0435533Y0078160D01*
X0435533Y0076561D02*
X0348333Y0076561D01*
X0348333Y0074963D02*
X0435533Y0074963D01*
X0435533Y0073364D02*
X0348333Y0073364D01*
X0348333Y0071766D02*
X0435533Y0071766D01*
X0435533Y0070167D02*
X0348333Y0070167D01*
X0348333Y0068569D02*
X0435533Y0068569D01*
X0435533Y0066970D02*
X0348333Y0066970D01*
X0348333Y0065372D02*
X0435533Y0065372D01*
X0435533Y0063773D02*
X0348333Y0063773D01*
X0348333Y0062175D02*
X0435533Y0062175D01*
X0435533Y0060576D02*
X0348333Y0060576D01*
X0348333Y0058978D02*
X0435726Y0058978D01*
X0437344Y0057379D02*
X0348333Y0057379D01*
X0438333Y0060000D02*
X0448333Y0060000D01*
X0441133Y0068569D02*
X0525533Y0068569D01*
X0525533Y0070167D02*
X0441133Y0070167D01*
X0441133Y0071766D02*
X0525533Y0071766D01*
X0525533Y0073364D02*
X0441133Y0073364D01*
X0441133Y0074963D02*
X0525533Y0074963D01*
X0525533Y0076561D02*
X0441133Y0076561D01*
X0441133Y0078160D02*
X0525533Y0078160D01*
X0525533Y0079758D02*
X0441133Y0079758D01*
X0441133Y0081357D02*
X0525533Y0081357D01*
X0525533Y0082955D02*
X0441133Y0082955D01*
X0441133Y0084554D02*
X0525533Y0084554D01*
X0525780Y0086152D02*
X0441133Y0086152D01*
X0441133Y0087751D02*
X0527658Y0087751D01*
X0528333Y0085000D02*
X0578333Y0085000D01*
X0578333Y0130000D01*
X0574157Y0126115D02*
X0572509Y0126115D01*
X0569990Y0124517D02*
X0575533Y0124517D01*
X0575533Y0122918D02*
X0473951Y0122918D01*
X0475549Y0121320D02*
X0575533Y0121320D01*
X0575533Y0119721D02*
X0477148Y0119721D01*
X0478746Y0118123D02*
X0575533Y0118123D01*
X0575533Y0116524D02*
X0480345Y0116524D01*
X0481943Y0114926D02*
X0575533Y0114926D01*
X0575533Y0113327D02*
X0483542Y0113327D01*
X0485140Y0111729D02*
X0575533Y0111729D01*
X0575533Y0110130D02*
X0540843Y0110130D01*
X0541562Y0109832D02*
X0539467Y0110700D01*
X0537200Y0110700D01*
X0535105Y0109832D01*
X0533501Y0108229D01*
X0532633Y0106134D01*
X0532633Y0103866D01*
X0533501Y0101771D01*
X0535105Y0100168D01*
X0537200Y0099300D01*
X0539467Y0099300D01*
X0541562Y0100168D01*
X0543166Y0101771D01*
X0544033Y0103866D01*
X0544033Y0106134D01*
X0543166Y0108229D01*
X0541562Y0109832D01*
X0542863Y0108532D02*
X0575533Y0108532D01*
X0575533Y0106933D02*
X0543702Y0106933D01*
X0544033Y0105334D02*
X0575533Y0105334D01*
X0575533Y0103736D02*
X0543979Y0103736D01*
X0543317Y0102137D02*
X0575533Y0102137D01*
X0575533Y0100539D02*
X0541933Y0100539D01*
X0534733Y0100539D02*
X0491933Y0100539D01*
X0491562Y0100168D02*
X0493166Y0101771D01*
X0494033Y0103866D01*
X0494033Y0106134D01*
X0493166Y0108229D01*
X0491562Y0109832D01*
X0489467Y0110700D01*
X0487200Y0110700D01*
X0486471Y0110398D01*
X0456908Y0139961D01*
X0456908Y0141460D01*
X0456269Y0143004D01*
X0455087Y0144186D01*
X0453544Y0144825D01*
X0451873Y0144825D01*
X0450329Y0144186D01*
X0449148Y0143004D01*
X0448508Y0141460D01*
X0448508Y0139790D01*
X0449148Y0138246D01*
X0450329Y0137064D01*
X0451873Y0136425D01*
X0453373Y0136425D01*
X0482935Y0106863D01*
X0482633Y0106134D01*
X0482633Y0103866D01*
X0483501Y0101771D01*
X0485105Y0100168D01*
X0487200Y0099300D01*
X0489467Y0099300D01*
X0491562Y0100168D01*
X0493317Y0102137D02*
X0533349Y0102137D01*
X0532687Y0103736D02*
X0493979Y0103736D01*
X0494033Y0105334D02*
X0532633Y0105334D01*
X0532964Y0106933D02*
X0493702Y0106933D01*
X0492863Y0108532D02*
X0533804Y0108532D01*
X0535824Y0110130D02*
X0490843Y0110130D01*
X0482865Y0106933D02*
X0442514Y0106933D01*
X0442514Y0105334D02*
X0482633Y0105334D01*
X0482687Y0103736D02*
X0442514Y0103736D01*
X0442514Y0102137D02*
X0483349Y0102137D01*
X0484733Y0100539D02*
X0441133Y0100539D01*
X0441133Y0098940D02*
X0575533Y0098940D01*
X0575533Y0097342D02*
X0441133Y0097342D01*
X0441133Y0095743D02*
X0575533Y0095743D01*
X0575533Y0094145D02*
X0441133Y0094145D01*
X0441133Y0092546D02*
X0575533Y0092546D01*
X0575533Y0090948D02*
X0441133Y0090948D01*
X0441133Y0089349D02*
X0575533Y0089349D01*
X0581133Y0089349D02*
X0585533Y0089349D01*
X0585533Y0087751D02*
X0581133Y0087751D01*
X0581133Y0086152D02*
X0585533Y0086152D01*
X0585533Y0084554D02*
X0581133Y0084554D01*
X0580248Y0082955D02*
X0585533Y0082955D01*
X0585533Y0081357D02*
X0531133Y0081357D01*
X0531133Y0079758D02*
X0585533Y0079758D01*
X0585533Y0078160D02*
X0531133Y0078160D01*
X0531133Y0076561D02*
X0585533Y0076561D01*
X0585533Y0074963D02*
X0531133Y0074963D01*
X0531133Y0073364D02*
X0586009Y0073364D01*
X0588333Y0075000D02*
X0598333Y0075000D01*
X0598333Y0060000D01*
X0593064Y0062175D02*
X0553602Y0062175D01*
X0554033Y0061134D02*
X0553166Y0063229D01*
X0551562Y0064832D01*
X0549467Y0065700D01*
X0547200Y0065700D01*
X0545105Y0064832D01*
X0543501Y0063229D01*
X0542633Y0061134D01*
X0542633Y0058866D01*
X0543501Y0056771D01*
X0545105Y0055168D01*
X0547200Y0054300D01*
X0549467Y0054300D01*
X0551562Y0055168D01*
X0553166Y0056771D01*
X0554033Y0058866D01*
X0554033Y0061134D01*
X0554033Y0060576D02*
X0592633Y0060576D01*
X0592633Y0058978D02*
X0554033Y0058978D01*
X0553417Y0057379D02*
X0593249Y0057379D01*
X0594492Y0055781D02*
X0552175Y0055781D01*
X0544492Y0055781D02*
X0502175Y0055781D01*
X0498333Y0060000D02*
X0528333Y0060000D01*
X0528333Y0085000D01*
X0531133Y0071766D02*
X0595533Y0071766D01*
X0595533Y0070167D02*
X0531133Y0070167D01*
X0531133Y0068569D02*
X0595533Y0068569D01*
X0595533Y0066970D02*
X0531133Y0066970D01*
X0531133Y0065372D02*
X0546407Y0065372D01*
X0544046Y0063773D02*
X0531133Y0063773D01*
X0531133Y0062175D02*
X0543064Y0062175D01*
X0542633Y0060576D02*
X0531133Y0060576D01*
X0530941Y0058978D02*
X0542633Y0058978D01*
X0543249Y0057379D02*
X0529323Y0057379D01*
X0525533Y0063773D02*
X0502621Y0063773D01*
X0550260Y0065372D02*
X0595533Y0065372D01*
X0594046Y0063773D02*
X0552621Y0063773D01*
X0588333Y0075000D02*
X0588333Y0130000D01*
X0584157Y0126115D02*
X0582509Y0126115D01*
X0581133Y0124517D02*
X0585533Y0124517D01*
X0585533Y0122918D02*
X0581133Y0122918D01*
X0581133Y0121320D02*
X0585533Y0121320D01*
X0585533Y0119721D02*
X0581133Y0119721D01*
X0581133Y0118123D02*
X0585533Y0118123D01*
X0585533Y0116524D02*
X0581133Y0116524D01*
X0581133Y0114926D02*
X0585533Y0114926D01*
X0585533Y0113327D02*
X0581133Y0113327D01*
X0581133Y0111729D02*
X0585533Y0111729D01*
X0585533Y0110130D02*
X0581133Y0110130D01*
X0581133Y0108532D02*
X0585533Y0108532D01*
X0585533Y0106933D02*
X0581133Y0106933D01*
X0581133Y0105334D02*
X0585533Y0105334D01*
X0585533Y0103736D02*
X0581133Y0103736D01*
X0581133Y0102137D02*
X0585533Y0102137D01*
X0585533Y0100539D02*
X0581133Y0100539D01*
X0581133Y0098940D02*
X0585533Y0098940D01*
X0585533Y0097342D02*
X0581133Y0097342D01*
X0581133Y0095743D02*
X0585533Y0095743D01*
X0585533Y0094145D02*
X0581133Y0094145D01*
X0581133Y0092546D02*
X0585533Y0092546D01*
X0585533Y0090948D02*
X0581133Y0090948D01*
X0591133Y0090948D02*
X0641350Y0090948D01*
X0642948Y0089349D02*
X0591133Y0089349D01*
X0591133Y0087751D02*
X0644547Y0087751D01*
X0646145Y0086152D02*
X0591133Y0086152D01*
X0591133Y0084554D02*
X0647744Y0084554D01*
X0649342Y0082955D02*
X0591133Y0082955D01*
X0591133Y0081357D02*
X0650941Y0081357D01*
X0652539Y0079758D02*
X0591133Y0079758D01*
X0591133Y0078160D02*
X0654138Y0078160D01*
X0655736Y0076561D02*
X0600717Y0076561D01*
X0601133Y0074963D02*
X0657335Y0074963D01*
X0658934Y0073364D02*
X0601133Y0073364D01*
X0601133Y0071766D02*
X0660532Y0071766D01*
X0662131Y0070167D02*
X0601133Y0070167D01*
X0601133Y0068569D02*
X0663729Y0068569D01*
X0665328Y0066970D02*
X0601133Y0066970D01*
X0601133Y0065372D02*
X0666926Y0065372D01*
X0668525Y0063773D02*
X0602621Y0063773D01*
X0603602Y0062175D02*
X0702834Y0062175D01*
X0704196Y0060576D02*
X0604033Y0060576D01*
X0604033Y0058978D02*
X0715533Y0058978D01*
X0715533Y0060576D02*
X0711471Y0060576D01*
X0712833Y0062175D02*
X0715533Y0062175D01*
X0715533Y0063773D02*
X0713495Y0063773D01*
X0713533Y0065372D02*
X0715533Y0065372D01*
X0715533Y0066970D02*
X0713187Y0066970D01*
X0712326Y0068569D02*
X0715533Y0068569D01*
X0715533Y0070167D02*
X0712061Y0070167D01*
X0713660Y0071766D02*
X0715533Y0071766D01*
X0715533Y0073364D02*
X0714325Y0073364D01*
X0714533Y0074963D02*
X0715533Y0074963D01*
X0715533Y0076561D02*
X0714356Y0076561D01*
X0713694Y0078160D02*
X0715533Y0078160D01*
X0715533Y0079758D02*
X0712136Y0079758D01*
X0712251Y0081357D02*
X0715533Y0081357D01*
X0715533Y0082955D02*
X0713156Y0082955D01*
X0713533Y0084554D02*
X0715533Y0084554D01*
X0715533Y0086152D02*
X0713526Y0086152D01*
X0712864Y0087751D02*
X0715533Y0087751D01*
X0715533Y0089349D02*
X0713411Y0089349D01*
X0714533Y0090948D02*
X0715533Y0090948D01*
X0715533Y0092546D02*
X0714533Y0092546D01*
X0714533Y0094145D02*
X0715533Y0094145D01*
X0715533Y0095743D02*
X0714533Y0095743D01*
X0714533Y0097342D02*
X0715533Y0097342D01*
X0715533Y0098940D02*
X0714533Y0098940D01*
X0715533Y0100539D02*
X0713523Y0100539D01*
X0715533Y0102137D02*
X0704731Y0102137D01*
X0703133Y0103736D02*
X0715533Y0103736D01*
X0715533Y0105334D02*
X0701534Y0105334D01*
X0699936Y0106933D02*
X0715533Y0106933D01*
X0715533Y0108532D02*
X0698337Y0108532D01*
X0696739Y0110130D02*
X0715533Y0110130D01*
X0715533Y0111729D02*
X0695140Y0111729D01*
X0693542Y0113327D02*
X0715533Y0113327D01*
X0715533Y0114926D02*
X0691943Y0114926D01*
X0690345Y0116524D02*
X0715533Y0116524D01*
X0715533Y0118123D02*
X0688746Y0118123D01*
X0687148Y0119721D02*
X0715533Y0119721D01*
X0715533Y0121320D02*
X0685549Y0121320D01*
X0683951Y0122918D02*
X0715533Y0122918D01*
X0715533Y0124517D02*
X0684990Y0124517D01*
X0687509Y0126115D02*
X0715533Y0126115D01*
X0715533Y0127714D02*
X0688556Y0127714D01*
X0689033Y0129312D02*
X0715533Y0129312D01*
X0715533Y0130911D02*
X0689033Y0130911D01*
X0688464Y0132509D02*
X0715533Y0132509D01*
X0715533Y0134108D02*
X0687287Y0134108D01*
X0680833Y0135706D02*
X0715533Y0135706D01*
X0715533Y0137305D02*
X0680833Y0137305D01*
X0680833Y0138903D02*
X0715533Y0138903D01*
X0715533Y0140502D02*
X0680833Y0140502D01*
X0680833Y0142100D02*
X0715533Y0142100D01*
X0715533Y0143699D02*
X0680833Y0143699D01*
X0680833Y0145297D02*
X0715533Y0145297D01*
X0715533Y0146896D02*
X0680833Y0146896D01*
X0680833Y0148494D02*
X0715533Y0148494D01*
X0715533Y0150093D02*
X0680833Y0150093D01*
X0680833Y0151691D02*
X0715533Y0151691D01*
X0715533Y0153290D02*
X0680833Y0153290D01*
X0680833Y0154888D02*
X0715533Y0154888D01*
X0715533Y0156487D02*
X0680833Y0156487D01*
X0680833Y0158085D02*
X0715533Y0158085D01*
X0715533Y0159684D02*
X0680833Y0159684D01*
X0680833Y0161282D02*
X0715533Y0161282D01*
X0715533Y0162881D02*
X0680833Y0162881D01*
X0680833Y0164479D02*
X0715533Y0164479D01*
X0715533Y0166078D02*
X0680833Y0166078D01*
X0680833Y0167676D02*
X0715533Y0167676D01*
X0715533Y0169275D02*
X0680833Y0169275D01*
X0680833Y0170873D02*
X0715533Y0170873D01*
X0715533Y0172472D02*
X0680833Y0172472D01*
X0680833Y0174070D02*
X0715533Y0174070D01*
X0715533Y0175669D02*
X0680833Y0175669D01*
X0680833Y0177268D02*
X0715533Y0177268D01*
X0715533Y0178866D02*
X0680833Y0178866D01*
X0680833Y0180465D02*
X0715533Y0180465D01*
X0715533Y0182063D02*
X0680833Y0182063D01*
X0680833Y0183662D02*
X0715533Y0183662D01*
X0715533Y0185260D02*
X0680833Y0185260D01*
X0680833Y0186859D02*
X0715533Y0186859D01*
X0715533Y0188457D02*
X0680833Y0188457D01*
X0680833Y0190056D02*
X0715533Y0190056D01*
X0715533Y0191654D02*
X0680833Y0191654D01*
X0680833Y0193253D02*
X0715533Y0193253D01*
X0715533Y0194851D02*
X0680833Y0194851D01*
X0680833Y0196450D02*
X0715533Y0196450D01*
X0715533Y0198048D02*
X0680833Y0198048D01*
X0680833Y0199647D02*
X0715533Y0199647D01*
X0715533Y0201245D02*
X0680833Y0201245D01*
X0680833Y0202844D02*
X0715533Y0202844D01*
X0715533Y0204442D02*
X0680833Y0204442D01*
X0680833Y0206041D02*
X0715533Y0206041D01*
X0715533Y0207639D02*
X0680833Y0207639D01*
X0680833Y0209238D02*
X0715533Y0209238D01*
X0715533Y0210836D02*
X0680833Y0210836D01*
X0680833Y0212435D02*
X0715533Y0212435D01*
X0715533Y0214033D02*
X0680833Y0214033D01*
X0680833Y0215632D02*
X0715533Y0215632D01*
X0715533Y0217230D02*
X0680833Y0217230D01*
X0680833Y0218829D02*
X0715533Y0218829D01*
X0715533Y0220427D02*
X0680833Y0220427D01*
X0680833Y0222026D02*
X0715533Y0222026D01*
X0715533Y0223624D02*
X0680833Y0223624D01*
X0680833Y0225223D02*
X0715533Y0225223D01*
X0715533Y0226821D02*
X0680833Y0226821D01*
X0680833Y0228420D02*
X0715533Y0228420D01*
X0715533Y0230018D02*
X0680833Y0230018D01*
X0680833Y0231617D02*
X0715533Y0231617D01*
X0715533Y0233215D02*
X0680833Y0233215D01*
X0680833Y0234814D02*
X0715533Y0234814D01*
X0715533Y0236412D02*
X0680833Y0236412D01*
X0680833Y0238011D02*
X0715533Y0238011D01*
X0715533Y0239609D02*
X0680833Y0239609D01*
X0680833Y0241208D02*
X0715533Y0241208D01*
X0715533Y0242806D02*
X0680833Y0242806D01*
X0680833Y0244405D02*
X0715533Y0244405D01*
X0715533Y0246003D02*
X0680833Y0246003D01*
X0680833Y0247602D02*
X0715533Y0247602D01*
X0715533Y0249201D02*
X0680833Y0249201D01*
X0680833Y0250799D02*
X0715533Y0250799D01*
X0715533Y0252398D02*
X0680833Y0252398D01*
X0680833Y0253996D02*
X0715533Y0253996D01*
X0715533Y0255595D02*
X0680833Y0255595D01*
X0680833Y0257193D02*
X0715533Y0257193D01*
X0715533Y0258792D02*
X0680833Y0258792D01*
X0680833Y0260390D02*
X0715533Y0260390D01*
X0715533Y0261989D02*
X0680833Y0261989D01*
X0680833Y0263587D02*
X0715533Y0263587D01*
X0715533Y0265186D02*
X0680833Y0265186D01*
X0680833Y0266784D02*
X0715533Y0266784D01*
X0715533Y0268383D02*
X0680833Y0268383D01*
X0680833Y0269981D02*
X0715533Y0269981D01*
X0715533Y0271580D02*
X0680833Y0271580D01*
X0680833Y0273178D02*
X0715533Y0273178D01*
X0715533Y0274777D02*
X0711402Y0274777D01*
X0711732Y0274913D02*
X0713420Y0276601D01*
X0714333Y0278807D01*
X0714333Y0281193D01*
X0713420Y0283399D01*
X0711732Y0285087D01*
X0709527Y0286000D01*
X0707140Y0286000D01*
X0704935Y0285087D01*
X0703247Y0283399D01*
X0702333Y0281193D01*
X0702333Y0278807D01*
X0703247Y0276601D01*
X0704935Y0274913D01*
X0707140Y0274000D01*
X0709527Y0274000D01*
X0711732Y0274913D01*
X0713194Y0276375D02*
X0715533Y0276375D01*
X0715533Y0277974D02*
X0713988Y0277974D01*
X0714333Y0279572D02*
X0715533Y0279572D01*
X0715533Y0281171D02*
X0714333Y0281171D01*
X0713681Y0282769D02*
X0715533Y0282769D01*
X0715533Y0284368D02*
X0712451Y0284368D01*
X0709608Y0285966D02*
X0715533Y0285966D01*
X0715533Y0287565D02*
X0680833Y0287565D01*
X0680833Y0289163D02*
X0715533Y0289163D01*
X0715533Y0290762D02*
X0680833Y0290762D01*
X0680833Y0292360D02*
X0715533Y0292360D01*
X0715533Y0293959D02*
X0680833Y0293959D01*
X0680833Y0295557D02*
X0715533Y0295557D01*
X0715533Y0297156D02*
X0680833Y0297156D01*
X0680833Y0298754D02*
X0715533Y0298754D01*
X0715533Y0300353D02*
X0680833Y0300353D01*
X0680833Y0301951D02*
X0715533Y0301951D01*
X0715533Y0303550D02*
X0680833Y0303550D01*
X0680833Y0305148D02*
X0715533Y0305148D01*
X0715533Y0306747D02*
X0680833Y0306747D01*
X0680833Y0308345D02*
X0715533Y0308345D01*
X0715533Y0309944D02*
X0680833Y0309944D01*
X0680833Y0311542D02*
X0715533Y0311542D01*
X0715533Y0313141D02*
X0680833Y0313141D01*
X0680833Y0314739D02*
X0715533Y0314739D01*
X0715533Y0316338D02*
X0680485Y0316338D01*
X0675833Y0311542D02*
X0500326Y0311542D01*
X0501925Y0309944D02*
X0675833Y0309944D01*
X0675833Y0308345D02*
X0503523Y0308345D01*
X0505122Y0306747D02*
X0675833Y0306747D01*
X0675833Y0305148D02*
X0506720Y0305148D01*
X0508319Y0303550D02*
X0675833Y0303550D01*
X0675833Y0301951D02*
X0509917Y0301951D01*
X0511516Y0300353D02*
X0675833Y0300353D01*
X0675833Y0298754D02*
X0513114Y0298754D01*
X0514713Y0297156D02*
X0675833Y0297156D01*
X0675833Y0295557D02*
X0516312Y0295557D01*
X0517910Y0293959D02*
X0675833Y0293959D01*
X0675833Y0292360D02*
X0519509Y0292360D01*
X0520062Y0291807D02*
X0493387Y0318482D01*
X0493583Y0318956D01*
X0493583Y0321044D01*
X0492784Y0322974D01*
X0491307Y0324451D01*
X0489378Y0325250D01*
X0487289Y0325250D01*
X0485359Y0324451D01*
X0483883Y0322974D01*
X0483083Y0321044D01*
X0483083Y0318956D01*
X0483883Y0317026D01*
X0485359Y0315549D01*
X0486686Y0315000D01*
X0485359Y0314451D01*
X0483883Y0312974D01*
X0483083Y0311044D01*
X0483083Y0308956D01*
X0483883Y0307026D01*
X0485359Y0305549D01*
X0487289Y0304750D01*
X0489378Y0304750D01*
X0491307Y0305549D01*
X0492784Y0307026D01*
X0493583Y0308956D01*
X0493583Y0311044D01*
X0493463Y0311335D01*
X0515110Y0289688D01*
X0469477Y0244054D01*
X0469394Y0244254D01*
X0468212Y0245436D01*
X0466669Y0246075D01*
X0465169Y0246075D01*
X0453204Y0258040D01*
X0453583Y0258956D01*
X0453583Y0261044D01*
X0452784Y0262974D01*
X0451307Y0264451D01*
X0449378Y0265250D01*
X0447289Y0265250D01*
X0445359Y0264451D01*
X0443883Y0262974D01*
X0443083Y0261044D01*
X0443083Y0258956D01*
X0443280Y0258482D01*
X0422298Y0237500D01*
X0373467Y0237500D01*
X0373166Y0238229D01*
X0371562Y0239832D01*
X0369467Y0240700D01*
X0367200Y0240700D01*
X0365105Y0239832D01*
X0363501Y0238229D01*
X0362633Y0236134D01*
X0362633Y0233866D01*
X0363501Y0231771D01*
X0365105Y0230168D01*
X0365510Y0230000D01*
X0365105Y0229832D01*
X0363501Y0228229D01*
X0363199Y0227500D01*
X0362836Y0227500D01*
X0361917Y0227119D01*
X0361214Y0226416D01*
X0360833Y0225497D01*
X0360833Y0209503D01*
X0361214Y0208584D01*
X0361917Y0207881D01*
X0362935Y0206863D01*
X0362633Y0206134D01*
X0362633Y0203866D01*
X0362752Y0203579D01*
X0361292Y0202119D01*
X0360589Y0201416D01*
X0360208Y0200497D01*
X0360208Y0184503D01*
X0360589Y0183584D01*
X0361292Y0182881D01*
X0362211Y0182500D01*
X0363199Y0182500D01*
X0363501Y0181771D01*
X0365105Y0180168D01*
X0367200Y0179300D01*
X0369467Y0179300D01*
X0371562Y0180168D01*
X0373166Y0181771D01*
X0374033Y0183866D01*
X0374033Y0186134D01*
X0373166Y0188229D01*
X0371562Y0189832D01*
X0371157Y0190000D01*
X0371562Y0190168D01*
X0373166Y0191771D01*
X0374033Y0193866D01*
X0374033Y0196134D01*
X0373731Y0196863D01*
X0389369Y0212500D01*
X0418686Y0212500D01*
X0418883Y0212026D01*
X0420359Y0210549D01*
X0421677Y0210004D01*
X0391522Y0179849D01*
X0389467Y0180700D01*
X0387200Y0180700D01*
X0385105Y0179832D01*
X0383501Y0178229D01*
X0382633Y0176134D01*
X0382633Y0173866D01*
X0383501Y0171771D01*
X0385105Y0170168D01*
X0385510Y0170000D01*
X0385105Y0169832D01*
X0383501Y0168229D01*
X0383199Y0167500D01*
X0382836Y0167500D01*
X0381917Y0167119D01*
X0381214Y0166416D01*
X0380833Y0165497D01*
X0380833Y0129503D01*
X0381214Y0128584D01*
X0381917Y0127881D01*
X0382935Y0126863D01*
X0382633Y0126134D01*
X0382633Y0123866D01*
X0383501Y0121771D01*
X0385105Y0120168D01*
X0387200Y0119300D01*
X0389467Y0119300D01*
X0391562Y0120168D01*
X0393166Y0121771D01*
X0394033Y0123866D01*
X0394033Y0126134D01*
X0393166Y0128229D01*
X0391562Y0129832D01*
X0391157Y0130000D01*
X0391562Y0130168D01*
X0393166Y0131771D01*
X0394033Y0133866D01*
X0394033Y0135289D01*
X0470619Y0211875D01*
X0518680Y0211875D01*
X0518508Y0211460D01*
X0518508Y0209790D01*
X0519148Y0208246D01*
X0520329Y0207064D01*
X0521873Y0206425D01*
X0523373Y0206425D01*
X0555833Y0173964D01*
X0555833Y0155134D01*
X0555105Y0154832D01*
X0553501Y0153229D01*
X0552633Y0151134D01*
X0552633Y0148866D01*
X0553501Y0146771D01*
X0555105Y0145168D01*
X0557200Y0144300D01*
X0559467Y0144300D01*
X0561562Y0145168D01*
X0563166Y0146771D01*
X0564033Y0148866D01*
X0564033Y0151134D01*
X0563166Y0153229D01*
X0561562Y0154832D01*
X0560833Y0155134D01*
X0560833Y0175497D01*
X0560453Y0176416D01*
X0559749Y0177119D01*
X0526908Y0209961D01*
X0526908Y0211460D01*
X0526737Y0211875D01*
X0563206Y0211875D01*
X0564124Y0212256D01*
X0564828Y0212959D01*
X0566815Y0214946D01*
X0567289Y0214750D01*
X0569378Y0214750D01*
X0571307Y0215549D01*
X0572784Y0217026D01*
X0573583Y0218956D01*
X0573583Y0221044D01*
X0572784Y0222974D01*
X0571307Y0224451D01*
X0569981Y0225000D01*
X0571307Y0225549D01*
X0572784Y0227026D01*
X0573583Y0228956D01*
X0573583Y0231044D01*
X0572784Y0232974D01*
X0571307Y0234451D01*
X0569378Y0235250D01*
X0567289Y0235250D01*
X0565359Y0234451D01*
X0563883Y0232974D01*
X0563083Y0231044D01*
X0563083Y0228956D01*
X0563883Y0227026D01*
X0565359Y0225549D01*
X0566686Y0225000D01*
X0565359Y0224451D01*
X0563883Y0222974D01*
X0563083Y0221044D01*
X0563083Y0218956D01*
X0563280Y0218482D01*
X0561673Y0216875D01*
X0469086Y0216875D01*
X0468167Y0216494D01*
X0423330Y0171657D01*
X0422784Y0172974D01*
X0421307Y0174451D01*
X0419981Y0175000D01*
X0421307Y0175549D01*
X0422784Y0177026D01*
X0423583Y0178956D01*
X0423583Y0181044D01*
X0422784Y0182974D01*
X0421307Y0184451D01*
X0420833Y0184647D01*
X0420833Y0198964D01*
X0431815Y0209946D01*
X0432289Y0209750D01*
X0434378Y0209750D01*
X0436307Y0210549D01*
X0437784Y0212026D01*
X0438583Y0213956D01*
X0438583Y0216044D01*
X0437980Y0217500D01*
X0508831Y0217500D01*
X0509749Y0217881D01*
X0510453Y0218584D01*
X0511815Y0219946D01*
X0512289Y0219750D01*
X0514378Y0219750D01*
X0516307Y0220549D01*
X0517784Y0222026D01*
X0518333Y0223352D01*
X0518883Y0222026D01*
X0517784Y0222026D01*
X0518883Y0222026D02*
X0520359Y0220549D01*
X0522289Y0219750D01*
X0524378Y0219750D01*
X0526307Y0220549D01*
X0527784Y0222026D01*
X0528583Y0223956D01*
X0528583Y0226044D01*
X0527784Y0227974D01*
X0526307Y0229451D01*
X0524378Y0230250D01*
X0522289Y0230250D01*
X0520359Y0229451D01*
X0518883Y0227974D01*
X0518333Y0226648D01*
X0517784Y0227974D01*
X0516307Y0229451D01*
X0514378Y0230250D01*
X0512289Y0230250D01*
X0510359Y0229451D01*
X0508883Y0227974D01*
X0508083Y0226044D01*
X0508083Y0223956D01*
X0508280Y0223482D01*
X0507298Y0222500D01*
X0430961Y0222500D01*
X0430042Y0222119D01*
X0426917Y0218994D01*
X0426840Y0218918D01*
X0426307Y0219451D01*
X0424378Y0220250D01*
X0422289Y0220250D01*
X0420359Y0219451D01*
X0418883Y0217974D01*
X0418686Y0217500D01*
X0387836Y0217500D01*
X0386917Y0217119D01*
X0386214Y0216416D01*
X0374033Y0204236D01*
X0374033Y0206134D01*
X0373166Y0208229D01*
X0371562Y0209832D01*
X0371157Y0210000D01*
X0371562Y0210168D01*
X0373166Y0211771D01*
X0374033Y0213866D01*
X0374033Y0216134D01*
X0373731Y0216863D01*
X0387494Y0230625D01*
X0462581Y0230625D01*
X0463499Y0231006D01*
X0518646Y0286152D01*
X0534758Y0270039D01*
X0534758Y0268540D01*
X0535398Y0266996D01*
X0536579Y0265814D01*
X0538123Y0265175D01*
X0539794Y0265175D01*
X0541337Y0265814D01*
X0542519Y0266996D01*
X0543158Y0268540D01*
X0543158Y0270210D01*
X0542519Y0271754D01*
X0541337Y0272936D01*
X0539794Y0273575D01*
X0538294Y0273575D01*
X0520765Y0291104D01*
X0520062Y0291807D01*
X0521107Y0290762D02*
X0675833Y0290762D01*
X0675833Y0289163D02*
X0522706Y0289163D01*
X0524304Y0287565D02*
X0675833Y0287565D01*
X0675833Y0285966D02*
X0525903Y0285966D01*
X0527501Y0284368D02*
X0675833Y0284368D01*
X0675833Y0282769D02*
X0529100Y0282769D01*
X0530698Y0281171D02*
X0675833Y0281171D01*
X0675833Y0279572D02*
X0532297Y0279572D01*
X0533895Y0277974D02*
X0675833Y0277974D01*
X0675833Y0276375D02*
X0535494Y0276375D01*
X0537092Y0274777D02*
X0675833Y0274777D01*
X0675833Y0273178D02*
X0540752Y0273178D01*
X0542591Y0271580D02*
X0675833Y0271580D01*
X0675833Y0269981D02*
X0543158Y0269981D01*
X0543093Y0268383D02*
X0675833Y0268383D01*
X0675833Y0266784D02*
X0542307Y0266784D01*
X0539819Y0265186D02*
X0675833Y0265186D01*
X0675833Y0263587D02*
X0496081Y0263587D01*
X0494482Y0261989D02*
X0675833Y0261989D01*
X0675833Y0260390D02*
X0492884Y0260390D01*
X0491285Y0258792D02*
X0675833Y0258792D01*
X0675833Y0257193D02*
X0489687Y0257193D01*
X0488088Y0255595D02*
X0675833Y0255595D01*
X0675833Y0253996D02*
X0486490Y0253996D01*
X0484891Y0252398D02*
X0675833Y0252398D01*
X0675833Y0250799D02*
X0483293Y0250799D01*
X0481694Y0249201D02*
X0639473Y0249201D01*
X0640105Y0249832D02*
X0638501Y0248229D01*
X0637633Y0246134D01*
X0637633Y0243866D01*
X0638501Y0241771D01*
X0640105Y0240168D01*
X0642200Y0239300D01*
X0644467Y0239300D01*
X0646562Y0240168D01*
X0648166Y0241771D01*
X0649033Y0243866D01*
X0649033Y0246134D01*
X0648166Y0248229D01*
X0646562Y0249832D01*
X0644467Y0250700D01*
X0642200Y0250700D01*
X0640105Y0249832D01*
X0638241Y0247602D02*
X0480096Y0247602D01*
X0478497Y0246003D02*
X0637633Y0246003D01*
X0637633Y0244405D02*
X0476899Y0244405D01*
X0475300Y0242806D02*
X0638072Y0242806D01*
X0639064Y0241208D02*
X0473702Y0241208D01*
X0472103Y0239609D02*
X0641452Y0239609D01*
X0645214Y0239609D02*
X0675833Y0239609D01*
X0675833Y0238011D02*
X0470505Y0238011D01*
X0468906Y0236412D02*
X0675833Y0236412D01*
X0675833Y0234814D02*
X0570430Y0234814D01*
X0572543Y0233215D02*
X0675833Y0233215D01*
X0675833Y0231617D02*
X0573346Y0231617D01*
X0573583Y0230018D02*
X0675833Y0230018D01*
X0675833Y0228420D02*
X0573361Y0228420D01*
X0572579Y0226821D02*
X0675833Y0226821D01*
X0675833Y0225223D02*
X0570519Y0225223D01*
X0572134Y0223624D02*
X0675833Y0223624D01*
X0675833Y0222026D02*
X0573177Y0222026D01*
X0573583Y0220427D02*
X0675833Y0220427D01*
X0675833Y0218829D02*
X0573531Y0218829D01*
X0572869Y0217230D02*
X0675833Y0217230D01*
X0675833Y0215632D02*
X0571390Y0215632D01*
X0565902Y0214033D02*
X0675833Y0214033D01*
X0675833Y0212435D02*
X0564304Y0212435D01*
X0562028Y0217230D02*
X0438092Y0217230D01*
X0438583Y0215632D02*
X0467305Y0215632D01*
X0465706Y0214033D02*
X0438583Y0214033D01*
X0437953Y0212435D02*
X0464108Y0212435D01*
X0462509Y0210836D02*
X0436594Y0210836D01*
X0431107Y0209238D02*
X0460911Y0209238D01*
X0459312Y0207639D02*
X0429508Y0207639D01*
X0427910Y0206041D02*
X0457714Y0206041D01*
X0456115Y0204442D02*
X0426311Y0204442D01*
X0424713Y0202844D02*
X0454516Y0202844D01*
X0452918Y0201245D02*
X0423114Y0201245D01*
X0421516Y0199647D02*
X0451319Y0199647D01*
X0449721Y0198048D02*
X0420833Y0198048D01*
X0420833Y0196450D02*
X0448122Y0196450D01*
X0446524Y0194851D02*
X0420833Y0194851D01*
X0420833Y0193253D02*
X0444925Y0193253D01*
X0443327Y0191654D02*
X0420833Y0191654D01*
X0420833Y0190056D02*
X0441728Y0190056D01*
X0440130Y0188457D02*
X0420833Y0188457D01*
X0420833Y0186859D02*
X0438531Y0186859D01*
X0436933Y0185260D02*
X0420833Y0185260D01*
X0422096Y0183662D02*
X0435334Y0183662D01*
X0433736Y0182063D02*
X0423161Y0182063D01*
X0423583Y0180465D02*
X0432137Y0180465D01*
X0430539Y0178866D02*
X0423546Y0178866D01*
X0422884Y0177268D02*
X0428940Y0177268D01*
X0427342Y0175669D02*
X0421427Y0175669D01*
X0421687Y0174070D02*
X0425743Y0174070D01*
X0424145Y0172472D02*
X0422992Y0172472D01*
X0426420Y0167676D02*
X0555833Y0167676D01*
X0555833Y0166078D02*
X0424822Y0166078D01*
X0423223Y0164479D02*
X0555833Y0164479D01*
X0555833Y0162881D02*
X0421625Y0162881D01*
X0420026Y0161282D02*
X0555833Y0161282D01*
X0555833Y0159684D02*
X0418428Y0159684D01*
X0416829Y0158085D02*
X0555833Y0158085D01*
X0555833Y0156487D02*
X0415231Y0156487D01*
X0413632Y0154888D02*
X0555240Y0154888D01*
X0553562Y0153290D02*
X0412034Y0153290D01*
X0410435Y0151691D02*
X0552864Y0151691D01*
X0552633Y0150093D02*
X0408837Y0150093D01*
X0407238Y0148494D02*
X0552787Y0148494D01*
X0553449Y0146896D02*
X0405640Y0146896D01*
X0404041Y0145297D02*
X0554975Y0145297D01*
X0561692Y0145297D02*
X0604975Y0145297D01*
X0603449Y0146896D02*
X0563217Y0146896D01*
X0563879Y0148494D02*
X0602787Y0148494D01*
X0602633Y0150093D02*
X0564033Y0150093D01*
X0563802Y0151691D02*
X0602864Y0151691D01*
X0603562Y0153290D02*
X0563105Y0153290D01*
X0561427Y0154888D02*
X0605240Y0154888D01*
X0611427Y0154888D02*
X0675833Y0154888D01*
X0675833Y0153290D02*
X0613105Y0153290D01*
X0613802Y0151691D02*
X0675833Y0151691D01*
X0675833Y0150093D02*
X0614033Y0150093D01*
X0613879Y0148494D02*
X0675833Y0148494D01*
X0675833Y0146896D02*
X0614973Y0146896D01*
X0616572Y0145297D02*
X0675833Y0145297D01*
X0675833Y0143699D02*
X0618170Y0143699D01*
X0619769Y0142100D02*
X0675833Y0142100D01*
X0675833Y0140502D02*
X0621367Y0140502D01*
X0622966Y0138903D02*
X0675833Y0138903D01*
X0675833Y0137305D02*
X0639302Y0137305D01*
X0641163Y0135706D02*
X0675833Y0135706D01*
X0669380Y0134108D02*
X0667287Y0134108D01*
X0659380Y0134108D02*
X0657287Y0134108D01*
X0649380Y0134108D02*
X0647287Y0134108D01*
X0619380Y0134108D02*
X0617287Y0134108D01*
X0619092Y0135706D02*
X0603663Y0135706D01*
X0605261Y0134108D02*
X0609380Y0134108D01*
X0608203Y0132509D02*
X0606860Y0132509D01*
X0601802Y0137305D02*
X0617493Y0137305D01*
X0615895Y0138903D02*
X0457966Y0138903D01*
X0456908Y0140502D02*
X0614296Y0140502D01*
X0612698Y0142100D02*
X0456643Y0142100D01*
X0455574Y0143699D02*
X0611099Y0143699D01*
X0604584Y0127714D02*
X0603556Y0127714D01*
X0602509Y0126115D02*
X0606183Y0126115D01*
X0607781Y0124517D02*
X0599990Y0124517D01*
X0596677Y0124517D02*
X0591133Y0124517D01*
X0591133Y0122918D02*
X0609380Y0122918D01*
X0610978Y0121320D02*
X0591133Y0121320D01*
X0591133Y0119721D02*
X0612577Y0119721D01*
X0614175Y0118123D02*
X0591133Y0118123D01*
X0591133Y0116524D02*
X0615774Y0116524D01*
X0617372Y0114926D02*
X0591133Y0114926D01*
X0591133Y0113327D02*
X0618971Y0113327D01*
X0620569Y0111729D02*
X0591133Y0111729D01*
X0591133Y0110130D02*
X0622168Y0110130D01*
X0623766Y0108532D02*
X0591133Y0108532D01*
X0591133Y0106933D02*
X0625365Y0106933D01*
X0626963Y0105334D02*
X0591133Y0105334D01*
X0591133Y0103736D02*
X0628562Y0103736D01*
X0630160Y0102137D02*
X0591133Y0102137D01*
X0591133Y0100539D02*
X0631759Y0100539D01*
X0633357Y0098940D02*
X0591133Y0098940D01*
X0591133Y0097342D02*
X0634956Y0097342D01*
X0636554Y0095743D02*
X0591133Y0095743D01*
X0591133Y0094145D02*
X0638153Y0094145D01*
X0639751Y0092546D02*
X0591133Y0092546D01*
X0566677Y0124517D02*
X0559990Y0124517D01*
X0562509Y0126115D02*
X0564157Y0126115D01*
X0556677Y0124517D02*
X0549990Y0124517D01*
X0552509Y0126115D02*
X0554157Y0126115D01*
X0546677Y0124517D02*
X0539990Y0124517D01*
X0542509Y0126115D02*
X0544157Y0126115D01*
X0536677Y0124517D02*
X0529990Y0124517D01*
X0532509Y0126115D02*
X0534157Y0126115D01*
X0526677Y0124517D02*
X0472352Y0124517D01*
X0470754Y0126115D02*
X0524157Y0126115D01*
X0523111Y0127714D02*
X0469155Y0127714D01*
X0467557Y0129312D02*
X0522633Y0129312D01*
X0522633Y0130911D02*
X0465958Y0130911D01*
X0464360Y0132509D02*
X0523203Y0132509D01*
X0524380Y0134108D02*
X0462761Y0134108D01*
X0461163Y0135706D02*
X0540504Y0135706D01*
X0542365Y0137305D02*
X0459564Y0137305D01*
X0455690Y0134108D02*
X0394033Y0134108D01*
X0394450Y0135706D02*
X0454092Y0135706D01*
X0450089Y0137305D02*
X0396049Y0137305D01*
X0397647Y0138903D02*
X0448875Y0138903D01*
X0448508Y0140502D02*
X0399246Y0140502D01*
X0400844Y0142100D02*
X0448773Y0142100D01*
X0449842Y0143699D02*
X0402443Y0143699D01*
X0393471Y0132509D02*
X0457289Y0132509D01*
X0458887Y0130911D02*
X0392305Y0130911D01*
X0392082Y0129312D02*
X0460486Y0129312D01*
X0462084Y0127714D02*
X0393379Y0127714D01*
X0394033Y0126115D02*
X0463683Y0126115D01*
X0465281Y0124517D02*
X0394033Y0124517D01*
X0393641Y0122918D02*
X0466880Y0122918D01*
X0468478Y0121320D02*
X0392714Y0121320D01*
X0390484Y0119721D02*
X0470077Y0119721D01*
X0471675Y0118123D02*
X0348333Y0118123D01*
X0348333Y0119721D02*
X0386183Y0119721D01*
X0383953Y0121320D02*
X0348333Y0121320D01*
X0348333Y0122918D02*
X0383026Y0122918D01*
X0382633Y0124517D02*
X0348333Y0124517D01*
X0348333Y0126115D02*
X0382633Y0126115D01*
X0382084Y0127714D02*
X0348333Y0127714D01*
X0348333Y0129312D02*
X0380912Y0129312D01*
X0380833Y0130911D02*
X0348333Y0130911D01*
X0348333Y0132509D02*
X0380833Y0132509D01*
X0380833Y0134108D02*
X0348333Y0134108D01*
X0348333Y0135706D02*
X0380833Y0135706D01*
X0380833Y0137305D02*
X0348333Y0137305D01*
X0348333Y0138903D02*
X0380833Y0138903D01*
X0380833Y0140502D02*
X0348333Y0140502D01*
X0348333Y0142100D02*
X0380833Y0142100D01*
X0380833Y0143699D02*
X0348333Y0143699D01*
X0348333Y0145297D02*
X0380833Y0145297D01*
X0380833Y0146896D02*
X0348333Y0146896D01*
X0348333Y0148494D02*
X0380833Y0148494D01*
X0380833Y0150093D02*
X0348333Y0150093D01*
X0348333Y0151691D02*
X0380833Y0151691D01*
X0380833Y0153290D02*
X0348333Y0153290D01*
X0348333Y0154888D02*
X0380833Y0154888D01*
X0380833Y0156487D02*
X0348333Y0156487D01*
X0348333Y0158085D02*
X0380833Y0158085D01*
X0380833Y0159684D02*
X0348333Y0159684D01*
X0348333Y0161282D02*
X0380833Y0161282D01*
X0380833Y0162881D02*
X0348333Y0162881D01*
X0348333Y0164479D02*
X0380833Y0164479D01*
X0381074Y0166078D02*
X0348333Y0166078D01*
X0348333Y0167676D02*
X0383272Y0167676D01*
X0384547Y0169275D02*
X0348333Y0169275D01*
X0348333Y0170873D02*
X0384399Y0170873D01*
X0383211Y0172472D02*
X0348333Y0172472D01*
X0348333Y0174070D02*
X0382633Y0174070D01*
X0382633Y0175669D02*
X0348333Y0175669D01*
X0348333Y0177268D02*
X0383103Y0177268D01*
X0384138Y0178866D02*
X0348333Y0178866D01*
X0348333Y0180465D02*
X0364808Y0180465D01*
X0363380Y0182063D02*
X0348333Y0182063D01*
X0348333Y0183662D02*
X0360557Y0183662D01*
X0360208Y0185260D02*
X0348333Y0185260D01*
X0348333Y0186859D02*
X0360208Y0186859D01*
X0360208Y0188457D02*
X0348333Y0188457D01*
X0348333Y0190056D02*
X0360208Y0190056D01*
X0360208Y0191654D02*
X0348333Y0191654D01*
X0348333Y0193253D02*
X0360208Y0193253D01*
X0360208Y0194851D02*
X0348333Y0194851D01*
X0348333Y0196450D02*
X0360208Y0196450D01*
X0360208Y0198048D02*
X0348333Y0198048D01*
X0348333Y0199647D02*
X0360208Y0199647D01*
X0360518Y0201245D02*
X0348333Y0201245D01*
X0348333Y0202844D02*
X0362016Y0202844D01*
X0362633Y0204442D02*
X0348333Y0204442D01*
X0348333Y0206041D02*
X0362633Y0206041D01*
X0362159Y0207639D02*
X0348333Y0207639D01*
X0348333Y0209238D02*
X0360943Y0209238D01*
X0360833Y0210836D02*
X0348333Y0210836D01*
X0348333Y0212435D02*
X0360833Y0212435D01*
X0360833Y0214033D02*
X0348333Y0214033D01*
X0348333Y0215632D02*
X0360833Y0215632D01*
X0360833Y0217230D02*
X0348333Y0217230D01*
X0348333Y0218829D02*
X0360833Y0218829D01*
X0360833Y0220427D02*
X0348333Y0220427D01*
X0348333Y0222026D02*
X0360833Y0222026D01*
X0360833Y0223624D02*
X0348333Y0223624D01*
X0348333Y0225223D02*
X0360833Y0225223D01*
X0361619Y0226821D02*
X0348333Y0226821D01*
X0348333Y0228420D02*
X0363692Y0228420D01*
X0365465Y0230018D02*
X0348333Y0230018D01*
X0348333Y0231617D02*
X0363655Y0231617D01*
X0362903Y0233215D02*
X0348333Y0233215D01*
X0348333Y0234814D02*
X0362633Y0234814D01*
X0362749Y0236412D02*
X0348333Y0236412D01*
X0348333Y0238011D02*
X0363411Y0238011D01*
X0364882Y0239609D02*
X0348333Y0239609D01*
X0348333Y0241208D02*
X0426006Y0241208D01*
X0427604Y0242806D02*
X0348333Y0242806D01*
X0348333Y0244405D02*
X0429203Y0244405D01*
X0430801Y0246003D02*
X0348333Y0246003D01*
X0348333Y0247602D02*
X0432400Y0247602D01*
X0433998Y0249201D02*
X0348333Y0249201D01*
X0348333Y0250799D02*
X0435597Y0250799D01*
X0437195Y0252398D02*
X0348333Y0252398D01*
X0348333Y0253996D02*
X0438794Y0253996D01*
X0440392Y0255595D02*
X0348333Y0255595D01*
X0348333Y0257193D02*
X0441991Y0257193D01*
X0443151Y0258792D02*
X0348333Y0258792D01*
X0348333Y0260390D02*
X0443083Y0260390D01*
X0443474Y0261989D02*
X0348333Y0261989D01*
X0348333Y0263587D02*
X0444496Y0263587D01*
X0447134Y0265186D02*
X0348333Y0265186D01*
X0348333Y0266784D02*
X0492207Y0266784D01*
X0490608Y0265186D02*
X0449533Y0265186D01*
X0452171Y0263587D02*
X0489010Y0263587D01*
X0487411Y0261989D02*
X0453192Y0261989D01*
X0453583Y0260390D02*
X0485813Y0260390D01*
X0484214Y0258792D02*
X0453515Y0258792D01*
X0454051Y0257193D02*
X0482616Y0257193D01*
X0481017Y0255595D02*
X0455649Y0255595D01*
X0457248Y0253996D02*
X0479419Y0253996D01*
X0477820Y0252398D02*
X0458846Y0252398D01*
X0460445Y0250799D02*
X0476222Y0250799D01*
X0474623Y0249201D02*
X0462043Y0249201D01*
X0463642Y0247602D02*
X0473025Y0247602D01*
X0471426Y0246003D02*
X0466841Y0246003D01*
X0469243Y0244405D02*
X0469828Y0244405D01*
X0467308Y0234814D02*
X0566236Y0234814D01*
X0564124Y0233215D02*
X0465709Y0233215D01*
X0464111Y0231617D02*
X0563321Y0231617D01*
X0563083Y0230018D02*
X0524937Y0230018D01*
X0527338Y0228420D02*
X0563305Y0228420D01*
X0564087Y0226821D02*
X0528261Y0226821D01*
X0528583Y0225223D02*
X0566147Y0225223D01*
X0564533Y0223624D02*
X0528446Y0223624D01*
X0527784Y0222026D02*
X0563490Y0222026D01*
X0563083Y0220427D02*
X0526013Y0220427D01*
X0520654Y0220427D02*
X0516013Y0220427D01*
X0510698Y0218829D02*
X0563136Y0218829D01*
X0535624Y0201245D02*
X0675833Y0201245D01*
X0675833Y0199647D02*
X0646748Y0199647D01*
X0646562Y0199832D02*
X0644467Y0200700D01*
X0642200Y0200700D01*
X0640105Y0199832D01*
X0638501Y0198229D01*
X0637633Y0196134D01*
X0637633Y0193866D01*
X0638501Y0191771D01*
X0640105Y0190168D01*
X0642200Y0189300D01*
X0644467Y0189300D01*
X0646562Y0190168D01*
X0648166Y0191771D01*
X0649033Y0193866D01*
X0649033Y0196134D01*
X0648166Y0198229D01*
X0646562Y0199832D01*
X0648240Y0198048D02*
X0675833Y0198048D01*
X0675833Y0196450D02*
X0648902Y0196450D01*
X0649033Y0194851D02*
X0675833Y0194851D01*
X0675833Y0193253D02*
X0648779Y0193253D01*
X0648048Y0191654D02*
X0675833Y0191654D01*
X0675833Y0190056D02*
X0646291Y0190056D01*
X0640375Y0190056D02*
X0546813Y0190056D01*
X0545215Y0191654D02*
X0638618Y0191654D01*
X0637887Y0193253D02*
X0543616Y0193253D01*
X0542018Y0194851D02*
X0637633Y0194851D01*
X0637764Y0196450D02*
X0540419Y0196450D01*
X0538821Y0198048D02*
X0638426Y0198048D01*
X0639919Y0199647D02*
X0537222Y0199647D01*
X0534025Y0202844D02*
X0675833Y0202844D01*
X0675833Y0204442D02*
X0532427Y0204442D01*
X0530828Y0206041D02*
X0675833Y0206041D01*
X0675833Y0207639D02*
X0529230Y0207639D01*
X0527631Y0209238D02*
X0675833Y0209238D01*
X0675833Y0210836D02*
X0526908Y0210836D01*
X0523757Y0206041D02*
X0464785Y0206041D01*
X0466383Y0207639D02*
X0519754Y0207639D01*
X0518737Y0209238D02*
X0467982Y0209238D01*
X0469580Y0210836D02*
X0518508Y0210836D01*
X0525356Y0204442D02*
X0463186Y0204442D01*
X0461588Y0202844D02*
X0526954Y0202844D01*
X0528553Y0201245D02*
X0459989Y0201245D01*
X0458391Y0199647D02*
X0530151Y0199647D01*
X0531750Y0198048D02*
X0456792Y0198048D01*
X0455193Y0196450D02*
X0533348Y0196450D01*
X0534947Y0194851D02*
X0453595Y0194851D01*
X0451996Y0193253D02*
X0536545Y0193253D01*
X0538144Y0191654D02*
X0450398Y0191654D01*
X0448799Y0190056D02*
X0539742Y0190056D01*
X0541341Y0188457D02*
X0447201Y0188457D01*
X0445602Y0186859D02*
X0542939Y0186859D01*
X0544538Y0185260D02*
X0444004Y0185260D01*
X0442405Y0183662D02*
X0546136Y0183662D01*
X0547735Y0182063D02*
X0440807Y0182063D01*
X0439208Y0180465D02*
X0549333Y0180465D01*
X0550932Y0178866D02*
X0437610Y0178866D01*
X0436011Y0177268D02*
X0552530Y0177268D01*
X0554129Y0175669D02*
X0434413Y0175669D01*
X0432814Y0174070D02*
X0555727Y0174070D01*
X0555833Y0172472D02*
X0431216Y0172472D01*
X0429617Y0170873D02*
X0555833Y0170873D01*
X0555833Y0169275D02*
X0428019Y0169275D01*
X0395334Y0183662D02*
X0373949Y0183662D01*
X0374033Y0185260D02*
X0396933Y0185260D01*
X0398531Y0186859D02*
X0373733Y0186859D01*
X0372937Y0188457D02*
X0400130Y0188457D01*
X0401728Y0190056D02*
X0371291Y0190056D01*
X0373048Y0191654D02*
X0403327Y0191654D01*
X0404925Y0193253D02*
X0373779Y0193253D01*
X0374033Y0194851D02*
X0406524Y0194851D01*
X0408122Y0196450D02*
X0373902Y0196450D01*
X0374917Y0198048D02*
X0409721Y0198048D01*
X0411319Y0199647D02*
X0376516Y0199647D01*
X0378114Y0201245D02*
X0412918Y0201245D01*
X0414516Y0202844D02*
X0379713Y0202844D01*
X0381311Y0204442D02*
X0416115Y0204442D01*
X0417714Y0206041D02*
X0382910Y0206041D01*
X0384508Y0207639D02*
X0419312Y0207639D01*
X0420911Y0209238D02*
X0386107Y0209238D01*
X0387705Y0210836D02*
X0420072Y0210836D01*
X0418713Y0212435D02*
X0389304Y0212435D01*
X0385430Y0215632D02*
X0374033Y0215632D01*
X0374033Y0214033D02*
X0383831Y0214033D01*
X0382233Y0212435D02*
X0373440Y0212435D01*
X0372231Y0210836D02*
X0380634Y0210836D01*
X0379036Y0209238D02*
X0372157Y0209238D01*
X0373410Y0207639D02*
X0377437Y0207639D01*
X0375839Y0206041D02*
X0374033Y0206041D01*
X0374033Y0204442D02*
X0374240Y0204442D01*
X0374099Y0217230D02*
X0387185Y0217230D01*
X0386214Y0216416D02*
X0386214Y0216416D01*
X0377296Y0220427D02*
X0428350Y0220427D01*
X0429949Y0222026D02*
X0378895Y0222026D01*
X0380493Y0223624D02*
X0508221Y0223624D01*
X0508083Y0225223D02*
X0382092Y0225223D01*
X0383690Y0226821D02*
X0508405Y0226821D01*
X0509329Y0228420D02*
X0385289Y0228420D01*
X0386887Y0230018D02*
X0511730Y0230018D01*
X0514937Y0230018D02*
X0521730Y0230018D01*
X0519329Y0228420D02*
X0517338Y0228420D01*
X0518261Y0226821D02*
X0518405Y0226821D01*
X0538097Y0265186D02*
X0497679Y0265186D01*
X0499278Y0266784D02*
X0535609Y0266784D01*
X0534823Y0268383D02*
X0500877Y0268383D01*
X0502475Y0269981D02*
X0534758Y0269981D01*
X0533218Y0271580D02*
X0504074Y0271580D01*
X0505672Y0273178D02*
X0531620Y0273178D01*
X0530021Y0274777D02*
X0507271Y0274777D01*
X0508869Y0276375D02*
X0528423Y0276375D01*
X0526824Y0277974D02*
X0510468Y0277974D01*
X0512066Y0279572D02*
X0525226Y0279572D01*
X0523627Y0281171D02*
X0513665Y0281171D01*
X0515263Y0282769D02*
X0522029Y0282769D01*
X0520430Y0284368D02*
X0516862Y0284368D01*
X0518460Y0285966D02*
X0518832Y0285966D01*
X0514586Y0289163D02*
X0348333Y0289163D01*
X0348333Y0287565D02*
X0512988Y0287565D01*
X0511389Y0285966D02*
X0348333Y0285966D01*
X0348333Y0284368D02*
X0509791Y0284368D01*
X0508192Y0282769D02*
X0348333Y0282769D01*
X0348333Y0281171D02*
X0506594Y0281171D01*
X0504995Y0279572D02*
X0348333Y0279572D01*
X0348333Y0277974D02*
X0503397Y0277974D01*
X0501798Y0276375D02*
X0348333Y0276375D01*
X0348333Y0274777D02*
X0500200Y0274777D01*
X0498601Y0273178D02*
X0348333Y0273178D01*
X0348333Y0271580D02*
X0497002Y0271580D01*
X0495404Y0269981D02*
X0348333Y0269981D01*
X0348333Y0268383D02*
X0493805Y0268383D01*
X0493544Y0290800D02*
X0495087Y0291439D01*
X0496269Y0292621D01*
X0496908Y0294165D01*
X0496908Y0295835D01*
X0496269Y0297379D01*
X0495087Y0298561D01*
X0493544Y0299200D01*
X0492044Y0299200D01*
X0487953Y0303291D01*
X0487249Y0303994D01*
X0486331Y0304375D01*
X0384603Y0304375D01*
X0384394Y0304879D01*
X0383212Y0306061D01*
X0381669Y0306700D01*
X0379998Y0306700D01*
X0378454Y0306061D01*
X0377273Y0304879D01*
X0376633Y0303335D01*
X0376633Y0301836D01*
X0372298Y0297500D01*
X0371126Y0297500D01*
X0370942Y0297946D01*
X0369479Y0299408D01*
X0367732Y0300132D01*
X0368453Y0300366D01*
X0369154Y0300724D01*
X0369791Y0301186D01*
X0370347Y0301743D01*
X0370810Y0302379D01*
X0371167Y0303081D01*
X0371410Y0303829D01*
X0371533Y0304606D01*
X0371533Y0304800D01*
X0363533Y0304800D01*
X0363533Y0305200D01*
X0371533Y0305200D01*
X0371533Y0305394D01*
X0371410Y0306171D01*
X0371167Y0306919D01*
X0370810Y0307621D01*
X0370347Y0308257D01*
X0369791Y0308814D01*
X0369154Y0309276D01*
X0368453Y0309634D01*
X0367732Y0309868D01*
X0369479Y0310592D01*
X0370942Y0312054D01*
X0371733Y0313966D01*
X0371733Y0316034D01*
X0370942Y0317946D01*
X0369479Y0319408D01*
X0367568Y0320200D01*
X0359099Y0320200D01*
X0357188Y0319408D01*
X0355725Y0317946D01*
X0354933Y0316034D01*
X0354933Y0313966D01*
X0355725Y0312054D01*
X0357188Y0310592D01*
X0358935Y0309868D01*
X0358214Y0309634D01*
X0357513Y0309276D01*
X0356876Y0308814D01*
X0356320Y0308257D01*
X0355857Y0307621D01*
X0355500Y0306919D01*
X0355256Y0306171D01*
X0355133Y0305394D01*
X0355133Y0305200D01*
X0363133Y0305200D01*
X0363133Y0304800D01*
X0355133Y0304800D01*
X0355133Y0304606D01*
X0355256Y0303829D01*
X0355500Y0303081D01*
X0355857Y0302379D01*
X0356320Y0301743D01*
X0356876Y0301186D01*
X0357513Y0300724D01*
X0358214Y0300366D01*
X0358935Y0300132D01*
X0357188Y0299408D01*
X0355725Y0297946D01*
X0354933Y0296034D01*
X0354933Y0293966D01*
X0355725Y0292054D01*
X0357188Y0290592D01*
X0359099Y0289800D01*
X0367568Y0289800D01*
X0369479Y0290592D01*
X0370942Y0292054D01*
X0371126Y0292500D01*
X0373831Y0292500D01*
X0374749Y0292881D01*
X0375453Y0293584D01*
X0380169Y0298300D01*
X0381669Y0298300D01*
X0383212Y0298939D01*
X0383648Y0299375D01*
X0484798Y0299375D01*
X0488508Y0295664D01*
X0488508Y0294165D01*
X0489148Y0292621D01*
X0490329Y0291439D01*
X0491873Y0290800D01*
X0493544Y0290800D01*
X0496008Y0292360D02*
X0512437Y0292360D01*
X0510839Y0293959D02*
X0496823Y0293959D01*
X0496908Y0295557D02*
X0509240Y0295557D01*
X0507642Y0297156D02*
X0496361Y0297156D01*
X0494620Y0298754D02*
X0506043Y0298754D01*
X0504445Y0300353D02*
X0490891Y0300353D01*
X0489292Y0301951D02*
X0502846Y0301951D01*
X0501248Y0303550D02*
X0487694Y0303550D01*
X0486327Y0305148D02*
X0384125Y0305148D01*
X0382766Y0298754D02*
X0485418Y0298754D01*
X0487017Y0297156D02*
X0379025Y0297156D01*
X0377426Y0295557D02*
X0488508Y0295557D01*
X0488594Y0293959D02*
X0375828Y0293959D01*
X0371068Y0292360D02*
X0489408Y0292360D01*
X0490339Y0305148D02*
X0499649Y0305148D01*
X0498051Y0306747D02*
X0492505Y0306747D01*
X0493331Y0308345D02*
X0496452Y0308345D01*
X0494854Y0309944D02*
X0493583Y0309944D01*
X0497129Y0314739D02*
X0526139Y0314739D01*
X0525105Y0315168D02*
X0527200Y0314300D01*
X0529467Y0314300D01*
X0531562Y0315168D01*
X0533166Y0316771D01*
X0533333Y0317176D01*
X0533501Y0316771D01*
X0535105Y0315168D01*
X0537200Y0314300D01*
X0539467Y0314300D01*
X0541562Y0315168D01*
X0543166Y0316771D01*
X0543333Y0317176D01*
X0543501Y0316771D01*
X0545105Y0315168D01*
X0547200Y0314300D01*
X0549467Y0314300D01*
X0551562Y0315168D01*
X0553166Y0316771D01*
X0553333Y0317176D01*
X0553501Y0316771D01*
X0555105Y0315168D01*
X0557200Y0314300D01*
X0559467Y0314300D01*
X0561562Y0315168D01*
X0563166Y0316771D01*
X0563333Y0317176D01*
X0563501Y0316771D01*
X0565105Y0315168D01*
X0567200Y0314300D01*
X0569467Y0314300D01*
X0571562Y0315168D01*
X0573166Y0316771D01*
X0573333Y0317176D01*
X0573501Y0316771D01*
X0575105Y0315168D01*
X0577200Y0314300D01*
X0579467Y0314300D01*
X0581562Y0315168D01*
X0583166Y0316771D01*
X0584033Y0318866D01*
X0584033Y0321134D01*
X0583166Y0323229D01*
X0581562Y0324832D01*
X0579467Y0325700D01*
X0577200Y0325700D01*
X0575105Y0324832D01*
X0573501Y0323229D01*
X0573333Y0322824D01*
X0573166Y0323229D01*
X0571562Y0324832D01*
X0569467Y0325700D01*
X0567200Y0325700D01*
X0565105Y0324832D01*
X0563501Y0323229D01*
X0563333Y0322824D01*
X0563166Y0323229D01*
X0561562Y0324832D01*
X0559467Y0325700D01*
X0557200Y0325700D01*
X0555105Y0324832D01*
X0553501Y0323229D01*
X0553333Y0322824D01*
X0553166Y0323229D01*
X0551562Y0324832D01*
X0549467Y0325700D01*
X0547200Y0325700D01*
X0545105Y0324832D01*
X0543501Y0323229D01*
X0543333Y0322824D01*
X0543166Y0323229D01*
X0541562Y0324832D01*
X0539467Y0325700D01*
X0537200Y0325700D01*
X0535105Y0324832D01*
X0533501Y0323229D01*
X0533333Y0322824D01*
X0533166Y0323229D01*
X0531562Y0324832D01*
X0529467Y0325700D01*
X0527200Y0325700D01*
X0525105Y0324832D01*
X0523501Y0323229D01*
X0522633Y0321134D01*
X0522633Y0318866D01*
X0523501Y0316771D01*
X0525105Y0315168D01*
X0523934Y0316338D02*
X0495531Y0316338D01*
X0493932Y0317937D02*
X0523018Y0317937D01*
X0522633Y0319535D02*
X0493583Y0319535D01*
X0493546Y0321134D02*
X0522633Y0321134D01*
X0523295Y0322732D02*
X0492884Y0322732D01*
X0491427Y0324331D02*
X0524603Y0324331D01*
X0532064Y0324331D02*
X0534603Y0324331D01*
X0542064Y0324331D02*
X0544603Y0324331D01*
X0552064Y0324331D02*
X0554603Y0324331D01*
X0562064Y0324331D02*
X0564603Y0324331D01*
X0572064Y0324331D02*
X0574603Y0324331D01*
X0582064Y0324331D02*
X0594603Y0324331D01*
X0593295Y0322732D02*
X0583371Y0322732D01*
X0584033Y0321134D02*
X0592633Y0321134D01*
X0592633Y0319535D02*
X0584033Y0319535D01*
X0583648Y0317937D02*
X0593018Y0317937D01*
X0593934Y0316338D02*
X0582732Y0316338D01*
X0580528Y0314739D02*
X0596139Y0314739D01*
X0600528Y0314739D02*
X0606725Y0314739D01*
X0608133Y0314739D02*
X0608533Y0314739D01*
X0609941Y0314739D02*
X0616139Y0314739D01*
X0613934Y0316338D02*
X0612449Y0316338D01*
X0608533Y0316338D02*
X0608133Y0316338D01*
X0608133Y0317937D02*
X0608533Y0317937D01*
X0608533Y0319535D02*
X0608133Y0319535D01*
X0608133Y0321134D02*
X0608533Y0321134D01*
X0608533Y0322732D02*
X0608133Y0322732D01*
X0608133Y0324331D02*
X0608533Y0324331D01*
X0611730Y0324331D02*
X0614603Y0324331D01*
X0613295Y0322732D02*
X0613114Y0322732D01*
X0622064Y0324331D02*
X0624603Y0324331D01*
X0632064Y0324331D02*
X0634603Y0324331D01*
X0642064Y0324331D02*
X0644603Y0324331D01*
X0652064Y0324331D02*
X0715533Y0324331D01*
X0715533Y0325929D02*
X0348333Y0325929D01*
X0348333Y0324331D02*
X0485239Y0324331D01*
X0483782Y0322732D02*
X0348333Y0322732D01*
X0348333Y0321134D02*
X0483120Y0321134D01*
X0483083Y0319535D02*
X0369173Y0319535D01*
X0370945Y0317937D02*
X0483505Y0317937D01*
X0484571Y0316338D02*
X0371608Y0316338D01*
X0371733Y0314739D02*
X0486057Y0314739D01*
X0484050Y0313141D02*
X0371392Y0313141D01*
X0370430Y0311542D02*
X0483290Y0311542D01*
X0483083Y0309944D02*
X0367915Y0309944D01*
X0370259Y0308345D02*
X0483336Y0308345D01*
X0484162Y0306747D02*
X0371223Y0306747D01*
X0371319Y0303550D02*
X0376722Y0303550D01*
X0376633Y0301951D02*
X0370499Y0301951D01*
X0368411Y0300353D02*
X0375151Y0300353D01*
X0373552Y0298754D02*
X0370133Y0298754D01*
X0363533Y0305148D02*
X0377542Y0305148D01*
X0363133Y0305148D02*
X0348333Y0305148D01*
X0348333Y0303550D02*
X0355347Y0303550D01*
X0356168Y0301951D02*
X0348333Y0301951D01*
X0348333Y0300353D02*
X0358255Y0300353D01*
X0356534Y0298754D02*
X0348333Y0298754D01*
X0348333Y0297156D02*
X0355398Y0297156D01*
X0354933Y0295557D02*
X0348333Y0295557D01*
X0348333Y0293959D02*
X0354936Y0293959D01*
X0355598Y0292360D02*
X0348333Y0292360D01*
X0348333Y0290762D02*
X0357018Y0290762D01*
X0369649Y0290762D02*
X0514036Y0290762D01*
X0498728Y0313141D02*
X0631657Y0313141D01*
X0626139Y0314739D02*
X0620528Y0314739D01*
X0622732Y0316338D02*
X0623934Y0316338D01*
X0604217Y0316338D02*
X0602732Y0316338D01*
X0603371Y0322732D02*
X0603553Y0322732D01*
X0604937Y0324331D02*
X0602064Y0324331D01*
X0576139Y0314739D02*
X0570528Y0314739D01*
X0572732Y0316338D02*
X0573934Y0316338D01*
X0566139Y0314739D02*
X0560528Y0314739D01*
X0562732Y0316338D02*
X0563934Y0316338D01*
X0556139Y0314739D02*
X0550528Y0314739D01*
X0552732Y0316338D02*
X0553934Y0316338D01*
X0546139Y0314739D02*
X0540528Y0314739D01*
X0542732Y0316338D02*
X0543934Y0316338D01*
X0536139Y0314739D02*
X0530528Y0314739D01*
X0532732Y0316338D02*
X0533934Y0316338D01*
X0653371Y0322732D02*
X0715533Y0322732D01*
X0715533Y0321134D02*
X0654033Y0321134D01*
X0654033Y0319535D02*
X0715533Y0319535D01*
X0715533Y0317937D02*
X0653648Y0317937D01*
X0680833Y0285966D02*
X0689058Y0285966D01*
X0689140Y0286000D02*
X0686935Y0285087D01*
X0685247Y0283399D01*
X0684333Y0281193D01*
X0684333Y0278807D01*
X0685247Y0276601D01*
X0686935Y0274913D01*
X0689140Y0274000D01*
X0691527Y0274000D01*
X0693732Y0274913D01*
X0695420Y0276601D01*
X0696333Y0278807D01*
X0696333Y0281193D01*
X0695420Y0283399D01*
X0693732Y0285087D01*
X0691527Y0286000D01*
X0689140Y0286000D01*
X0691608Y0285966D02*
X0707058Y0285966D01*
X0704216Y0284368D02*
X0694451Y0284368D01*
X0695681Y0282769D02*
X0702986Y0282769D01*
X0702333Y0281171D02*
X0696333Y0281171D01*
X0696333Y0279572D02*
X0702333Y0279572D01*
X0702678Y0277974D02*
X0695988Y0277974D01*
X0695194Y0276375D02*
X0703473Y0276375D01*
X0705265Y0274777D02*
X0693402Y0274777D01*
X0687265Y0274777D02*
X0680833Y0274777D01*
X0680833Y0276375D02*
X0685473Y0276375D01*
X0684678Y0277974D02*
X0680833Y0277974D01*
X0680833Y0279572D02*
X0684333Y0279572D01*
X0684333Y0281171D02*
X0680833Y0281171D01*
X0680833Y0282769D02*
X0684986Y0282769D01*
X0686216Y0284368D02*
X0680833Y0284368D01*
X0675833Y0249201D02*
X0647194Y0249201D01*
X0648425Y0247602D02*
X0675833Y0247602D01*
X0675833Y0246003D02*
X0649033Y0246003D01*
X0649033Y0244405D02*
X0675833Y0244405D01*
X0675833Y0242806D02*
X0648594Y0242806D01*
X0647602Y0241208D02*
X0675833Y0241208D01*
X0675833Y0188457D02*
X0548412Y0188457D01*
X0550010Y0186859D02*
X0675833Y0186859D01*
X0675833Y0185260D02*
X0551609Y0185260D01*
X0553207Y0183662D02*
X0675833Y0183662D01*
X0675833Y0182063D02*
X0554806Y0182063D01*
X0556404Y0180465D02*
X0675833Y0180465D01*
X0675833Y0178866D02*
X0558003Y0178866D01*
X0559601Y0177268D02*
X0675833Y0177268D01*
X0675833Y0175669D02*
X0629542Y0175669D01*
X0629467Y0175700D02*
X0627200Y0175700D01*
X0625105Y0174832D01*
X0623501Y0173229D01*
X0622633Y0171134D01*
X0622633Y0168866D01*
X0623501Y0166771D01*
X0625105Y0165168D01*
X0627200Y0164300D01*
X0629467Y0164300D01*
X0631562Y0165168D01*
X0633166Y0166771D01*
X0634033Y0168866D01*
X0634033Y0171134D01*
X0633166Y0173229D01*
X0631562Y0174832D01*
X0629467Y0175700D01*
X0627125Y0175669D02*
X0579542Y0175669D01*
X0579467Y0175700D02*
X0577200Y0175700D01*
X0575105Y0174832D01*
X0573501Y0173229D01*
X0572633Y0171134D01*
X0572633Y0168866D01*
X0573501Y0166771D01*
X0575105Y0165168D01*
X0577200Y0164300D01*
X0579467Y0164300D01*
X0581562Y0165168D01*
X0583166Y0166771D01*
X0584033Y0168866D01*
X0584033Y0171134D01*
X0583166Y0173229D01*
X0581562Y0174832D01*
X0579467Y0175700D01*
X0577125Y0175669D02*
X0560762Y0175669D01*
X0560833Y0174070D02*
X0574343Y0174070D01*
X0573188Y0172472D02*
X0560833Y0172472D01*
X0560833Y0170873D02*
X0572633Y0170873D01*
X0572633Y0169275D02*
X0560833Y0169275D01*
X0560833Y0167676D02*
X0573126Y0167676D01*
X0574194Y0166078D02*
X0560833Y0166078D01*
X0560833Y0164479D02*
X0576766Y0164479D01*
X0579900Y0164479D02*
X0626766Y0164479D01*
X0624194Y0166078D02*
X0582472Y0166078D01*
X0583541Y0167676D02*
X0623126Y0167676D01*
X0622633Y0169275D02*
X0584033Y0169275D01*
X0584033Y0170873D02*
X0622633Y0170873D01*
X0623188Y0172472D02*
X0583479Y0172472D01*
X0582324Y0174070D02*
X0624343Y0174070D01*
X0632324Y0174070D02*
X0675833Y0174070D01*
X0675833Y0172472D02*
X0633479Y0172472D01*
X0634033Y0170873D02*
X0675833Y0170873D01*
X0675833Y0169275D02*
X0634033Y0169275D01*
X0633541Y0167676D02*
X0675833Y0167676D01*
X0675833Y0166078D02*
X0632472Y0166078D01*
X0629900Y0164479D02*
X0675833Y0164479D01*
X0675833Y0162881D02*
X0560833Y0162881D01*
X0560833Y0161282D02*
X0675833Y0161282D01*
X0675833Y0159684D02*
X0560833Y0159684D01*
X0560833Y0158085D02*
X0675833Y0158085D01*
X0675833Y0156487D02*
X0560833Y0156487D01*
X0534380Y0134108D02*
X0532287Y0134108D01*
X0481266Y0108532D02*
X0441992Y0108532D01*
X0434674Y0108532D02*
X0348333Y0108532D01*
X0348333Y0110130D02*
X0479668Y0110130D01*
X0478069Y0111729D02*
X0348333Y0111729D01*
X0348333Y0113327D02*
X0476471Y0113327D01*
X0474872Y0114926D02*
X0348333Y0114926D01*
X0348333Y0116524D02*
X0473274Y0116524D01*
X0434152Y0106933D02*
X0348333Y0106933D01*
X0371859Y0180465D02*
X0386631Y0180465D01*
X0390036Y0180465D02*
X0392137Y0180465D01*
X0393736Y0182063D02*
X0373286Y0182063D01*
X0375698Y0218829D02*
X0419738Y0218829D01*
X0422809Y0238011D02*
X0373256Y0238011D01*
X0371785Y0239609D02*
X0424407Y0239609D01*
X0355444Y0306747D02*
X0348333Y0306747D01*
X0348333Y0308345D02*
X0356408Y0308345D01*
X0358751Y0309944D02*
X0348333Y0309944D01*
X0348333Y0311542D02*
X0356237Y0311542D01*
X0355275Y0313141D02*
X0348333Y0313141D01*
X0348333Y0314739D02*
X0354933Y0314739D01*
X0355059Y0316338D02*
X0348333Y0316338D01*
X0348333Y0317937D02*
X0355721Y0317937D01*
X0357494Y0319535D02*
X0348333Y0319535D01*
X0348333Y0327528D02*
X0715533Y0327528D01*
X0715533Y0329126D02*
X0348333Y0329126D01*
X0348333Y0330725D02*
X0715533Y0330725D01*
X0715533Y0332323D02*
X0348333Y0332323D01*
X0348333Y0333922D02*
X0715533Y0333922D01*
X0715533Y0335520D02*
X0348333Y0335520D01*
X0348333Y0337119D02*
X0715533Y0337119D01*
X0715533Y0338717D02*
X0348333Y0338717D01*
X0348333Y0340316D02*
X0715533Y0340316D01*
X0715533Y0341914D02*
X0348333Y0341914D01*
X0592509Y0126115D02*
X0594157Y0126115D01*
X0603417Y0057379D02*
X0715533Y0057379D01*
X0715533Y0055781D02*
X0602175Y0055781D01*
D17*
X0438333Y0105000D03*
M02*
