G75*
%MOIN*%
%OFA0B0*%
%FSLAX25Y25*%
%IPPOS*%
%LPD*%
%AMOC8*
5,1,8,0,0,1.08239X$1,22.5*
%
%ADD10C,0.00600*%
%ADD11C,0.00800*%
%ADD12C,0.00200*%
%ADD13C,0.00400*%
%ADD14R,0.03500X0.05000*%
%ADD15C,0.01600*%
D10*
X0358633Y0067435D02*
X0360768Y0065300D01*
X0362904Y0067435D01*
X0362904Y0071705D01*
X0365079Y0070638D02*
X0365079Y0066368D01*
X0369349Y0070638D01*
X0369349Y0066368D01*
X0368282Y0065300D01*
X0366146Y0065300D01*
X0365079Y0066368D01*
X0365079Y0070638D02*
X0366146Y0071705D01*
X0368282Y0071705D01*
X0369349Y0070638D01*
X0371524Y0066368D02*
X0372592Y0066368D01*
X0372592Y0065300D01*
X0371524Y0065300D01*
X0371524Y0066368D01*
X0374747Y0065300D02*
X0379017Y0065300D01*
X0376882Y0065300D02*
X0376882Y0071705D01*
X0374747Y0069570D01*
X0374720Y0075300D02*
X0371518Y0075300D01*
X0370450Y0076368D01*
X0370450Y0078503D01*
X0371518Y0079570D01*
X0374720Y0079570D01*
X0374720Y0081705D02*
X0374720Y0075300D01*
X0376896Y0076368D02*
X0377963Y0075300D01*
X0381166Y0075300D01*
X0381166Y0079570D01*
X0383341Y0079570D02*
X0384409Y0079570D01*
X0384409Y0075300D01*
X0385476Y0075300D02*
X0383341Y0075300D01*
X0387638Y0075300D02*
X0387638Y0079570D01*
X0390841Y0079570D01*
X0391908Y0078503D01*
X0391908Y0075300D01*
X0394084Y0076368D02*
X0395151Y0075300D01*
X0397286Y0075300D01*
X0398354Y0076368D01*
X0398354Y0078503D01*
X0397286Y0079570D01*
X0395151Y0079570D01*
X0394084Y0078503D01*
X0394084Y0076368D01*
X0406975Y0076368D02*
X0408042Y0075300D01*
X0410177Y0075300D01*
X0411245Y0076368D01*
X0411245Y0077435D01*
X0410177Y0078503D01*
X0408042Y0078503D01*
X0406975Y0079570D01*
X0406975Y0080638D01*
X0408042Y0081705D01*
X0410177Y0081705D01*
X0411245Y0080638D01*
X0413420Y0081705D02*
X0413420Y0075300D01*
X0413420Y0078503D02*
X0414488Y0079570D01*
X0416623Y0079570D01*
X0417690Y0078503D01*
X0417690Y0075300D01*
X0419866Y0075300D02*
X0422001Y0075300D01*
X0420933Y0075300D02*
X0420933Y0079570D01*
X0419866Y0079570D01*
X0420933Y0081705D02*
X0420933Y0082773D01*
X0424163Y0078503D02*
X0425230Y0079570D01*
X0427365Y0079570D01*
X0428433Y0078503D01*
X0428433Y0077435D01*
X0424163Y0077435D01*
X0424163Y0076368D02*
X0424163Y0078503D01*
X0424163Y0076368D02*
X0425230Y0075300D01*
X0427365Y0075300D01*
X0430608Y0075300D02*
X0432743Y0075300D01*
X0431676Y0075300D02*
X0431676Y0081705D01*
X0430608Y0081705D01*
X0434905Y0078503D02*
X0435973Y0079570D01*
X0439175Y0079570D01*
X0439175Y0081705D02*
X0439175Y0075300D01*
X0435973Y0075300D01*
X0434905Y0076368D01*
X0434905Y0078503D01*
X0405874Y0087435D02*
X0401603Y0087435D01*
X0401603Y0086368D02*
X0401603Y0088503D01*
X0402671Y0089570D01*
X0404806Y0089570D01*
X0405874Y0088503D01*
X0405874Y0087435D01*
X0404806Y0085300D02*
X0402671Y0085300D01*
X0401603Y0086368D01*
X0399428Y0089570D02*
X0397293Y0085300D01*
X0395158Y0089570D01*
X0392983Y0088503D02*
X0392983Y0086368D01*
X0391915Y0085300D01*
X0389780Y0085300D01*
X0388712Y0086368D01*
X0388712Y0088503D01*
X0389780Y0089570D01*
X0391915Y0089570D01*
X0392983Y0088503D01*
X0386550Y0085300D02*
X0384415Y0085300D01*
X0385483Y0085300D02*
X0385483Y0091705D01*
X0384415Y0091705D01*
X0382240Y0090638D02*
X0381173Y0091705D01*
X0379037Y0091705D01*
X0377970Y0090638D01*
X0377970Y0086368D01*
X0379037Y0085300D01*
X0381173Y0085300D01*
X0382240Y0086368D01*
X0382240Y0088503D01*
X0380105Y0088503D01*
X0384409Y0082773D02*
X0384409Y0081705D01*
X0376896Y0079570D02*
X0376896Y0076368D01*
X0368282Y0079570D02*
X0367214Y0079570D01*
X0365079Y0077435D01*
X0365079Y0075300D02*
X0365079Y0079570D01*
X0362904Y0079570D02*
X0362904Y0075300D01*
X0362904Y0078503D02*
X0358633Y0078503D01*
X0358633Y0079570D02*
X0360768Y0081705D01*
X0362904Y0079570D01*
X0358633Y0079570D02*
X0358633Y0075300D01*
X0358633Y0071705D02*
X0358633Y0067435D01*
X0360768Y0085300D02*
X0362904Y0087435D01*
X0362904Y0091705D01*
X0365079Y0091705D02*
X0368282Y0091705D01*
X0369349Y0090638D01*
X0369349Y0088503D01*
X0368282Y0087435D01*
X0365079Y0087435D01*
X0367214Y0087435D02*
X0369349Y0085300D01*
X0365079Y0085300D02*
X0365079Y0091705D01*
X0358633Y0091705D02*
X0358633Y0087435D01*
X0360768Y0085300D01*
X0369695Y0096880D02*
X0373966Y0096880D01*
X0375033Y0097947D01*
X0375033Y0100082D01*
X0373966Y0101150D01*
X0369695Y0101150D01*
X0368628Y0100082D01*
X0368628Y0097947D01*
X0369695Y0096880D01*
X0370763Y0103325D02*
X0373966Y0103325D01*
X0375033Y0104393D01*
X0375033Y0107595D01*
X0370763Y0107595D01*
X0370763Y0109771D02*
X0370763Y0111906D01*
X0369695Y0110838D02*
X0373966Y0110838D01*
X0375033Y0111906D01*
X0375033Y0120513D02*
X0368628Y0120513D01*
X0370763Y0122648D01*
X0368628Y0124783D01*
X0375033Y0124783D01*
X0373966Y0126959D02*
X0371831Y0126959D01*
X0370763Y0128026D01*
X0370763Y0130161D01*
X0371831Y0131229D01*
X0373966Y0131229D01*
X0375033Y0130161D01*
X0375033Y0128026D01*
X0373966Y0126959D01*
X0370763Y0133404D02*
X0370763Y0135539D01*
X0369695Y0134472D02*
X0373966Y0134472D01*
X0375033Y0135539D01*
X0373966Y0137701D02*
X0375033Y0138769D01*
X0375033Y0140904D01*
X0373966Y0141971D01*
X0371831Y0141971D01*
X0370763Y0140904D01*
X0370763Y0138769D01*
X0371831Y0137701D01*
X0373966Y0137701D01*
X0375033Y0144147D02*
X0370763Y0144147D01*
X0370763Y0146282D02*
X0370763Y0147349D01*
X0370763Y0146282D02*
X0372898Y0144147D01*
X0371831Y0155963D02*
X0371831Y0160234D01*
X0371831Y0162409D02*
X0371831Y0166679D01*
X0371831Y0168854D02*
X0371831Y0172057D01*
X0372898Y0173125D01*
X0373966Y0173125D01*
X0375033Y0172057D01*
X0375033Y0169922D01*
X0373966Y0168854D01*
X0371831Y0168854D01*
X0369695Y0170990D01*
X0368628Y0173125D01*
X0378628Y0170082D02*
X0378628Y0167947D01*
X0379695Y0166880D01*
X0383966Y0166880D01*
X0385033Y0167947D01*
X0385033Y0170082D01*
X0383966Y0171150D01*
X0379695Y0171150D01*
X0378628Y0170082D01*
X0380763Y0173325D02*
X0383966Y0173325D01*
X0385033Y0174393D01*
X0385033Y0177595D01*
X0380763Y0177595D01*
X0380763Y0179771D02*
X0380763Y0181906D01*
X0379695Y0180838D02*
X0383966Y0180838D01*
X0385033Y0181906D01*
X0385033Y0190513D02*
X0378628Y0190513D01*
X0380763Y0192648D01*
X0378628Y0194783D01*
X0385033Y0194783D01*
X0383966Y0196959D02*
X0385033Y0198026D01*
X0385033Y0200161D01*
X0383966Y0201229D01*
X0381831Y0201229D01*
X0380763Y0200161D01*
X0380763Y0198026D01*
X0381831Y0196959D01*
X0383966Y0196959D01*
X0380763Y0203404D02*
X0380763Y0205539D01*
X0379695Y0204472D02*
X0383966Y0204472D01*
X0385033Y0205539D01*
X0383966Y0207701D02*
X0385033Y0208769D01*
X0385033Y0210904D01*
X0383966Y0211971D01*
X0381831Y0211971D01*
X0380763Y0210904D01*
X0380763Y0208769D01*
X0381831Y0207701D01*
X0383966Y0207701D01*
X0385033Y0214147D02*
X0380763Y0214147D01*
X0382898Y0214147D02*
X0380763Y0216282D01*
X0380763Y0217349D01*
X0380763Y0225963D02*
X0378628Y0228099D01*
X0385033Y0228099D01*
X0385033Y0230234D02*
X0385033Y0225963D01*
X0381831Y0232409D02*
X0381831Y0236679D01*
X0383966Y0238854D02*
X0385033Y0239922D01*
X0385033Y0242057D01*
X0383966Y0243125D01*
X0382898Y0243125D01*
X0381831Y0242057D01*
X0381831Y0240990D01*
X0381831Y0242057D02*
X0380763Y0243125D01*
X0379695Y0243125D01*
X0378628Y0242057D01*
X0378628Y0239922D01*
X0379695Y0238854D01*
X0477733Y0226181D02*
X0477733Y0222400D01*
X0480843Y0222400D01*
X0485922Y0222400D02*
X0488933Y0222400D01*
X0488933Y0226181D01*
X0567733Y0262400D02*
X0570843Y0262400D01*
X0567733Y0262400D02*
X0567733Y0266181D01*
X0575922Y0262400D02*
X0578933Y0262400D01*
X0578933Y0266181D01*
X0597733Y0217600D02*
X0600744Y0217600D01*
X0597733Y0217600D02*
X0597733Y0213819D01*
X0605824Y0217600D02*
X0608933Y0217600D01*
X0608933Y0213819D01*
X0449514Y0155600D02*
X0445733Y0155600D01*
X0445733Y0152491D01*
X0445733Y0147411D02*
X0445733Y0144400D01*
X0449514Y0144400D01*
X0375033Y0159166D02*
X0368628Y0159166D01*
X0371831Y0155963D01*
X0417733Y0106181D02*
X0417733Y0102400D01*
X0420843Y0102400D01*
X0425922Y0102400D02*
X0428933Y0102400D01*
X0428933Y0106181D01*
X0455733Y0105600D02*
X0455733Y0102491D01*
X0455733Y0105600D02*
X0459514Y0105600D01*
X0455733Y0097411D02*
X0455733Y0094400D01*
X0459514Y0094400D01*
X0568633Y0105300D02*
X0571836Y0105300D01*
X0572904Y0106368D01*
X0572904Y0110638D01*
X0571836Y0111705D01*
X0568633Y0111705D01*
X0568633Y0105300D01*
X0575079Y0106368D02*
X0575079Y0108503D01*
X0576146Y0109570D01*
X0578282Y0109570D01*
X0579349Y0108503D01*
X0579349Y0107435D01*
X0575079Y0107435D01*
X0575079Y0106368D02*
X0576146Y0105300D01*
X0578282Y0105300D01*
X0581524Y0105300D02*
X0584727Y0105300D01*
X0585795Y0106368D01*
X0584727Y0107435D01*
X0582592Y0107435D01*
X0581524Y0108503D01*
X0582592Y0109570D01*
X0585795Y0109570D01*
X0587970Y0109570D02*
X0589037Y0109570D01*
X0589037Y0105300D01*
X0587970Y0105300D02*
X0590105Y0105300D01*
X0592267Y0106368D02*
X0592267Y0108503D01*
X0593334Y0109570D01*
X0596537Y0109570D01*
X0596537Y0104232D01*
X0595470Y0103165D01*
X0594402Y0103165D01*
X0593334Y0105300D02*
X0596537Y0105300D01*
X0598712Y0105300D02*
X0598712Y0109570D01*
X0601915Y0109570D01*
X0602983Y0108503D01*
X0602983Y0105300D01*
X0605158Y0106368D02*
X0605158Y0108503D01*
X0606225Y0109570D01*
X0608361Y0109570D01*
X0609428Y0108503D01*
X0609428Y0107435D01*
X0605158Y0107435D01*
X0605158Y0106368D02*
X0606225Y0105300D01*
X0608361Y0105300D01*
X0611603Y0106368D02*
X0611603Y0108503D01*
X0612671Y0109570D01*
X0615874Y0109570D01*
X0615874Y0111705D02*
X0615874Y0105300D01*
X0612671Y0105300D01*
X0611603Y0106368D01*
X0624494Y0105300D02*
X0624494Y0111705D01*
X0624494Y0109570D02*
X0627697Y0109570D01*
X0628765Y0108503D01*
X0628765Y0106368D01*
X0627697Y0105300D01*
X0624494Y0105300D01*
X0630940Y0106368D02*
X0630940Y0109570D01*
X0630940Y0106368D02*
X0632007Y0105300D01*
X0635210Y0105300D01*
X0635210Y0104232D02*
X0634143Y0103165D01*
X0633075Y0103165D01*
X0635210Y0104232D02*
X0635210Y0109570D01*
X0643831Y0106368D02*
X0644898Y0105300D01*
X0645966Y0105300D01*
X0647034Y0106368D01*
X0647034Y0111705D01*
X0648101Y0111705D02*
X0645966Y0111705D01*
X0651344Y0109570D02*
X0653479Y0109570D01*
X0654547Y0108503D01*
X0654547Y0105300D01*
X0651344Y0105300D01*
X0650276Y0106368D01*
X0651344Y0107435D01*
X0654547Y0107435D01*
X0656722Y0106368D02*
X0656722Y0108503D01*
X0657789Y0109570D01*
X0660992Y0109570D01*
X0663167Y0107435D02*
X0666370Y0109570D01*
X0668539Y0109570D02*
X0668539Y0106368D01*
X0669606Y0105300D01*
X0672809Y0105300D01*
X0672809Y0104232D02*
X0671741Y0103165D01*
X0670674Y0103165D01*
X0672809Y0104232D02*
X0672809Y0109570D01*
X0666370Y0105300D02*
X0663167Y0107435D01*
X0663167Y0105300D02*
X0663167Y0111705D01*
X0660992Y0105300D02*
X0657789Y0105300D01*
X0656722Y0106368D01*
X0681430Y0105300D02*
X0685700Y0105300D01*
X0687875Y0105300D02*
X0690010Y0105300D01*
X0688943Y0105300D02*
X0688943Y0109570D01*
X0687875Y0109570D01*
X0688943Y0111705D02*
X0688943Y0112773D01*
X0693240Y0109570D02*
X0695375Y0109570D01*
X0696442Y0108503D01*
X0696442Y0105300D01*
X0693240Y0105300D01*
X0692172Y0106368D01*
X0693240Y0107435D01*
X0696442Y0107435D01*
X0698618Y0105300D02*
X0698618Y0109570D01*
X0701820Y0109570D01*
X0702888Y0108503D01*
X0702888Y0105300D01*
X0705063Y0106368D02*
X0706131Y0105300D01*
X0709333Y0105300D01*
X0709333Y0104232D02*
X0709333Y0109570D01*
X0706131Y0109570D01*
X0705063Y0108503D01*
X0705063Y0106368D01*
X0707198Y0103165D02*
X0708266Y0103165D01*
X0709333Y0104232D01*
X0696458Y0093638D02*
X0695391Y0094705D01*
X0693255Y0094705D01*
X0692188Y0093638D01*
X0692188Y0089368D01*
X0693255Y0088300D01*
X0695391Y0088300D01*
X0696458Y0089368D01*
X0695391Y0084705D02*
X0692188Y0084705D01*
X0692188Y0078300D01*
X0695391Y0078300D01*
X0696458Y0079368D01*
X0696458Y0083638D01*
X0695391Y0084705D01*
X0690013Y0084705D02*
X0690013Y0078300D01*
X0685742Y0084705D01*
X0685742Y0078300D01*
X0683567Y0079368D02*
X0683567Y0081503D01*
X0681432Y0081503D01*
X0683567Y0083638D02*
X0682500Y0084705D01*
X0680364Y0084705D01*
X0679297Y0083638D01*
X0679297Y0079368D01*
X0680364Y0078300D01*
X0682500Y0078300D01*
X0683567Y0079368D01*
X0685742Y0074705D02*
X0688945Y0074705D01*
X0690013Y0073638D01*
X0690013Y0071503D01*
X0688945Y0070435D01*
X0685742Y0070435D01*
X0685742Y0068300D02*
X0685742Y0074705D01*
X0687877Y0070435D02*
X0690013Y0068300D01*
X0692188Y0068300D02*
X0696458Y0072570D01*
X0692188Y0072570D02*
X0696458Y0068300D01*
X0696458Y0062570D02*
X0692188Y0058300D01*
X0692319Y0058503D02*
X0692319Y0057435D01*
X0688049Y0057435D01*
X0687877Y0058300D02*
X0687877Y0064705D01*
X0685742Y0064705D02*
X0690013Y0064705D01*
X0692188Y0062570D02*
X0696458Y0058300D01*
X0692319Y0058503D02*
X0691252Y0059570D01*
X0689116Y0059570D01*
X0688049Y0058503D01*
X0688049Y0056368D01*
X0689116Y0055300D01*
X0691252Y0055300D01*
X0685887Y0055300D02*
X0683752Y0055300D01*
X0684819Y0055300D02*
X0684819Y0061705D01*
X0683752Y0061705D01*
X0681577Y0059570D02*
X0681577Y0055300D01*
X0678374Y0055300D01*
X0677306Y0056368D01*
X0677306Y0059570D01*
X0675131Y0059570D02*
X0671928Y0059570D01*
X0670861Y0058503D01*
X0670861Y0056368D01*
X0671928Y0055300D01*
X0675131Y0055300D01*
X0675131Y0061705D01*
X0668686Y0058503D02*
X0667618Y0059570D01*
X0665483Y0059570D01*
X0664415Y0058503D01*
X0664415Y0056368D01*
X0665483Y0055300D01*
X0667618Y0055300D01*
X0668686Y0056368D01*
X0668686Y0058503D01*
X0662240Y0061705D02*
X0662240Y0055300D01*
X0657970Y0055300D02*
X0657970Y0061705D01*
X0660105Y0059570D01*
X0662240Y0061705D01*
X0649349Y0061705D02*
X0645079Y0061705D01*
X0647214Y0061705D02*
X0647214Y0055300D01*
X0642904Y0056368D02*
X0641836Y0055300D01*
X0638633Y0055300D01*
X0638633Y0061705D01*
X0641836Y0061705D01*
X0642904Y0060638D01*
X0642904Y0059570D01*
X0641836Y0058503D01*
X0638633Y0058503D01*
X0641836Y0058503D02*
X0642904Y0057435D01*
X0642904Y0056368D01*
X0679297Y0090435D02*
X0681432Y0088300D01*
X0683567Y0090435D01*
X0683567Y0094705D01*
X0685742Y0093638D02*
X0685742Y0089368D01*
X0686810Y0088300D01*
X0688945Y0088300D01*
X0690013Y0089368D01*
X0679297Y0090435D02*
X0679297Y0094705D01*
X0685742Y0093638D02*
X0686810Y0094705D01*
X0688945Y0094705D01*
X0690013Y0093638D01*
X0681430Y0105300D02*
X0681430Y0111705D01*
X0593334Y0105300D02*
X0592267Y0106368D01*
X0589037Y0111705D02*
X0589037Y0112773D01*
X0353333Y0284500D02*
X0304333Y0284500D01*
X0304333Y0288000D01*
X0298333Y0288000D01*
X0298333Y0284500D01*
X0290833Y0284500D01*
X0290833Y0325500D01*
X0298333Y0325500D01*
X0298333Y0322000D01*
X0304333Y0322000D01*
X0304333Y0325500D01*
X0353333Y0325500D01*
X0353333Y0284500D01*
X0297233Y0305000D02*
X0297235Y0305174D01*
X0297242Y0305348D01*
X0297252Y0305522D01*
X0297267Y0305696D01*
X0297286Y0305869D01*
X0297310Y0306042D01*
X0297338Y0306214D01*
X0297369Y0306385D01*
X0297406Y0306556D01*
X0297446Y0306725D01*
X0297490Y0306894D01*
X0297539Y0307061D01*
X0297591Y0307227D01*
X0297648Y0307392D01*
X0297709Y0307555D01*
X0297773Y0307717D01*
X0297842Y0307877D01*
X0297915Y0308036D01*
X0297991Y0308192D01*
X0298071Y0308347D01*
X0298155Y0308500D01*
X0298243Y0308650D01*
X0298335Y0308798D01*
X0298430Y0308945D01*
X0298528Y0309088D01*
X0298630Y0309229D01*
X0298736Y0309368D01*
X0298845Y0309504D01*
X0298957Y0309638D01*
X0299072Y0309768D01*
X0299191Y0309896D01*
X0299313Y0310020D01*
X0299437Y0310142D01*
X0299565Y0310261D01*
X0299695Y0310376D01*
X0299829Y0310488D01*
X0299965Y0310597D01*
X0300104Y0310703D01*
X0300245Y0310805D01*
X0300388Y0310903D01*
X0300535Y0310998D01*
X0300683Y0311090D01*
X0300833Y0311178D01*
X0300986Y0311262D01*
X0301141Y0311342D01*
X0301297Y0311418D01*
X0301456Y0311491D01*
X0301616Y0311560D01*
X0301778Y0311624D01*
X0301941Y0311685D01*
X0302106Y0311742D01*
X0302272Y0311794D01*
X0302439Y0311843D01*
X0302608Y0311887D01*
X0302777Y0311927D01*
X0302948Y0311964D01*
X0303119Y0311995D01*
X0303291Y0312023D01*
X0303464Y0312047D01*
X0303637Y0312066D01*
X0303811Y0312081D01*
X0303985Y0312091D01*
X0304159Y0312098D01*
X0304333Y0312100D01*
X0304507Y0312098D01*
X0304681Y0312091D01*
X0304855Y0312081D01*
X0305029Y0312066D01*
X0305202Y0312047D01*
X0305375Y0312023D01*
X0305547Y0311995D01*
X0305718Y0311964D01*
X0305889Y0311927D01*
X0306058Y0311887D01*
X0306227Y0311843D01*
X0306394Y0311794D01*
X0306560Y0311742D01*
X0306725Y0311685D01*
X0306888Y0311624D01*
X0307050Y0311560D01*
X0307210Y0311491D01*
X0307369Y0311418D01*
X0307525Y0311342D01*
X0307680Y0311262D01*
X0307833Y0311178D01*
X0307983Y0311090D01*
X0308131Y0310998D01*
X0308278Y0310903D01*
X0308421Y0310805D01*
X0308562Y0310703D01*
X0308701Y0310597D01*
X0308837Y0310488D01*
X0308971Y0310376D01*
X0309101Y0310261D01*
X0309229Y0310142D01*
X0309353Y0310020D01*
X0309475Y0309896D01*
X0309594Y0309768D01*
X0309709Y0309638D01*
X0309821Y0309504D01*
X0309930Y0309368D01*
X0310036Y0309229D01*
X0310138Y0309088D01*
X0310236Y0308945D01*
X0310331Y0308798D01*
X0310423Y0308650D01*
X0310511Y0308500D01*
X0310595Y0308347D01*
X0310675Y0308192D01*
X0310751Y0308036D01*
X0310824Y0307877D01*
X0310893Y0307717D01*
X0310957Y0307555D01*
X0311018Y0307392D01*
X0311075Y0307227D01*
X0311127Y0307061D01*
X0311176Y0306894D01*
X0311220Y0306725D01*
X0311260Y0306556D01*
X0311297Y0306385D01*
X0311328Y0306214D01*
X0311356Y0306042D01*
X0311380Y0305869D01*
X0311399Y0305696D01*
X0311414Y0305522D01*
X0311424Y0305348D01*
X0311431Y0305174D01*
X0311433Y0305000D01*
X0311431Y0304826D01*
X0311424Y0304652D01*
X0311414Y0304478D01*
X0311399Y0304304D01*
X0311380Y0304131D01*
X0311356Y0303958D01*
X0311328Y0303786D01*
X0311297Y0303615D01*
X0311260Y0303444D01*
X0311220Y0303275D01*
X0311176Y0303106D01*
X0311127Y0302939D01*
X0311075Y0302773D01*
X0311018Y0302608D01*
X0310957Y0302445D01*
X0310893Y0302283D01*
X0310824Y0302123D01*
X0310751Y0301964D01*
X0310675Y0301808D01*
X0310595Y0301653D01*
X0310511Y0301500D01*
X0310423Y0301350D01*
X0310331Y0301202D01*
X0310236Y0301055D01*
X0310138Y0300912D01*
X0310036Y0300771D01*
X0309930Y0300632D01*
X0309821Y0300496D01*
X0309709Y0300362D01*
X0309594Y0300232D01*
X0309475Y0300104D01*
X0309353Y0299980D01*
X0309229Y0299858D01*
X0309101Y0299739D01*
X0308971Y0299624D01*
X0308837Y0299512D01*
X0308701Y0299403D01*
X0308562Y0299297D01*
X0308421Y0299195D01*
X0308278Y0299097D01*
X0308131Y0299002D01*
X0307983Y0298910D01*
X0307833Y0298822D01*
X0307680Y0298738D01*
X0307525Y0298658D01*
X0307369Y0298582D01*
X0307210Y0298509D01*
X0307050Y0298440D01*
X0306888Y0298376D01*
X0306725Y0298315D01*
X0306560Y0298258D01*
X0306394Y0298206D01*
X0306227Y0298157D01*
X0306058Y0298113D01*
X0305889Y0298073D01*
X0305718Y0298036D01*
X0305547Y0298005D01*
X0305375Y0297977D01*
X0305202Y0297953D01*
X0305029Y0297934D01*
X0304855Y0297919D01*
X0304681Y0297909D01*
X0304507Y0297902D01*
X0304333Y0297900D01*
X0304159Y0297902D01*
X0303985Y0297909D01*
X0303811Y0297919D01*
X0303637Y0297934D01*
X0303464Y0297953D01*
X0303291Y0297977D01*
X0303119Y0298005D01*
X0302948Y0298036D01*
X0302777Y0298073D01*
X0302608Y0298113D01*
X0302439Y0298157D01*
X0302272Y0298206D01*
X0302106Y0298258D01*
X0301941Y0298315D01*
X0301778Y0298376D01*
X0301616Y0298440D01*
X0301456Y0298509D01*
X0301297Y0298582D01*
X0301141Y0298658D01*
X0300986Y0298738D01*
X0300833Y0298822D01*
X0300683Y0298910D01*
X0300535Y0299002D01*
X0300388Y0299097D01*
X0300245Y0299195D01*
X0300104Y0299297D01*
X0299965Y0299403D01*
X0299829Y0299512D01*
X0299695Y0299624D01*
X0299565Y0299739D01*
X0299437Y0299858D01*
X0299313Y0299980D01*
X0299191Y0300104D01*
X0299072Y0300232D01*
X0298957Y0300362D01*
X0298845Y0300496D01*
X0298736Y0300632D01*
X0298630Y0300771D01*
X0298528Y0300912D01*
X0298430Y0301055D01*
X0298335Y0301202D01*
X0298243Y0301350D01*
X0298155Y0301500D01*
X0298071Y0301653D01*
X0297991Y0301808D01*
X0297915Y0301964D01*
X0297842Y0302123D01*
X0297773Y0302283D01*
X0297709Y0302445D01*
X0297648Y0302608D01*
X0297591Y0302773D01*
X0297539Y0302939D01*
X0297490Y0303106D01*
X0297446Y0303275D01*
X0297406Y0303444D01*
X0297369Y0303615D01*
X0297338Y0303786D01*
X0297310Y0303958D01*
X0297286Y0304131D01*
X0297267Y0304304D01*
X0297252Y0304478D01*
X0297242Y0304652D01*
X0297235Y0304826D01*
X0297233Y0305000D01*
X0672109Y0318300D02*
X0676379Y0318300D01*
X0674244Y0318300D02*
X0674244Y0324705D01*
X0672109Y0322570D01*
X0678554Y0323638D02*
X0679622Y0324705D01*
X0681757Y0324705D01*
X0682825Y0323638D01*
X0682825Y0322570D01*
X0678554Y0318300D01*
X0682825Y0318300D01*
X0685000Y0320435D02*
X0687135Y0318300D01*
X0689270Y0320435D01*
X0689270Y0324705D01*
X0685000Y0324705D02*
X0685000Y0320435D01*
X0697891Y0318300D02*
X0700026Y0318300D01*
X0698958Y0318300D02*
X0698958Y0324705D01*
X0697891Y0324705D02*
X0700026Y0324705D01*
X0702188Y0322570D02*
X0705391Y0322570D01*
X0706458Y0321503D01*
X0706458Y0318300D01*
X0702188Y0318300D02*
X0702188Y0322570D01*
D11*
X0700459Y0297717D02*
X0692192Y0297717D01*
X0676444Y0297717D02*
X0669751Y0297717D01*
X0669751Y0262283D01*
X0676050Y0262283D01*
X0692192Y0262283D02*
X0700459Y0262283D01*
X0708333Y0270157D02*
X0722113Y0270157D01*
X0722113Y0289843D01*
X0708333Y0289843D01*
X0722113Y0289843D02*
X0722113Y0297717D01*
X0716207Y0297717D01*
X0708334Y0289843D02*
X0708106Y0289830D01*
X0707879Y0289811D01*
X0707652Y0289787D01*
X0707426Y0289758D01*
X0707201Y0289723D01*
X0706977Y0289683D01*
X0706754Y0289637D01*
X0706531Y0289586D01*
X0706311Y0289530D01*
X0706091Y0289468D01*
X0705873Y0289401D01*
X0705657Y0289329D01*
X0705443Y0289251D01*
X0705231Y0289169D01*
X0705020Y0289081D01*
X0704812Y0288988D01*
X0704606Y0288890D01*
X0704403Y0288788D01*
X0704202Y0288680D01*
X0704004Y0288568D01*
X0703808Y0288450D01*
X0703616Y0288329D01*
X0703426Y0288202D01*
X0703239Y0288071D01*
X0703056Y0287936D01*
X0702876Y0287796D01*
X0702700Y0287651D01*
X0702527Y0287503D01*
X0702358Y0287350D01*
X0702192Y0287194D01*
X0702030Y0287033D01*
X0701872Y0286869D01*
X0701719Y0286701D01*
X0701569Y0286529D01*
X0701423Y0286353D01*
X0701282Y0286174D01*
X0701145Y0285992D01*
X0701013Y0285807D01*
X0700885Y0285618D01*
X0700762Y0285426D01*
X0700643Y0285232D01*
X0700529Y0285034D01*
X0700420Y0284834D01*
X0700316Y0284632D01*
X0700217Y0284426D01*
X0700123Y0284219D01*
X0700033Y0284009D01*
X0699949Y0283797D01*
X0699870Y0283584D01*
X0699796Y0283368D01*
X0699728Y0283151D01*
X0699664Y0282932D01*
X0699606Y0282711D01*
X0699554Y0282490D01*
X0699506Y0282267D01*
X0699464Y0282043D01*
X0699428Y0281818D01*
X0699397Y0281592D01*
X0699371Y0281365D01*
X0699351Y0281138D01*
X0699337Y0280911D01*
X0699328Y0280683D01*
X0699324Y0280455D01*
X0699326Y0280228D01*
X0699333Y0280000D01*
X0699326Y0279772D01*
X0699324Y0279545D01*
X0699328Y0279317D01*
X0699337Y0279089D01*
X0699351Y0278862D01*
X0699371Y0278635D01*
X0699397Y0278408D01*
X0699428Y0278182D01*
X0699464Y0277957D01*
X0699506Y0277733D01*
X0699554Y0277510D01*
X0699606Y0277289D01*
X0699664Y0277068D01*
X0699728Y0276849D01*
X0699796Y0276632D01*
X0699870Y0276416D01*
X0699949Y0276203D01*
X0700033Y0275991D01*
X0700123Y0275781D01*
X0700217Y0275574D01*
X0700316Y0275368D01*
X0700420Y0275166D01*
X0700529Y0274966D01*
X0700643Y0274768D01*
X0700762Y0274574D01*
X0700885Y0274382D01*
X0701013Y0274193D01*
X0701145Y0274008D01*
X0701282Y0273826D01*
X0701423Y0273647D01*
X0701569Y0273471D01*
X0701719Y0273299D01*
X0701872Y0273131D01*
X0702030Y0272967D01*
X0702192Y0272806D01*
X0702358Y0272650D01*
X0702527Y0272497D01*
X0702700Y0272349D01*
X0702876Y0272204D01*
X0703056Y0272064D01*
X0703239Y0271929D01*
X0703426Y0271798D01*
X0703616Y0271671D01*
X0703808Y0271550D01*
X0704004Y0271432D01*
X0704202Y0271320D01*
X0704403Y0271212D01*
X0704606Y0271110D01*
X0704812Y0271012D01*
X0705020Y0270919D01*
X0705231Y0270831D01*
X0705443Y0270749D01*
X0705657Y0270671D01*
X0705873Y0270599D01*
X0706091Y0270532D01*
X0706311Y0270470D01*
X0706531Y0270414D01*
X0706754Y0270363D01*
X0706977Y0270317D01*
X0707201Y0270277D01*
X0707426Y0270242D01*
X0707652Y0270213D01*
X0707879Y0270189D01*
X0708106Y0270170D01*
X0708334Y0270157D01*
X0722113Y0270157D02*
X0722113Y0262283D01*
X0716207Y0262283D01*
X0649829Y0237717D02*
X0649829Y0202283D01*
X0636837Y0202283D01*
X0636837Y0237717D01*
X0649829Y0237717D01*
X0570833Y0225000D02*
X0565833Y0225000D01*
X0549042Y0220945D02*
X0547270Y0220945D01*
X0549042Y0220945D02*
X0549042Y0239055D01*
X0547270Y0239055D01*
X0547270Y0233937D02*
X0539396Y0233937D01*
X0539396Y0239055D02*
X0537625Y0239055D01*
X0537625Y0220945D01*
X0539396Y0220945D01*
X0518333Y0222500D02*
X0518333Y0227500D01*
X0517625Y0245945D02*
X0517625Y0264055D01*
X0519396Y0264055D01*
X0527270Y0264055D02*
X0529042Y0264055D01*
X0529042Y0245945D01*
X0527270Y0245945D01*
X0519396Y0245945D02*
X0517625Y0245945D01*
X0499042Y0245945D02*
X0497270Y0245945D01*
X0499042Y0245945D02*
X0499042Y0264055D01*
X0497270Y0264055D01*
X0489396Y0264055D02*
X0487625Y0264055D01*
X0487625Y0245945D01*
X0489396Y0245945D01*
X0489396Y0258937D02*
X0497270Y0258937D01*
X0519396Y0258937D02*
X0527270Y0258937D01*
X0549278Y0289291D02*
X0549278Y0291063D01*
X0549278Y0289291D02*
X0567388Y0289291D01*
X0567388Y0291063D01*
X0554396Y0291063D02*
X0554396Y0298937D01*
X0549278Y0298937D02*
X0549278Y0300709D01*
X0567388Y0300709D01*
X0567388Y0298937D01*
X0490833Y0315000D02*
X0485833Y0315000D01*
X0419042Y0279055D02*
X0419042Y0260945D01*
X0417270Y0260945D01*
X0409396Y0260945D02*
X0407625Y0260945D01*
X0407625Y0279055D01*
X0409396Y0279055D01*
X0417270Y0279055D02*
X0419042Y0279055D01*
X0417270Y0273937D02*
X0409396Y0273937D01*
X0389042Y0265945D02*
X0389042Y0284055D01*
X0387270Y0284055D01*
X0387270Y0278937D02*
X0379396Y0278937D01*
X0379396Y0284055D02*
X0377625Y0284055D01*
X0377625Y0265945D01*
X0379396Y0265945D01*
X0387270Y0265945D02*
X0389042Y0265945D01*
X0414278Y0245709D02*
X0432388Y0245709D01*
X0432388Y0243937D01*
X0427270Y0243937D02*
X0427270Y0236063D01*
X0432388Y0236063D02*
X0432388Y0234291D01*
X0414278Y0234291D01*
X0414278Y0236063D01*
X0414278Y0243937D02*
X0414278Y0245709D01*
X0445833Y0255000D02*
X0450833Y0255000D01*
X0373333Y0237500D02*
X0373333Y0232500D01*
X0370833Y0230000D01*
X0373333Y0227500D01*
X0373333Y0222500D01*
X0370833Y0220000D01*
X0373333Y0217500D01*
X0373333Y0212500D01*
X0370833Y0210000D01*
X0373333Y0207500D01*
X0373333Y0202500D01*
X0370833Y0200000D01*
X0373333Y0197500D01*
X0373333Y0192500D01*
X0370833Y0190000D01*
X0373333Y0187500D01*
X0373333Y0182500D01*
X0370833Y0180000D01*
X0365833Y0180000D01*
X0363333Y0182500D01*
X0363333Y0187500D01*
X0365833Y0190000D01*
X0363333Y0192500D01*
X0363333Y0197500D01*
X0365833Y0200000D01*
X0363333Y0202500D01*
X0363333Y0207500D01*
X0365833Y0210000D01*
X0363333Y0212500D01*
X0363333Y0217500D01*
X0365833Y0220000D01*
X0363333Y0222500D01*
X0363333Y0227500D01*
X0365833Y0230000D01*
X0363333Y0232500D01*
X0363333Y0237500D01*
X0365833Y0240000D01*
X0370833Y0240000D01*
X0373333Y0237500D01*
X0428333Y0217500D02*
X0428333Y0212500D01*
X0393333Y0177500D02*
X0393333Y0172500D01*
X0390833Y0170000D01*
X0393333Y0167500D01*
X0393333Y0162500D01*
X0390833Y0160000D01*
X0393333Y0157500D01*
X0393333Y0152500D01*
X0390833Y0150000D01*
X0393333Y0147500D01*
X0393333Y0142500D01*
X0390833Y0140000D01*
X0393333Y0137500D01*
X0393333Y0132500D01*
X0390833Y0130000D01*
X0393333Y0127500D01*
X0393333Y0122500D01*
X0390833Y0120000D01*
X0385833Y0120000D01*
X0383333Y0122500D01*
X0383333Y0127500D01*
X0385833Y0130000D01*
X0383333Y0132500D01*
X0383333Y0137500D01*
X0385833Y0140000D01*
X0383333Y0142500D01*
X0383333Y0147500D01*
X0385833Y0150000D01*
X0383333Y0152500D01*
X0383333Y0157500D01*
X0385833Y0160000D01*
X0383333Y0162500D01*
X0383333Y0167500D01*
X0385833Y0170000D01*
X0383333Y0172500D01*
X0383333Y0177500D01*
X0385833Y0180000D01*
X0390833Y0180000D01*
X0393333Y0177500D01*
X0415833Y0175000D02*
X0420833Y0175000D01*
X0565617Y0156496D02*
X0565617Y0143504D01*
X0601050Y0143504D01*
X0601050Y0156496D01*
X0565617Y0156496D01*
X0585617Y0163504D02*
X0585617Y0176496D01*
X0621050Y0176496D01*
X0621050Y0163504D01*
X0585617Y0163504D01*
X0703333Y0097500D02*
X0703333Y0092500D01*
X0705833Y0090000D01*
X0703333Y0087500D01*
X0703333Y0082500D01*
X0705833Y0080000D01*
X0703333Y0077500D01*
X0703333Y0072500D01*
X0705833Y0070000D01*
X0703333Y0067500D01*
X0703333Y0062500D01*
X0705833Y0060000D01*
X0710833Y0060000D01*
X0713333Y0062500D01*
X0713333Y0067500D01*
X0710833Y0070000D01*
X0713333Y0072500D01*
X0713333Y0077500D01*
X0710833Y0080000D01*
X0713333Y0082500D01*
X0713333Y0087500D01*
X0710833Y0090000D01*
X0713333Y0092500D01*
X0713333Y0097500D01*
X0710833Y0100000D01*
X0705833Y0100000D01*
X0703333Y0097500D01*
X0591050Y0066496D02*
X0591050Y0053504D01*
X0555617Y0053504D01*
X0555617Y0066496D01*
X0591050Y0066496D01*
X0491050Y0066496D02*
X0491050Y0053504D01*
X0455617Y0053504D01*
X0455617Y0066496D01*
X0491050Y0066496D01*
D12*
X0350833Y0287000D02*
X0318333Y0287000D01*
X0318333Y0323000D01*
X0350833Y0323000D01*
X0350833Y0287000D01*
D13*
X0317133Y0287700D02*
X0314798Y0287700D01*
X0313630Y0288868D01*
X0314798Y0290035D01*
X0317133Y0290035D01*
X0317133Y0291291D02*
X0317133Y0293626D01*
X0317133Y0292459D02*
X0313630Y0292459D01*
X0314798Y0291291D01*
X0315382Y0290035D02*
X0315382Y0287700D01*
X0315382Y0294882D02*
X0313630Y0294882D01*
X0313630Y0297217D01*
X0314798Y0296634D02*
X0315382Y0297217D01*
X0316550Y0297217D01*
X0317133Y0296634D01*
X0317133Y0295466D01*
X0316550Y0294882D01*
X0315382Y0294882D02*
X0314798Y0296050D01*
X0314798Y0296634D01*
X0316550Y0299057D02*
X0317133Y0299057D01*
X0317133Y0299641D01*
X0316550Y0299641D01*
X0316550Y0299057D01*
X0317133Y0299641D02*
X0318301Y0298473D01*
X0317133Y0300867D02*
X0314798Y0303203D01*
X0314214Y0303203D01*
X0313630Y0302619D01*
X0313630Y0301451D01*
X0314214Y0300867D01*
X0317133Y0300867D02*
X0317133Y0303203D01*
X0317133Y0304458D02*
X0314798Y0304458D01*
X0314798Y0305042D01*
X0315382Y0305626D01*
X0314798Y0306210D01*
X0315382Y0306794D01*
X0317133Y0306794D01*
X0317133Y0305626D02*
X0315382Y0305626D01*
X0314798Y0308049D02*
X0314798Y0308633D01*
X0315382Y0309217D01*
X0314798Y0309801D01*
X0315382Y0310385D01*
X0317133Y0310385D01*
X0317133Y0309217D02*
X0315382Y0309217D01*
X0314798Y0308049D02*
X0317133Y0308049D01*
D14*
X0355083Y0305000D03*
X0355083Y0295000D03*
X0355083Y0315000D03*
D15*
X0418213Y0305000D02*
X0418453Y0305000D01*
X0558333Y0334880D02*
X0558333Y0335120D01*
M02*
