%
M48
M72
T01C0.02000
T02C0.02756
T03C0.03200
T04C0.03543
T05C0.04000
T06C0.08000
T07C0.13000
%
T01
X479583Y213125
X479583Y218125
X505208Y243750
X513958Y247500
X444583Y248750
T02
X448333Y240000
X448333Y230000
X443333Y195000
X453333Y195000
X543333Y245000
X553333Y245000
X563333Y245000
X573333Y245000
X478333Y295000
X478333Y305000
X468333Y315000
X458333Y315000
X493333Y315000
X503333Y315000
X458333Y290000
X458333Y280000
T03
X468333Y250000
X475833Y245000
X468333Y240000
X523333Y215000
X528333Y207500
X533333Y215000
X558333Y200000
X565833Y195000
X558333Y190000
X515833Y175000
X508333Y170000
X508333Y180000
X485833Y175000
X478333Y170000
X478333Y180000
X448333Y150000
X455833Y145000
X448333Y140000
T04
X448333Y115000
X498333Y115000
X518333Y110000
X568333Y110000
X598333Y110000
X648333Y110000
X588333Y160000
X578333Y180000
X598333Y200000
X593333Y215000
X593333Y225000
X563333Y225000
X563333Y215000
X628333Y180000
X648333Y200000
X538333Y160000
X528333Y260000
X558333Y260000
X568333Y260000
X513333Y285000
X528333Y290000
X558333Y290000
X568333Y290000
X583333Y295000
X613333Y295000
X483333Y285000
T05
X428333Y155000
X428333Y165000
X428333Y175000
X428333Y185000
X428333Y195000
X428333Y205000
X428333Y215000
X428333Y225000
X428333Y235000
X428333Y245000
X428333Y255000
X428333Y265000
X433333Y295000
X433333Y305000
X433333Y315000
X528333Y320000
X538333Y320000
X548333Y320000
X558333Y320000
X568333Y320000
X578333Y320000
X598333Y320000
X608333Y320000
X618333Y320000
X628333Y320000
X638333Y320000
X648333Y320000
X688833Y205000
X687833Y195000
X688833Y185000
X687833Y175000
X683333Y130000
X673333Y130000
X663333Y130000
X653333Y130000
X643333Y130000
X633333Y130000
X623333Y130000
X613333Y130000
X598333Y130000
X588333Y130000
X578333Y130000
X568333Y130000
X558333Y130000
X548333Y130000
X538333Y130000
X528333Y130000
T06
X690333Y280000
X708333Y280000
T07
X374333Y305000
M30
